<svg id="svg" version="1.1" xmlns="http://www.w3.org/2000/svg" xmlns:xlink="http://www.w3.org/1999/xlink" width="400" height="400" viewBox="0, 0, 400,400"><g id="svgg"><path id="path0" d="M195.000 179.877 C 187.666 181.571,182.952 182.944,180.200 184.191 C 179.540 184.490,178.190 185.052,177.200 185.441 C 161.821 191.482,144.026 209.282,137.850 224.801 C 137.457 225.790,136.890 227.140,136.591 227.800 C 135.392 230.447,133.684 236.273,132.546 241.600 C 130.643 250.508,130.749 262.549,132.819 272.400 C 133.746 276.816,133.915 277.456,134.978 280.600 C 142.654 303.304,159.638 320.927,182.000 329.394 C 192.146 333.236,206.040 335.168,215.084 333.996 C 222.266 333.065,224.665 332.705,225.800 332.389 C 226.460 332.205,227.810 331.836,228.800 331.570 C 267.739 321.101,292.226 283.064,285.559 243.400 C 284.871 239.306,282.880 232.037,281.614 229.000 C 281.431 228.560,281.051 227.570,280.770 226.800 C 279.764 224.040,275.526 216.227,273.161 212.775 C 268.857 206.490,266.353 204.800,261.347 204.800 C 255.740 204.800,255.963 204.613,238.401 224.005 C 232.775 230.218,231.864 231.033,229.052 232.375 C 222.101 235.693,213.489 232.543,209.983 225.400 L 209.001 223.400 208.801 205.000 L 208.600 186.600 207.491 184.714 C 205.079 180.610,200.129 178.693,195.000 179.877 " stroke="none" fill="#f47c7c" fill-rule="evenodd"></path><path id="path1" d="M189.027 1.400 C 188.257 2.170,187.484 2.800,187.309 2.800 C 187.134 2.800,185.255 4.465,183.134 6.500 C 177.809 11.609,175.571 13.600,175.155 13.600 C 174.960 13.600,174.800 13.870,174.800 14.200 C 174.800 14.530,174.655 14.800,174.478 14.800 C 174.301 14.800,172.771 16.167,171.078 17.838 C 169.385 19.509,168.000 20.780,168.000 20.662 C 168.000 20.233,164.086 23.969,155.927 32.187 C 151.347 36.800,147.600 40.703,147.600 40.861 C 147.600 41.019,146.582 42.150,145.338 43.374 C 144.095 44.598,143.193 45.600,143.335 45.600 C 143.677 45.600,142.650 46.834,140.100 49.487 C 138.945 50.688,138.000 51.790,138.000 51.935 C 137.999 52.081,137.594 52.680,137.100 53.266 C 136.605 53.853,135.885 54.710,135.500 55.171 C 135.115 55.632,134.800 56.187,134.800 56.405 C 134.800 56.622,134.663 56.800,134.496 56.800 C 134.329 56.800,133.968 57.160,133.693 57.600 C 133.256 58.300,133.293 58.400,133.993 58.400 C 134.957 58.400,137.128 56.224,137.453 54.933 C 137.581 54.423,137.837 54.099,138.022 54.214 C 138.208 54.328,138.763 53.877,139.255 53.211 C 139.748 52.545,140.387 52.000,140.675 52.000 C 140.964 52.000,141.200 51.601,141.200 51.113 C 141.200 50.625,141.613 49.860,142.119 49.413 C 142.624 48.966,143.477 47.970,144.015 47.200 C 144.552 46.430,146.125 44.630,147.511 43.200 C 151.087 39.508,151.521 39.009,150.800 39.415 C 150.280 39.708,150.274 39.662,150.757 39.067 C 151.063 38.690,151.389 38.456,151.481 38.548 C 151.689 38.756,153.600 36.875,153.600 36.463 C 153.600 36.298,154.148 35.721,154.818 35.181 C 155.488 34.642,156.253 33.961,156.518 33.669 C 158.771 31.186,165.262 24.800,165.533 24.800 C 165.721 24.800,167.740 23.000,170.020 20.800 C 172.300 18.600,174.398 16.800,174.683 16.800 C 174.967 16.800,175.200 16.530,175.200 16.200 C 175.200 15.870,175.362 15.600,175.559 15.600 C 175.757 15.600,177.531 14.025,179.502 12.100 C 181.473 10.175,183.725 8.062,184.508 7.405 C 185.290 6.748,185.828 6.046,185.703 5.844 C 185.579 5.642,185.662 5.591,185.888 5.731 C 186.114 5.871,187.442 4.880,188.840 3.530 C 191.415 1.042,196.000 -0.276,196.000 1.473 C 196.000 1.747,196.337 2.152,196.749 2.373 C 197.445 2.745,197.503 3.440,197.571 12.260 C 197.611 17.478,197.725 21.879,197.824 22.040 C 197.924 22.200,197.779 22.423,197.502 22.535 C 197.113 22.693,197.124 22.826,197.555 23.127 C 197.892 23.362,198.031 23.925,197.910 24.557 C 197.801 25.131,197.861 25.600,198.044 25.600 C 198.227 25.600,198.428 28.075,198.489 31.100 C 198.550 34.125,198.600 28.860,198.600 19.400 L 198.600 2.200 197.400 1.106 C 195.426 -0.692,190.963 -0.536,189.027 1.400 M269.300 0.269 C 268.365 0.366,267.600 0.616,267.600 0.823 C 267.600 1.030,267.328 1.200,266.995 1.200 C 266.145 1.200,264.798 2.017,263.611 3.251 C 259.241 7.795,259.138 8.303,259.310 24.533 C 259.387 31.830,259.538 38.070,259.645 38.400 C 260.523 41.100,264.011 45.600,265.226 45.600 C 265.472 45.600,266.131 45.960,266.691 46.400 C 267.315 46.891,268.314 47.200,269.278 47.200 C 270.141 47.200,270.757 47.345,270.647 47.523 C 270.538 47.701,271.142 47.887,271.991 47.937 C 272.840 47.988,273.650 47.842,273.791 47.614 C 273.932 47.386,274.667 47.200,275.424 47.200 C 276.181 47.200,276.800 47.020,276.800 46.800 C 276.800 46.580,277.160 46.400,277.600 46.400 C 278.040 46.400,278.400 46.220,278.400 46.000 C 278.400 45.780,278.675 45.600,279.011 45.600 C 279.943 45.600,282.878 42.439,284.000 40.227 L 285.000 38.255 285.000 23.461 C 285.000 11.981,284.888 8.629,284.500 8.500 C 284.225 8.408,284.000 7.988,284.000 7.567 C 284.000 7.145,283.820 6.800,283.600 6.800 C 283.380 6.800,283.200 6.525,283.200 6.189 C 283.200 5.396,279.804 2.000,279.011 2.000 C 278.675 2.000,278.400 1.820,278.400 1.600 C 278.400 1.380,278.055 1.200,277.633 1.200 C 277.212 1.200,276.807 1.025,276.733 0.811 C 276.579 0.360,271.788 0.010,269.300 0.269 M198.600 38.572 C 198.600 39.284,198.789 39.867,199.021 39.867 C 199.256 39.867,199.368 39.364,199.275 38.728 C 199.040 37.125,198.600 37.023,198.600 38.572 M198.565 43.348 C 198.425 43.712,198.389 44.543,198.485 45.195 C 198.580 45.847,198.534 46.430,198.383 46.490 C 197.816 46.716,198.465 51.067,199.065 51.067 C 199.544 51.067,199.601 50.391,199.404 47.050 C 199.159 42.905,199.001 42.210,198.565 43.348 M198.656 51.478 C 198.515 51.618,198.400 52.153,198.400 52.667 C 198.400 53.180,198.199 53.600,197.954 53.600 C 197.709 53.600,196.854 54.351,196.054 55.270 C 195.254 56.188,193.610 57.962,192.400 59.212 C 191.190 60.461,189.840 61.934,189.400 62.485 C 188.457 63.664,185.615 66.958,183.500 69.323 C 182.675 70.245,182.000 71.122,182.000 71.271 C 182.000 71.421,181.766 71.781,181.480 72.071 C 181.194 72.362,179.840 74.113,178.470 75.962 C 176.250 78.958,175.661 79.971,174.380 83.000 C 174.042 83.799,173.582 87.086,173.596 88.600 C 173.616 90.791,174.116 94.000,174.437 94.000 C 174.637 94.000,174.800 94.709,174.800 95.576 C 174.800 96.443,174.980 97.264,175.200 97.400 C 175.420 97.536,175.600 98.537,175.600 99.624 C 175.600 100.711,175.780 101.600,176.000 101.600 C 176.225 101.600,176.400 102.725,176.400 104.176 C 176.400 105.593,176.580 106.864,176.800 107.000 C 177.048 107.153,177.200 110.796,177.200 116.600 C 177.200 122.404,177.048 126.047,176.800 126.200 C 176.580 126.336,176.400 127.596,176.400 129.000 C 176.400 130.404,176.220 131.664,176.000 131.800 C 175.780 131.936,175.600 132.847,175.600 133.824 C 175.600 134.801,175.420 135.600,175.200 135.600 C 174.980 135.600,174.800 136.309,174.800 137.176 C 174.800 138.043,174.620 138.864,174.400 139.000 C 174.180 139.136,174.000 139.867,174.000 140.624 C 174.000 141.381,173.820 142.000,173.600 142.000 C 173.380 142.000,173.200 142.540,173.200 143.200 C 173.200 143.860,173.020 144.400,172.800 144.400 C 172.580 144.400,172.400 144.839,172.400 145.376 C 172.400 145.913,172.220 146.464,172.000 146.600 C 171.780 146.736,171.600 147.197,171.600 147.624 C 171.600 148.051,171.420 148.400,171.200 148.400 C 170.980 148.400,170.800 148.743,170.800 149.162 C 170.800 149.581,170.454 150.616,170.032 151.462 C 168.430 154.671,165.861 159.836,165.439 160.697 C 165.198 161.190,164.865 161.595,164.700 161.597 C 164.535 161.599,164.400 161.784,164.400 162.009 C 164.400 162.490,162.821 164.982,160.708 167.836 C 159.879 168.956,159.200 170.009,159.200 170.176 C 159.200 170.343,158.698 170.956,158.085 171.540 C 157.471 172.123,156.532 173.230,155.998 174.000 C 154.993 175.450,147.905 182.433,146.307 183.547 C 145.808 183.895,144.809 184.770,144.087 185.490 C 143.364 186.211,142.608 186.800,142.405 186.800 C 142.202 186.800,141.623 187.205,141.118 187.700 C 140.613 188.195,139.705 188.855,139.100 189.168 C 138.495 189.480,138.000 189.885,138.000 190.068 C 138.000 190.250,137.764 190.400,137.475 190.400 C 137.187 190.400,136.602 190.715,136.175 191.100 C 135.749 191.485,134.905 192.055,134.300 192.368 C 133.695 192.680,133.200 193.085,133.200 193.268 C 133.200 193.450,132.965 193.600,132.678 193.600 C 131.506 193.600,127.200 199.320,127.200 200.878 C 127.200 201.275,127.020 201.600,126.800 201.600 C 126.580 201.600,126.400 202.219,126.400 202.976 C 126.400 203.733,126.220 204.464,126.000 204.600 C 125.780 204.736,125.600 206.356,125.600 208.200 C 125.600 210.044,125.420 211.664,125.200 211.800 C 124.970 211.942,124.800 214.063,124.800 216.800 C 124.800 219.537,124.630 221.658,124.400 221.800 C 124.145 221.958,124.000 227.596,124.000 237.400 C 124.000 247.204,124.145 252.842,124.400 253.000 C 124.620 253.136,124.800 254.857,124.800 256.824 C 124.800 258.941,124.963 260.400,125.200 260.400 C 125.420 260.400,125.600 261.379,125.600 262.576 C 125.600 263.773,125.780 264.864,126.000 265.000 C 126.220 265.136,126.400 266.137,126.400 267.224 C 126.400 268.311,126.580 269.200,126.800 269.200 C 127.020 269.200,127.199 269.875,127.197 270.700 C 127.194 272.687,130.338 283.898,132.021 287.900 C 132.492 289.020,133.094 290.521,133.543 291.700 C 133.732 292.195,134.272 293.382,134.743 294.338 C 135.214 295.294,135.600 296.329,135.600 296.638 C 135.600 296.947,135.780 297.200,136.000 297.200 C 136.220 297.200,136.400 297.560,136.400 298.000 C 136.400 298.440,136.580 298.800,136.800 298.800 C 137.020 298.800,137.200 299.160,137.200 299.600 C 137.200 300.040,137.380 300.400,137.600 300.400 C 137.820 300.400,138.000 300.745,138.000 301.167 C 138.000 301.588,138.135 301.993,138.300 302.067 C 138.465 302.140,139.048 303.100,139.595 304.200 C 140.142 305.300,140.682 306.290,140.795 306.400 C 141.187 306.782,142.451 309.004,142.671 309.700 C 142.793 310.085,143.052 310.400,143.247 310.400 C 143.441 310.400,143.600 310.582,143.600 310.804 C 143.600 311.163,147.844 317.900,148.385 318.400 C 148.505 318.510,149.411 319.680,150.401 321.000 C 151.390 322.320,152.695 323.877,153.300 324.460 C 153.905 325.044,154.400 325.681,154.400 325.876 C 154.400 326.071,155.857 327.753,157.639 329.615 L 160.877 333.000 151.739 333.113 C 146.712 333.175,142.150 333.100,141.600 332.947 C 141.050 332.794,140.452 332.703,140.270 332.744 C 140.089 332.786,140.040 332.659,140.161 332.463 C 140.454 331.989,138.956 330.656,138.469 330.957 C 138.259 331.087,137.794 330.745,137.435 330.197 C 137.075 329.648,136.471 329.197,136.091 329.193 C 135.711 329.189,134.976 328.739,134.458 328.193 C 133.940 327.647,133.309 327.200,133.057 327.200 C 132.804 327.200,132.088 326.660,131.465 326.000 C 130.842 325.340,130.153 324.800,129.935 324.800 C 129.716 324.800,128.824 324.080,127.953 323.200 C 127.082 322.320,126.198 321.600,125.989 321.600 C 125.490 321.600,111.200 307.259,111.200 306.758 C 111.200 306.547,110.585 305.758,109.833 305.007 C 109.082 304.255,108.352 303.280,108.213 302.840 C 108.073 302.401,107.617 301.933,107.200 301.800 C 106.783 301.667,106.317 301.163,106.166 300.680 C 106.016 300.196,105.376 299.209,104.746 298.486 C 104.116 297.763,103.600 296.952,103.600 296.682 C 103.600 296.413,103.240 295.968,102.800 295.693 C 102.360 295.418,102.000 294.925,102.000 294.597 C 102.000 294.268,101.640 293.640,101.200 293.200 C 100.760 292.760,100.400 292.130,100.400 291.800 C 100.400 291.470,100.119 291.200,99.776 291.200 C 99.433 291.200,99.260 291.027,99.390 290.816 C 99.701 290.312,98.746 288.800,98.116 288.800 C 97.846 288.800,97.722 288.548,97.840 288.240 C 97.958 287.933,97.862 287.562,97.627 287.417 C 97.392 287.272,97.200 286.803,97.200 286.376 C 97.200 285.949,97.064 285.600,96.898 285.600 C 96.731 285.600,96.341 285.015,96.030 284.300 C 95.719 283.585,95.360 282.910,95.232 282.800 C 94.780 282.410,93.200 279.116,93.200 278.562 C 93.200 278.253,93.020 278.000,92.800 278.000 C 92.580 278.000,92.400 277.640,92.400 277.200 C 92.400 276.760,92.220 276.400,92.000 276.400 C 91.780 276.400,91.600 276.040,91.600 275.600 C 91.600 275.160,91.398 274.800,91.150 274.800 C 90.860 274.800,90.788 274.359,90.948 273.558 C 91.133 272.635,91.064 272.367,90.680 272.514 C 90.367 272.634,90.138 272.377,90.100 271.862 C 90.064 271.394,89.846 270.949,89.615 270.872 C 89.384 270.795,89.302 270.559,89.433 270.347 C 89.563 270.136,89.255 269.116,88.748 268.081 C 88.241 267.047,87.820 265.840,87.813 265.400 C 87.806 264.960,87.600 264.637,87.355 264.682 C 87.085 264.731,86.964 264.296,87.047 263.582 C 87.147 262.719,87.016 262.400,86.560 262.400 C 86.075 262.400,85.995 262.133,86.200 261.200 C 86.396 260.309,86.303 259.938,85.840 259.760 C 85.376 259.582,85.273 259.165,85.439 258.124 C 85.648 256.810,85.605 256.744,84.730 257.008 C 83.971 257.238,83.892 257.194,84.300 256.765 C 84.965 256.067,84.937 254.212,84.253 253.644 C 83.933 253.378,83.767 252.670,83.852 251.935 C 83.933 251.245,83.783 250.421,83.520 250.103 C 83.257 249.786,83.084 248.895,83.136 248.123 C 83.228 246.759,82.598 245.430,82.027 245.783 C 81.466 246.130,81.527 250.000,82.093 250.000 C 82.476 250.000,82.604 250.562,82.548 251.998 C 82.505 253.097,82.634 254.098,82.835 254.222 C 83.036 254.346,83.200 254.966,83.200 255.600 C 83.200 256.234,83.380 256.864,83.600 257.000 C 83.820 257.136,84.000 257.741,84.000 258.344 C 84.000 258.947,84.185 259.625,84.411 259.851 C 84.637 260.077,84.862 260.815,84.911 261.492 C 84.960 262.168,85.135 262.639,85.300 262.537 C 85.465 262.436,85.600 262.813,85.600 263.376 C 85.600 263.939,85.780 264.400,86.000 264.400 C 86.220 264.400,86.400 265.030,86.400 265.800 C 86.400 266.570,86.580 267.200,86.800 267.200 C 87.020 267.200,87.200 267.549,87.200 267.976 C 87.200 268.403,87.380 268.864,87.600 269.000 C 87.820 269.136,88.000 269.777,88.000 270.424 C 88.000 271.071,88.180 271.600,88.400 271.600 C 88.620 271.600,88.800 271.949,88.800 272.376 C 88.800 272.803,88.980 273.264,89.200 273.400 C 89.420 273.536,89.600 273.997,89.600 274.424 C 89.600 274.851,89.780 275.200,90.000 275.200 C 90.220 275.200,90.400 275.560,90.400 276.000 C 90.400 276.440,90.580 276.800,90.800 276.800 C 91.020 276.800,91.200 277.034,91.200 277.320 C 91.200 278.083,92.147 279.993,92.527 279.997 C 92.707 279.999,92.740 280.360,92.600 280.800 C 92.410 281.399,92.529 281.602,93.073 281.606 C 93.631 281.611,93.675 281.692,93.259 281.955 C 92.833 282.225,92.906 282.429,93.603 282.917 C 94.089 283.257,94.364 283.735,94.213 283.978 C 94.063 284.222,94.589 285.324,95.382 286.429 C 96.176 287.533,96.745 288.565,96.648 288.723 C 96.551 288.880,96.725 289.356,97.035 289.781 C 97.346 290.205,97.601 290.384,97.602 290.176 C 97.605 289.754,98.823 291.976,98.931 292.600 C 98.969 292.820,99.315 293.291,99.700 293.647 C 100.085 294.003,100.400 294.548,100.400 294.859 C 100.400 295.169,100.760 295.683,101.200 296.000 C 101.640 296.317,102.000 296.854,102.000 297.192 C 102.000 297.531,102.360 298.032,102.800 298.307 C 103.240 298.582,103.600 299.075,103.600 299.403 C 103.600 299.732,103.780 300.000,104.000 300.000 C 104.220 300.000,104.400 300.227,104.400 300.505 C 104.400 300.783,104.847 301.346,105.392 301.755 C 105.938 302.165,106.288 302.658,106.169 302.850 C 106.050 303.043,106.143 303.200,106.376 303.200 C 106.609 303.200,106.800 303.500,106.800 303.867 C 106.800 304.233,106.909 304.424,107.042 304.291 C 107.175 304.158,107.877 304.826,108.601 305.775 C 110.654 308.463,111.585 309.510,114.700 312.634 C 116.295 314.233,117.600 315.746,117.600 315.995 C 117.600 316.244,117.735 316.370,117.900 316.276 C 118.321 316.036,120.008 317.858,119.674 318.193 C 119.523 318.343,119.580 318.410,119.800 318.341 C 120.020 318.272,120.991 318.932,121.958 319.808 C 125.702 323.199,126.419 323.826,127.440 324.600 C 128.020 325.040,128.834 325.715,129.248 326.100 C 129.661 326.485,130.101 326.800,130.223 326.800 C 130.485 326.800,133.522 329.125,134.404 330.000 C 134.736 330.330,135.457 330.858,136.004 331.172 C 136.552 331.487,137.884 332.297,138.964 332.972 L 140.929 334.200 172.364 334.236 C 189.654 334.256,203.080 334.212,202.200 334.137 C 187.212 332.870,172.400 327.278,162.038 318.975 C 155.260 313.544,150.442 308.723,146.670 303.600 C 145.617 302.170,144.495 300.683,144.178 300.295 C 143.860 299.908,143.600 299.486,143.600 299.357 C 143.600 299.229,143.261 298.646,142.847 298.062 C 138.949 292.567,133.892 280.246,132.397 272.600 C 132.139 271.280,131.724 269.300,131.476 268.200 C 130.845 265.413,130.886 247.262,131.530 244.400 C 131.802 243.190,132.214 241.210,132.445 240.000 C 134.356 230.022,141.538 214.870,147.765 207.679 C 151.122 203.804,152.548 202.280,155.207 199.731 C 156.853 198.153,158.740 196.449,159.400 195.945 C 160.060 195.440,160.690 194.912,160.800 194.771 C 161.190 194.270,169.439 188.922,172.000 187.510 C 180.928 182.586,196.371 178.177,200.790 179.289 C 204.200 180.148,206.023 181.553,207.938 184.800 L 209.000 186.600 209.225 205.000 L 209.450 223.400 210.540 225.530 C 213.439 231.192,219.471 234.203,225.606 233.050 C 229.749 232.272,231.527 230.925,238.400 223.360 C 255.680 204.341,255.762 204.272,261.200 204.261 C 265.949 204.251,268.696 205.822,271.934 210.400 C 272.945 211.830,273.878 213.090,274.006 213.200 C 274.213 213.378,274.807 214.357,277.279 218.600 C 290.192 240.756,289.807 275.203,276.416 295.800 C 275.844 296.680,275.133 297.882,274.836 298.471 C 271.761 304.571,255.234 320.973,250.406 322.716 C 250.073 322.836,249.080 323.410,248.200 323.992 C 240.327 329.195,227.157 333.295,215.600 334.140 C 214.610 334.213,228.146 334.256,245.680 334.236 C 270.612 334.208,277.669 334.091,278.060 333.700 C 278.335 333.425,278.844 333.200,279.192 333.200 C 279.539 333.200,280.083 332.840,280.400 332.400 C 280.717 331.960,281.257 331.600,281.600 331.600 C 281.943 331.600,282.483 331.240,282.800 330.800 C 283.117 330.360,283.580 330.000,283.829 330.000 C 284.078 330.000,284.846 329.460,285.537 328.800 C 286.228 328.140,286.897 327.600,287.025 327.600 C 287.153 327.600,287.486 327.375,287.765 327.100 C 288.045 326.825,288.882 326.150,289.625 325.600 C 290.369 325.050,291.702 323.964,292.588 323.186 C 293.475 322.408,294.838 321.302,295.619 320.727 C 298.167 318.852,306.511 310.244,306.140 309.873 C 306.038 309.771,306.473 309.318,307.107 308.866 C 307.741 308.415,308.786 307.270,309.430 306.323 C 310.073 305.375,311.094 304.123,311.700 303.540 C 312.305 302.956,312.800 302.281,312.800 302.040 C 312.800 301.798,312.980 301.600,313.200 301.600 C 313.420 301.600,313.600 301.330,313.600 301.000 C 313.600 300.670,313.750 300.400,313.932 300.400 C 314.115 300.400,314.519 299.905,314.830 299.300 C 315.140 298.695,315.667 297.930,316.000 297.600 C 316.333 297.270,316.860 296.505,317.170 295.900 C 317.481 295.295,317.885 294.800,318.068 294.800 C 318.250 294.800,318.400 294.564,318.400 294.275 C 318.400 293.987,318.725 293.402,319.122 292.975 C 319.520 292.549,319.902 292.020,319.972 291.800 C 320.042 291.580,320.617 290.648,321.250 289.728 C 321.882 288.808,322.400 287.773,322.400 287.428 C 322.400 287.083,322.560 286.800,322.757 286.800 C 323.116 286.800,323.796 284.884,323.656 284.270 C 323.614 284.089,323.738 284.038,323.932 284.158 C 324.312 284.393,325.200 282.728,325.200 281.781 C 325.200 281.462,325.380 281.200,325.600 281.200 C 325.820 281.200,326.000 280.739,326.000 280.176 C 326.000 279.596,326.173 279.260,326.400 279.400 C 326.627 279.540,326.800 279.204,326.800 278.624 C 326.800 278.061,326.980 277.600,327.200 277.600 C 327.420 277.600,327.600 277.240,327.600 276.800 C 327.600 276.360,327.780 276.000,328.000 276.000 C 328.220 276.000,328.400 275.640,328.400 275.200 C 328.400 274.760,328.580 274.400,328.800 274.400 C 329.020 274.400,329.200 274.128,329.200 273.795 C 329.200 273.462,329.380 272.832,329.600 272.395 C 329.820 271.958,330.180 271.242,330.400 270.805 C 330.620 270.368,330.800 269.648,330.800 269.205 C 330.800 268.762,330.980 268.400,331.200 268.400 C 331.420 268.400,331.600 267.860,331.600 267.200 C 331.600 266.540,331.780 266.000,332.000 266.000 C 332.220 266.000,332.400 265.460,332.400 264.800 C 332.400 264.140,332.580 263.600,332.800 263.600 C 333.020 263.600,333.200 263.148,333.200 262.595 C 333.200 262.042,333.362 261.277,333.561 260.895 C 333.760 260.513,334.140 259.390,334.407 258.400 C 334.673 257.410,335.040 256.240,335.221 255.800 C 335.402 255.360,335.642 254.370,335.753 253.600 C 335.864 252.830,336.154 251.300,336.396 250.200 C 337.275 246.209,337.628 244.154,337.837 241.800 C 337.954 240.480,338.213 239.040,338.412 238.600 C 339.018 237.260,339.395 224.341,339.013 218.000 C 338.602 211.182,338.420 209.042,338.007 206.200 C 337.784 204.660,337.489 202.365,337.352 201.100 C 337.216 199.835,336.964 198.800,336.792 198.800 C 336.621 198.800,336.372 197.990,336.240 197.000 C 336.108 196.010,335.892 194.390,335.760 193.400 C 335.628 192.410,335.358 191.600,335.160 191.600 C 334.962 191.600,334.800 191.071,334.800 190.424 C 334.800 189.777,334.620 189.136,334.400 189.000 C 334.180 188.864,334.000 188.144,334.000 187.400 C 334.000 186.656,333.820 185.936,333.600 185.800 C 333.380 185.664,333.200 185.023,333.200 184.376 C 333.200 183.729,333.064 183.200,332.897 183.200 C 332.566 183.200,331.600 180.376,331.600 179.406 C 331.600 179.073,331.420 178.800,331.200 178.800 C 330.980 178.800,330.800 178.451,330.800 178.024 C 330.800 177.597,330.620 177.136,330.400 177.000 C 330.180 176.864,330.000 176.313,330.000 175.776 C 330.000 175.239,329.820 174.800,329.600 174.800 C 329.380 174.800,329.200 174.440,329.200 174.000 C 329.200 173.560,329.020 173.200,328.800 173.200 C 328.580 173.200,328.400 172.761,328.400 172.224 C 328.400 171.687,328.220 171.136,328.000 171.000 C 327.780 170.864,327.600 170.403,327.600 169.976 C 327.600 169.549,327.420 169.200,327.200 169.200 C 326.980 169.200,326.800 168.840,326.800 168.400 C 326.800 167.960,326.620 167.600,326.400 167.600 C 326.180 167.600,326.000 167.240,326.000 166.800 C 326.000 166.360,325.820 166.000,325.600 166.000 C 325.380 166.000,325.200 165.640,325.200 165.200 C 325.200 164.760,324.990 164.400,324.733 164.400 C 324.477 164.400,324.372 164.295,324.501 164.166 C 324.740 163.927,322.875 160.259,321.539 158.338 C 321.133 157.754,320.800 157.072,320.800 156.822 C 320.800 156.571,320.440 155.980,320.000 155.508 C 319.560 155.036,318.976 154.144,318.703 153.525 C 318.429 152.906,318.069 152.400,317.902 152.400 C 317.736 152.400,317.600 152.170,317.600 151.888 C 317.600 151.607,317.240 151.117,316.800 150.800 C 316.360 150.483,316.000 149.993,316.000 149.712 C 316.000 149.430,315.820 149.200,315.600 149.200 C 315.380 149.200,315.200 148.930,315.200 148.600 C 315.200 148.270,315.020 148.000,314.800 148.000 C 314.580 148.000,314.400 147.730,314.400 147.400 C 314.400 147.070,314.220 146.800,314.000 146.800 C 313.780 146.800,313.600 146.519,313.600 146.176 C 313.600 145.833,313.420 145.664,313.200 145.800 C 312.980 145.936,312.800 145.804,312.800 145.508 C 312.800 145.211,312.080 144.172,311.200 143.200 C 310.320 142.228,309.600 141.200,309.600 140.916 C 309.600 140.632,309.432 140.400,309.227 140.400 C 309.022 140.400,308.730 139.995,308.580 139.500 C 308.429 139.005,308.028 138.284,307.688 137.898 C 307.349 137.511,307.174 137.092,307.300 136.967 C 307.425 136.841,307.194 135.984,306.786 135.060 C 306.377 134.137,306.004 132.576,305.956 131.591 C 305.908 130.606,305.728 129.613,305.556 129.384 C 305.383 129.156,305.160 124.746,305.060 119.584 C 304.876 110.101,304.613 106.913,303.959 106.220 C 303.762 106.011,303.595 105.471,303.590 105.020 C 303.576 103.923,301.947 99.193,301.162 97.974 C 300.818 97.438,300.281 96.415,299.970 95.700 C 299.659 94.985,299.269 94.400,299.102 94.400 C 298.936 94.400,298.800 94.040,298.800 93.600 C 298.800 93.160,298.650 92.800,298.468 92.800 C 298.285 92.800,297.880 92.305,297.568 91.700 C 297.255 91.095,296.505 90.123,295.900 89.540 C 295.295 88.956,294.800 88.306,294.800 88.095 C 294.800 87.536,288.083 81.263,286.741 80.569 C 286.113 80.245,285.600 79.804,285.600 79.590 C 285.600 79.375,285.350 79.200,285.044 79.200 C 284.739 79.200,283.270 78.488,281.780 77.617 C 280.289 76.746,278.064 75.741,276.835 75.384 C 275.606 75.026,274.287 74.568,273.905 74.367 C 273.523 74.165,272.578 74.000,271.805 74.000 C 271.032 74.000,270.400 73.820,270.400 73.600 C 270.400 73.377,269.325 73.200,267.976 73.200 C 266.463 73.200,265.646 73.050,265.800 72.800 C 265.956 72.548,264.999 72.400,263.210 72.400 C 259.646 72.400,258.400 73.085,258.400 75.046 C 258.400 75.791,258.220 76.400,258.000 76.400 C 257.769 76.400,257.600 77.659,257.600 79.376 C 257.600 81.013,257.420 82.464,257.200 82.600 C 256.980 82.736,256.800 84.086,256.800 85.600 C 256.800 87.114,256.620 88.464,256.400 88.600 C 256.180 88.736,256.000 89.636,256.000 90.600 C 256.000 91.564,255.820 92.464,255.600 92.600 C 255.380 92.736,255.200 93.276,255.200 93.800 C 255.200 94.324,255.020 94.864,254.800 95.000 C 254.580 95.136,254.400 95.687,254.400 96.224 C 254.400 96.761,254.264 97.200,254.098 97.200 C 253.931 97.200,253.542 97.785,253.233 98.500 C 249.945 106.109,239.101 113.600,231.375 113.600 C 230.393 113.600,229.245 113.815,228.824 114.078 C 228.276 114.420,227.796 114.438,227.130 114.142 C 226.618 113.914,225.120 113.689,223.800 113.641 C 222.480 113.593,221.229 113.384,221.020 113.177 C 220.811 112.970,220.314 112.800,219.915 112.800 C 219.516 112.800,218.877 112.635,218.495 112.434 C 218.113 112.232,217.080 111.774,216.200 111.415 C 215.320 111.056,214.330 110.590,214.000 110.380 C 213.670 110.170,213.008 109.828,212.530 109.620 C 212.051 109.412,211.087 108.738,210.387 108.121 C 207.559 105.631,206.693 104.800,206.922 104.800 C 207.055 104.800,206.767 104.374,206.282 103.853 C 204.769 102.229,203.611 100.620,203.605 100.133 C 203.602 99.877,203.465 99.607,203.300 99.533 C 202.642 99.241,200.533 94.194,200.319 92.400 C 200.254 91.850,200.071 91.303,199.913 91.185 C 199.756 91.066,199.607 82.113,199.582 71.289 C 199.542 53.286,199.421 50.712,198.656 51.478 M337.800 53.200 C 337.664 53.420,337.119 53.600,336.589 53.600 C 335.620 53.600,333.634 54.570,331.400 56.134 C 329.990 57.121,329.042 58.000,329.387 58.000 C 329.618 58.000,329.262 58.492,328.082 59.803 C 325.210 62.994,324.387 94.996,327.032 100.600 C 328.008 102.666,331.774 106.800,332.681 106.800 C 332.966 106.800,333.200 106.944,333.200 107.121 C 333.200 107.298,334.055 107.748,335.100 108.123 C 338.389 109.302,348.000 108.847,348.000 107.513 C 348.000 107.315,348.180 107.264,348.400 107.400 C 348.620 107.536,348.800 107.457,348.800 107.224 C 348.800 106.991,349.025 106.796,349.300 106.791 C 349.894 106.780,352.800 104.234,352.800 103.724 C 352.800 103.529,353.333 102.747,353.984 101.985 C 354.635 101.223,355.175 100.195,355.184 99.700 C 355.193 99.205,355.373 98.800,355.584 98.800 C 355.823 98.800,355.977 92.245,355.992 81.436 C 356.014 64.646,355.895 62.644,354.808 61.600 C 354.694 61.490,354.279 60.770,353.887 60.000 C 352.946 58.151,351.036 56.000,350.336 56.000 C 350.028 56.000,349.517 55.640,349.200 55.200 C 348.883 54.760,348.314 54.400,347.935 54.400 C 347.557 54.400,347.136 54.220,347.000 54.000 C 346.864 53.780,346.133 53.600,345.376 53.600 C 344.619 53.600,344.000 53.420,344.000 53.200 C 344.000 52.969,342.741 52.800,341.024 52.800 C 339.387 52.800,337.936 52.980,337.800 53.200 M128.200 82.560 C 126.927 83.121,124.800 85.066,124.800 85.668 C 124.800 85.866,125.349 85.403,126.020 84.638 C 127.459 82.999,129.518 82.218,131.543 82.543 C 132.549 82.705,132.814 82.659,132.400 82.395 C 131.559 81.859,129.619 81.935,128.200 82.560 M133.235 82.900 C 133.328 82.955,134.033 83.540,134.802 84.200 L 136.200 85.400 135.025 84.100 C 134.379 83.385,133.674 82.800,133.458 82.800 C 133.243 82.800,133.143 82.845,133.235 82.900 M124.243 87.033 C 123.893 87.944,123.955 136.509,124.306 137.062 C 124.468 137.316,124.600 126.021,124.600 111.962 C 124.600 97.903,124.574 86.400,124.543 86.400 C 124.511 86.400,124.376 86.685,124.243 87.033 M48.076 97.940 C 47.568 98.083,49.244 98.200,51.800 98.200 C 54.356 98.200,56.032 98.083,55.524 97.940 C 55.016 97.797,53.340 97.680,51.800 97.680 C 50.260 97.680,48.584 97.797,48.076 97.940 M44.800 98.800 C 44.267 99.145,44.267 99.188,44.800 99.188 C 45.130 99.188,45.670 99.013,46.000 98.800 C 46.533 98.455,46.533 98.412,46.000 98.412 C 45.670 98.412,45.130 98.587,44.800 98.800 M103.070 99.592 C 102.153 100.622,101.869 100.730,100.978 100.392 C 99.725 99.915,99.179 99.900,100.000 100.364 C 101.706 101.329,102.279 101.235,103.366 99.810 C 104.678 98.089,104.516 97.969,103.070 99.592 M112.250 99.203 C 114.000 101.256,114.000 101.257,114.000 119.594 C 114.000 139.008,114.054 138.554,111.508 140.560 C 110.789 141.127,110.380 141.587,110.600 141.583 C 111.269 141.569,112.243 140.667,113.349 139.038 L 114.400 137.488 114.400 119.724 C 114.400 100.675,114.408 100.751,112.341 99.002 L 111.400 98.206 112.250 99.203 M89.400 99.614 C 88.878 99.848,89.363 99.888,90.800 99.732 C 92.010 99.600,93.075 99.426,93.167 99.346 C 93.521 99.036,90.157 99.275,89.400 99.614 M94.433 99.346 C 94.525 99.426,95.590 99.600,96.800 99.732 C 98.237 99.888,98.722 99.848,98.200 99.614 C 97.443 99.275,94.079 99.036,94.433 99.346 M40.400 100.856 C 38.514 102.005,36.406 103.863,34.789 105.800 C 34.016 106.726,34.451 106.405,35.821 105.038 C 37.124 103.739,39.047 102.149,40.095 101.504 C 41.143 100.859,42.000 100.257,42.000 100.166 C 42.000 99.902,41.880 99.954,40.400 100.856 M84.554 101.379 C 81.025 103.145,75.600 108.530,75.600 110.267 C 75.600 110.444,76.206 109.692,76.947 108.595 C 78.979 105.584,82.109 102.887,85.319 101.381 C 86.903 100.637,87.999 100.022,87.754 100.014 C 87.508 100.006,86.068 100.620,84.554 101.379 M64.647 102.288 C 65.855 103.468,66.412 104.417,66.733 105.848 L 67.172 107.800 66.967 106.013 C 66.749 104.107,65.369 101.928,63.884 101.145 C 63.392 100.885,63.731 101.393,64.647 102.288 M32.614 108.635 C 32.241 109.204,32.027 109.761,32.139 109.872 C 32.250 109.983,32.629 109.518,32.981 108.837 C 33.759 107.333,33.544 107.215,32.614 108.635 M66.400 108.519 C 66.400 109.545,64.049 111.960,62.659 112.363 C 61.967 112.564,61.727 112.744,62.126 112.764 C 64.037 112.859,67.654 109.121,66.637 108.103 C 66.506 107.973,66.400 108.160,66.400 108.519 M51.300 110.276 C 51.685 110.376,52.315 110.376,52.700 110.276 C 53.085 110.175,52.770 110.093,52.000 110.093 C 51.230 110.093,50.915 110.175,51.300 110.276 M47.608 111.104 C 45.811 111.988,43.385 114.495,42.856 116.012 C 42.288 117.641,42.617 117.506,43.440 115.772 C 44.340 113.875,45.965 112.299,48.074 111.276 C 49.023 110.816,49.620 110.435,49.400 110.429 C 49.180 110.423,48.373 110.727,47.608 111.104 M57.200 111.944 C 57.750 112.405,58.560 112.765,59.000 112.745 C 59.780 112.708,59.781 112.702,59.017 112.508 C 58.586 112.399,57.776 112.038,57.217 111.707 L 56.200 111.105 57.200 111.944 M90.085 112.471 C 89.142 112.929,88.435 113.369,88.515 113.449 C 88.596 113.529,89.404 113.236,90.311 112.797 C 91.225 112.356,92.782 112.000,93.800 112.000 C 94.818 112.000,96.375 112.356,97.289 112.797 C 98.196 113.236,99.005 113.529,99.085 113.449 C 99.165 113.368,98.416 112.919,97.420 112.451 C 95.118 111.369,92.342 111.377,90.085 112.471 M74.249 113.015 C 74.112 113.373,74.015 113.966,74.034 114.333 C 74.053 114.700,74.227 114.469,74.421 113.820 C 74.798 112.558,74.665 111.933,74.249 113.015 M86.581 116.037 C 86.229 116.718,86.012 117.345,86.099 117.432 C 86.186 117.519,86.556 116.962,86.922 116.195 C 87.744 114.470,87.459 114.338,86.581 116.037 M100.730 116.382 C 101.098 117.251,101.456 117.804,101.524 117.609 C 101.650 117.249,100.513 114.800,100.219 114.800 C 100.131 114.800,100.361 115.512,100.730 116.382 M29.852 116.100 C 29.530 117.301,29.585 122.822,29.928 123.685 C 30.078 124.062,30.200 122.307,30.200 119.785 C 30.200 114.779,30.202 114.796,29.852 116.100 M73.443 115.833 C 73.100 116.725,73.152 122.905,73.506 123.462 C 73.668 123.716,73.800 121.961,73.800 119.562 C 73.800 117.163,73.774 115.200,73.743 115.200 C 73.711 115.200,73.576 115.485,73.443 115.833 M42.114 119.800 C 42.117 120.900,42.195 121.303,42.287 120.695 C 42.379 120.086,42.377 119.186,42.282 118.695 C 42.187 118.203,42.111 118.700,42.114 119.800 M85.693 119.600 C 85.693 120.370,85.775 120.685,85.876 120.300 C 85.976 119.915,85.976 119.285,85.876 118.900 C 85.775 118.515,85.693 118.830,85.693 119.600 M101.693 119.600 C 101.693 120.370,101.775 120.685,101.876 120.300 C 101.976 119.915,101.976 119.285,101.876 118.900 C 101.775 118.515,101.693 118.830,101.693 119.600 M86.800 123.883 C 86.800 124.085,87.340 124.768,88.000 125.400 C 88.660 126.032,89.200 126.445,89.200 126.317 C 89.200 126.189,88.660 125.507,88.000 124.800 C 87.340 124.093,86.800 123.681,86.800 123.883 M99.492 124.900 C 98.047 126.489,98.315 126.750,99.800 125.200 C 100.428 124.545,100.865 123.935,100.771 123.845 C 100.677 123.756,100.101 124.230,99.492 124.900 M43.517 125.000 C 43.745 125.440,44.532 126.340,45.266 126.999 L 46.600 128.198 45.201 126.599 C 44.432 125.720,43.645 124.820,43.452 124.600 C 43.260 124.380,43.289 124.560,43.517 125.000 M74.000 125.310 C 74.000 125.883,74.187 126.468,74.416 126.610 C 74.689 126.779,74.738 126.477,74.560 125.734 C 74.192 124.201,74.000 124.056,74.000 125.310 M60.262 125.100 C 60.160 125.265,60.964 125.413,62.048 125.429 C 63.193 125.447,63.805 125.323,63.509 125.136 C 62.865 124.727,60.508 124.701,60.262 125.100 M30.428 125.876 C 30.413 126.358,30.580 126.864,30.800 127.000 C 31.273 127.292,31.273 126.901,30.800 125.800 C 30.469 125.029,30.455 125.031,30.428 125.876 M64.620 125.906 C 64.829 126.074,65.540 126.659,66.200 127.205 L 67.400 128.197 66.225 126.899 C 65.579 126.184,64.868 125.600,64.645 125.600 C 64.394 125.600,64.384 125.716,64.620 125.906 M74.809 127.633 C 74.814 127.945,75.185 128.650,75.633 129.200 L 76.448 130.200 75.773 128.800 C 74.948 127.088,74.797 126.906,74.809 127.633 M92.357 127.662 C 93.231 127.914,94.228 127.915,95.157 127.668 C 96.462 127.320,96.331 127.282,93.800 127.277 C 91.324 127.273,91.157 127.317,92.357 127.662 M46.982 128.371 C 47.299 128.884,49.897 129.704,50.503 129.483 C 50.777 129.384,50.323 129.169,49.496 129.006 C 48.668 128.843,47.893 128.550,47.772 128.355 C 47.651 128.160,47.373 128.000,47.153 128.000 C 46.933 128.000,46.856 128.167,46.982 128.371 M53.600 129.200 C 53.067 129.545,53.067 129.588,53.600 129.588 C 53.930 129.588,54.470 129.413,54.800 129.200 C 55.333 128.855,55.333 128.812,54.800 128.812 C 54.470 128.812,53.930 128.987,53.600 129.200 M67.199 134.002 C 66.919 134.677,65.680 136.150,64.445 137.275 C 63.210 138.399,62.560 139.078,63.000 138.781 C 65.387 137.175,68.451 133.517,67.883 132.950 C 67.787 132.853,67.479 133.327,67.199 134.002 M36.200 135.600 C 37.283 136.700,38.247 137.600,38.341 137.600 C 38.680 137.600,34.991 133.680,34.615 133.641 C 34.403 133.618,35.117 134.500,36.200 135.600 M79.153 134.105 C 79.797 134.925,83.363 137.600,83.814 137.600 C 83.982 137.600,83.328 137.031,82.360 136.336 C 81.392 135.641,80.510 134.966,80.400 134.836 C 79.771 134.094,78.610 133.413,79.153 134.105 M40.165 138.743 C 40.435 139.179,44.026 140.907,44.233 140.701 C 44.312 140.621,43.379 140.066,42.159 139.467 C 40.938 138.869,40.041 138.543,40.165 138.743 M103.400 140.000 C 104.259 140.880,105.113 141.600,105.298 141.600 C 105.483 141.600,104.877 140.880,103.952 140.000 C 103.027 139.120,102.173 138.400,102.054 138.400 C 101.935 138.400,102.541 139.120,103.400 140.000 M88.800 139.594 C 89.130 139.811,89.835 139.991,90.367 139.994 C 91.651 140.002,91.325 139.775,89.600 139.458 C 88.615 139.277,88.378 139.318,88.800 139.594 M97.400 139.600 C 96.293 139.882,96.277 139.909,97.200 139.947 C 97.750 139.969,98.470 139.813,98.800 139.600 C 99.481 139.160,99.129 139.160,97.400 139.600 M45.400 141.200 C 45.536 141.420,46.042 141.587,46.524 141.572 C 47.369 141.545,47.371 141.531,46.600 141.200 C 45.499 140.727,45.108 140.727,45.400 141.200 M57.000 141.200 C 56.229 141.531,56.231 141.545,57.076 141.572 C 57.558 141.587,58.064 141.420,58.200 141.200 C 58.492 140.727,58.101 140.727,57.000 141.200 M49.400 142.014 C 50.423 142.436,53.163 142.440,54.200 142.021 C 54.706 141.817,53.824 141.696,51.800 141.691 C 49.748 141.687,48.887 141.803,49.400 142.014 M107.100 142.088 C 107.747 142.400,108.253 142.400,108.900 142.088 C 109.690 141.707,109.580 141.654,108.000 141.654 C 106.420 141.654,106.310 141.707,107.100 142.088 M129.741 142.055 C 130.258 142.356,130.741 142.360,131.341 142.070 C 132.090 141.707,131.996 141.652,130.600 141.639 C 129.269 141.627,129.125 141.697,129.741 142.055 M81.064 190.278 C 80.952 190.675,80.905 191.680,80.959 192.510 C 81.015 193.361,80.835 194.205,80.547 194.444 C 79.948 194.941,79.822 201.865,80.395 202.792 C 80.616 203.150,80.591 203.570,80.328 203.887 C 80.026 204.251,80.028 204.400,80.337 204.400 C 81.310 204.400,81.665 202.638,81.541 198.416 C 81.450 195.314,81.560 193.931,81.933 193.481 C 82.549 192.738,82.401 189.928,81.734 189.709 C 81.478 189.625,81.176 189.881,81.064 190.278 M79.611 205.979 C 78.988 207.143,79.126 231.440,79.764 233.000 C 80.062 233.727,80.188 235.321,80.085 237.047 C 79.976 238.880,80.095 240.230,80.419 240.836 C 80.696 241.354,80.940 242.593,80.962 243.589 C 80.990 244.905,81.162 245.400,81.593 245.400 C 82.396 245.400,82.709 241.693,81.931 241.396 C 81.539 241.246,81.425 240.347,81.494 237.959 C 81.546 236.180,81.406 234.384,81.182 233.967 C 80.930 233.495,80.777 227.916,80.779 219.204 C 80.781 205.676,80.638 204.060,79.611 205.979 " stroke="none" fill="#fceb7b" fill-rule="evenodd"></path><path id="path2" d="M129.905 82.683 C 130.402 82.779,131.122 82.775,131.505 82.675 C 131.887 82.575,131.480 82.496,130.600 82.501 C 129.720 82.505,129.407 82.587,129.905 82.683 M133.453 83.567 C 134.143 83.988,134.998 84.747,135.353 85.255 C 135.709 85.763,136.000 85.977,136.000 85.730 C 136.000 85.159,133.330 82.800,132.686 82.801 C 132.419 82.802,132.764 83.147,133.453 83.567 M126.175 84.500 L 125.000 85.800 126.300 84.625 C 127.015 83.979,127.600 83.394,127.600 83.325 C 127.600 83.016,127.270 83.288,126.175 84.500 M124.653 87.236 C 124.514 87.931,124.441 99.322,124.491 112.550 L 124.583 136.600 124.791 111.400 C 124.906 97.540,124.979 86.149,124.953 86.086 C 124.927 86.023,124.792 86.541,124.653 87.236 M136.200 111.976 C 136.200 126.027,136.332 137.316,136.494 137.062 C 136.863 136.482,136.842 88.047,136.472 87.115 C 136.322 86.738,136.200 97.925,136.200 111.976 M107.600 97.872 C 110.013 98.120,110.700 98.368,112.069 99.486 C 113.173 100.387,113.264 100.414,112.601 99.645 C 111.403 98.255,109.837 97.593,107.920 97.664 C 106.345 97.723,106.318 97.740,107.600 97.872 M50.291 98.289 C 51.001 98.377,52.261 98.379,53.091 98.292 C 53.921 98.205,53.340 98.133,51.800 98.131 C 50.260 98.129,49.581 98.200,50.291 98.289 M46.000 98.818 C 45.562 99.115,45.724 99.152,46.600 98.956 C 48.071 98.627,48.390 98.398,47.367 98.406 C 46.945 98.409,46.330 98.595,46.000 98.818 M56.400 98.800 C 57.768 99.238,58.819 99.238,57.800 98.800 C 57.360 98.611,56.640 98.462,56.200 98.468 C 55.557 98.477,55.596 98.543,56.400 98.800 M90.900 99.876 C 91.285 99.976,91.915 99.976,92.300 99.876 C 92.685 99.775,92.370 99.693,91.600 99.693 C 90.830 99.693,90.515 99.775,90.900 99.876 M95.300 99.876 C 95.685 99.976,96.315 99.976,96.700 99.876 C 97.085 99.775,96.770 99.693,96.000 99.693 C 95.230 99.693,94.915 99.775,95.300 99.876 M102.590 100.816 C 102.448 101.045,101.943 101.127,101.466 100.997 C 100.670 100.781,100.660 100.799,101.342 101.224 C 101.932 101.592,102.217 101.555,102.728 101.044 C 103.082 100.690,103.253 100.400,103.109 100.400 C 102.965 100.400,102.731 100.587,102.590 100.816 M113.212 101.200 C 113.212 101.530,113.387 102.070,113.600 102.400 C 113.945 102.933,113.988 102.933,113.988 102.400 C 113.988 102.070,113.813 101.530,113.600 101.200 C 113.255 100.667,113.212 100.667,113.212 101.200 M81.585 103.629 L 80.200 104.858 81.700 103.781 C 83.026 102.830,83.457 102.400,83.085 102.400 C 83.022 102.400,82.347 102.953,81.585 103.629 M34.724 106.300 C 34.159 106.905,33.492 107.850,33.241 108.400 C 32.852 109.251,32.859 109.287,33.292 108.638 C 33.571 108.219,34.314 107.274,34.941 106.538 C 36.317 104.926,36.162 104.757,34.724 106.300 M66.493 106.800 C 66.493 107.570,66.575 107.885,66.676 107.500 C 66.776 107.115,66.776 106.485,66.676 106.100 C 66.575 105.715,66.493 106.030,66.493 106.800 M64.462 110.685 C 62.749 112.468,62.911 112.678,64.737 111.040 C 65.524 110.334,66.683 108.716,66.314 108.838 C 66.251 108.858,65.418 109.689,64.462 110.685 M48.400 110.406 C 47.978 110.682,48.215 110.723,49.200 110.542 C 50.925 110.225,51.251 109.998,49.967 110.006 C 49.435 110.009,48.730 110.189,48.400 110.406 M53.233 110.144 C 53.325 110.223,53.940 110.408,54.600 110.556 C 55.476 110.752,55.638 110.715,55.200 110.418 C 54.660 110.053,52.832 109.798,53.233 110.144 M43.765 113.811 C 43.173 114.587,42.759 115.292,42.844 115.377 C 42.930 115.463,43.507 114.828,44.126 113.967 C 45.527 112.017,45.231 111.889,43.765 113.811 M86.396 115.700 C 85.960 116.415,85.610 117.360,85.619 117.800 C 85.629 118.276,85.853 117.990,86.172 117.096 C 86.467 116.269,86.931 115.324,87.203 114.996 C 87.475 114.668,87.583 114.400,87.443 114.400 C 87.303 114.400,86.832 114.985,86.396 115.700 M100.655 115.400 C 101.580 116.979,101.600 117.003,101.600 116.511 C 101.600 116.279,101.229 115.664,100.776 115.144 L 99.953 114.200 100.655 115.400 M73.800 116.400 C 73.646 117.310,73.604 118.138,73.707 118.240 C 73.810 118.343,74.013 117.677,74.160 116.760 C 74.307 115.843,74.348 115.015,74.253 114.920 C 74.158 114.824,73.954 115.490,73.800 116.400 M30.137 119.800 C 30.139 121.560,30.209 122.230,30.293 121.289 C 30.378 120.349,30.377 118.909,30.291 118.089 C 30.205 117.270,30.136 118.040,30.137 119.800 M101.840 120.440 C 101.693 121.357,101.652 122.185,101.747 122.280 C 101.842 122.376,102.046 121.710,102.200 120.800 C 102.354 119.890,102.396 119.062,102.293 118.960 C 102.190 118.857,101.987 119.523,101.840 120.440 M73.680 121.800 C 73.680 122.240,73.824 123.050,74.000 123.600 C 74.254 124.392,74.320 124.433,74.320 123.800 C 74.320 123.360,74.176 122.550,74.000 122.000 C 73.746 121.208,73.680 121.167,73.680 121.800 M99.000 125.868 C 98.120 126.657,97.760 127.116,98.200 126.888 C 98.941 126.504,101.151 124.379,100.770 124.417 C 100.676 124.426,99.880 125.079,99.000 125.868 M87.798 125.537 C 88.234 126.052,88.953 126.659,89.396 126.886 C 90.245 127.321,90.121 127.187,88.203 125.594 C 87.048 124.635,87.034 124.633,87.798 125.537 M60.200 125.619 C 59.642 125.871,59.885 125.907,61.000 125.738 C 61.880 125.604,62.675 125.428,62.767 125.347 C 63.110 125.044,60.968 125.271,60.200 125.619 M45.515 127.500 C 46.484 128.435,47.480 129.200,47.728 129.200 C 47.975 129.200,47.733 128.903,47.189 128.540 C 46.645 128.176,45.649 127.411,44.977 126.840 C 44.304 126.268,44.546 126.565,45.515 127.500 M57.000 127.600 C 55.983 128.480,55.297 129.193,55.476 129.184 C 55.845 129.165,59.424 126.000,59.076 126.000 C 58.951 126.000,58.017 126.720,57.000 127.600 M65.926 127.512 C 66.516 128.124,67.076 128.574,67.168 128.511 C 67.399 128.355,65.535 126.400,65.156 126.400 C 64.988 126.400,65.335 126.901,65.926 127.512 M31.200 127.347 C 31.200 127.780,33.188 131.600,33.413 131.600 C 33.523 131.600,33.139 130.655,32.559 129.500 C 31.443 127.279,31.200 126.894,31.200 127.347 M67.400 131.400 C 67.400 132.568,67.532 133.316,67.694 133.062 C 67.856 132.808,67.988 132.060,67.988 131.400 C 67.988 130.740,67.856 129.992,67.694 129.738 C 67.532 129.484,67.400 130.232,67.400 131.400 M50.707 129.890 C 51.426 129.979,52.506 129.977,53.107 129.886 C 53.708 129.795,53.120 129.722,51.800 129.724 C 50.480 129.726,49.988 129.801,50.707 129.890 M36.697 135.626 C 37.630 136.615,38.980 137.741,39.697 138.129 C 40.956 138.811,40.966 138.810,40.000 138.119 C 39.450 137.725,38.100 136.598,37.000 135.616 L 35.000 133.829 36.697 135.626 M65.426 135.913 C 64.015 137.603,63.988 137.675,65.160 136.600 C 66.271 135.582,67.488 133.970,67.114 134.013 C 67.051 134.020,66.292 134.875,65.426 135.913 M81.544 135.732 C 82.183 136.503,86.010 138.523,86.294 138.240 C 86.425 138.108,86.358 138.000,86.143 138.000 C 85.929 138.000,84.706 137.370,83.427 136.599 C 82.148 135.829,81.300 135.439,81.544 135.732 M101.738 138.283 C 102.145 138.388,103.015 139.042,103.674 139.737 L 104.870 141.000 103.735 139.500 C 103.040 138.582,102.290 138.018,101.800 138.046 C 101.074 138.088,101.069 138.111,101.738 138.283 M125.686 139.171 C 126.001 139.705,126.695 140.402,127.229 140.720 L 128.200 141.298 127.312 140.549 C 126.823 140.137,126.129 139.440,125.768 139.000 C 125.143 138.237,125.139 138.245,125.686 139.171 M43.600 140.119 C 44.678 140.734,46.800 141.335,46.800 141.026 C 46.800 140.923,46.215 140.669,45.500 140.462 C 44.785 140.256,43.840 139.966,43.400 139.818 C 42.904 139.651,42.981 139.766,43.600 140.119 M92.291 139.889 C 93.001 139.977,94.261 139.979,95.091 139.892 C 95.921 139.805,95.340 139.733,93.800 139.731 C 92.260 139.729,91.581 139.800,92.291 139.889 M47.905 141.483 C 48.402 141.579,49.122 141.575,49.505 141.475 C 49.887 141.375,49.480 141.296,48.600 141.301 C 47.720 141.305,47.407 141.387,47.905 141.483 M54.305 141.483 C 54.802 141.579,55.522 141.575,55.905 141.475 C 56.287 141.375,55.880 141.296,55.000 141.301 C 54.120 141.305,53.807 141.387,54.305 141.483 M207.312 334.695 C 208.364 334.777,209.984 334.776,210.912 334.692 C 211.840 334.608,210.980 334.541,209.000 334.542 C 207.020 334.543,206.260 334.612,207.312 334.695 M88.700 374.275 C 87.889 374.488,87.603 388.907,88.400 389.400 C 88.620 389.536,88.800 390.447,88.800 391.424 C 88.800 392.401,88.980 393.200,89.200 393.200 C 89.420 393.200,89.600 393.560,89.600 394.000 C 89.600 394.440,89.780 394.800,90.000 394.800 C 90.220 394.800,90.400 395.076,90.400 395.413 C 90.400 396.268,92.708 398.481,94.466 399.312 C 96.934 400.479,322.547 400.172,323.973 399.000 C 326.240 397.137,328.399 394.357,328.400 393.300 C 328.400 392.805,328.583 392.400,328.808 392.400 C 329.075 392.400,329.178 389.282,329.108 383.300 L 329.000 374.200 209.200 374.146 C 143.310 374.116,89.085 374.175,88.700 374.275 " stroke="none" fill="#d4d4d4" fill-rule="evenodd"></path><path id="path3" d="M258.977 23.800 C 258.977 30.180,259.032 32.734,259.099 29.476 C 259.167 26.217,259.166 20.997,259.099 17.876 C 259.031 14.754,258.976 17.420,258.977 23.800 M128.200 83.184 C 127.760 83.367,126.860 84.087,126.200 84.785 L 125.000 86.052 125.000 111.926 C 125.000 136.285,125.043 137.863,125.728 138.872 C 128.310 142.676,134.180 142.105,135.783 137.895 C 136.816 135.181,136.536 87.077,135.478 85.463 C 134.005 83.216,130.648 82.164,128.200 83.184 M105.400 98.451 C 104.960 98.686,104.060 99.490,103.400 100.239 L 102.200 101.599 100.000 100.756 C 93.847 98.397,85.007 100.424,79.773 105.394 C 75.790 109.176,72.792 117.624,73.951 121.800 C 74.196 122.680,74.397 123.825,74.398 124.344 C 74.399 124.864,75.069 126.641,75.886 128.295 C 80.353 137.335,90.866 141.759,100.320 138.579 L 102.440 137.866 103.641 139.323 C 106.478 142.765,111.654 141.882,113.433 137.651 C 114.215 135.791,114.258 104.175,113.482 101.946 C 112.315 98.598,108.345 96.881,105.400 98.451 M46.400 98.978 C 25.936 104.739,24.732 132.749,44.627 140.233 C 55.155 144.193,69.593 137.429,67.257 129.632 C 66.005 125.454,61.150 124.420,57.507 127.556 C 54.624 130.038,52.221 130.578,48.723 129.530 C 41.750 127.441,39.500 116.692,45.154 112.482 C 45.949 111.889,46.690 111.310,46.800 111.194 C 48.342 109.572,53.664 109.575,56.862 111.200 C 60.467 113.032,62.331 112.890,64.611 110.611 C 71.160 104.061,58.063 95.695,46.400 98.978 M97.679 112.255 C 100.527 113.690,102.797 118.053,102.182 120.907 C 100.458 128.890,90.878 130.723,86.646 123.878 C 82.302 116.852,90.230 108.501,97.679 112.255 M38.200 333.600 C 38.064 333.820,37.685 334.000,37.358 334.000 C 37.031 334.000,36.322 334.442,35.782 334.982 L 34.800 335.964 34.800 346.958 C 34.800 353.856,34.949 358.045,35.200 358.200 C 35.420 358.336,35.600 358.887,35.600 359.424 C 35.600 359.961,35.780 360.400,36.000 360.400 C 36.220 360.400,36.400 360.900,36.400 361.512 C 36.400 362.165,36.730 362.861,37.200 363.200 C 37.640 363.517,38.000 364.057,38.000 364.400 C 38.000 364.743,38.360 365.283,38.800 365.600 C 39.240 365.917,39.600 366.407,39.600 366.688 C 39.600 366.970,39.780 367.200,40.000 367.200 C 40.220 367.200,40.400 367.470,40.400 367.800 C 40.400 368.130,40.586 368.400,40.813 368.400 C 41.041 368.400,41.761 368.946,42.413 369.614 C 43.066 370.281,43.605 370.686,43.612 370.514 C 43.619 370.341,43.808 370.515,44.032 370.900 C 44.256 371.285,44.701 371.600,45.020 371.600 C 45.339 371.600,45.600 371.799,45.600 372.043 C 45.600 372.286,45.857 372.387,46.171 372.267 C 46.485 372.146,46.957 372.307,47.220 372.624 C 47.483 372.941,48.115 373.200,48.625 373.200 C 49.135 373.200,49.664 373.380,49.800 373.600 C 49.936 373.820,50.757 374.000,51.624 374.000 C 52.491 374.000,53.200 374.184,53.200 374.408 C 53.200 374.683,58.990 374.746,70.900 374.602 C 108.079 374.151,328.503 373.988,329.013 374.411 C 329.658 374.946,366.286 374.909,366.617 374.372 C 366.744 374.168,367.366 374.000,368.000 374.000 C 368.634 374.000,369.250 373.842,369.370 373.649 C 369.489 373.456,370.433 373.085,371.468 372.825 C 372.502 372.564,373.642 372.013,374.000 371.600 C 374.358 371.188,374.897 370.794,375.198 370.725 C 375.906 370.564,380.800 365.743,380.800 365.207 C 380.800 364.983,380.980 364.800,381.200 364.800 C 381.420 364.800,381.600 364.530,381.600 364.200 C 381.600 363.870,381.780 363.600,382.000 363.600 C 382.220 363.600,382.400 363.240,382.400 362.800 C 382.400 362.360,382.580 362.000,382.800 362.000 C 383.020 362.000,383.200 361.561,383.200 361.024 C 383.200 360.487,383.380 359.936,383.600 359.800 C 383.820 359.664,384.000 359.023,384.000 358.376 C 384.000 357.729,384.185 357.200,384.411 357.200 C 384.684 357.200,384.805 353.593,384.771 346.500 C 384.714 334.697,384.654 334.429,382.000 334.062 C 381.450 333.986,380.940 333.761,380.867 333.562 C 380.608 332.859,279.116 333.104,277.699 333.811 C 275.838 334.739,142.162 334.739,140.301 333.811 C 138.814 333.069,38.656 332.862,38.200 333.600 " stroke="none" fill="#f6f1f6" fill-rule="evenodd"></path><path id="path4" d="M188.255 1.455 C 187.668 2.041,187.270 2.603,187.370 2.703 C 187.470 2.803,188.032 2.405,188.618 1.818 C 189.205 1.232,189.603 0.670,189.503 0.570 C 189.403 0.470,188.841 0.868,188.255 1.455 M191.894 1.090 C 191.505 1.184,190.088 2.324,188.744 3.623 C 187.399 4.922,186.114 5.871,185.888 5.731 C 185.662 5.591,185.579 5.642,185.703 5.844 C 185.828 6.046,185.290 6.748,184.508 7.405 C 183.725 8.062,181.473 10.175,179.502 12.100 C 177.531 14.025,175.757 15.600,175.559 15.600 C 175.362 15.600,175.200 15.870,175.200 16.200 C 175.200 16.530,174.967 16.800,174.683 16.800 C 174.398 16.800,172.300 18.600,170.020 20.800 C 167.740 23.000,165.721 24.800,165.533 24.800 C 165.262 24.800,158.771 31.186,156.518 33.669 C 156.253 33.961,155.488 34.642,154.818 35.181 C 154.148 35.721,153.600 36.298,153.600 36.463 C 153.600 36.875,151.689 38.756,151.481 38.548 C 151.389 38.456,151.063 38.690,150.757 39.067 C 150.274 39.662,150.280 39.708,150.800 39.415 C 151.521 39.009,151.087 39.508,147.511 43.200 C 146.125 44.630,144.552 46.430,144.015 47.200 C 143.477 47.970,142.624 48.966,142.119 49.413 C 141.613 49.860,141.200 50.625,141.200 51.113 C 141.200 51.601,140.964 52.000,140.675 52.000 C 140.387 52.000,139.748 52.545,139.255 53.211 C 138.763 53.877,138.208 54.328,138.022 54.214 C 137.837 54.099,137.581 54.423,137.453 54.933 C 137.125 56.236,134.954 58.400,133.973 58.400 C 133.522 58.400,133.264 58.220,133.400 58.000 C 133.536 57.780,133.439 57.600,133.184 57.600 C 132.929 57.600,132.217 57.060,131.600 56.400 C 130.983 55.740,130.274 55.200,130.023 55.200 C 129.772 55.200,129.180 54.840,128.708 54.400 C 128.236 53.960,127.613 53.600,127.325 53.600 C 127.036 53.600,126.800 53.420,126.800 53.200 C 126.800 52.980,126.440 52.800,126.000 52.800 C 125.560 52.800,125.199 52.665,125.199 52.500 C 125.198 52.335,124.208 51.750,123.000 51.200 C 121.792 50.650,120.802 50.065,120.801 49.900 C 120.801 49.735,120.440 49.600,120.000 49.600 C 119.560 49.600,119.200 49.420,119.200 49.200 C 119.200 48.980,118.840 48.800,118.400 48.800 C 117.960 48.800,117.600 48.620,117.600 48.400 C 117.600 48.180,117.060 48.000,116.400 48.000 C 115.740 48.000,115.200 47.820,115.200 47.600 C 115.200 47.380,114.851 47.200,114.424 47.200 C 113.997 47.200,113.536 47.020,113.400 46.800 C 113.264 46.580,112.724 46.400,112.200 46.400 C 111.676 46.400,111.136 46.220,111.000 46.000 C 110.864 45.780,110.221 45.600,109.571 45.600 C 108.921 45.600,108.077 45.436,107.695 45.235 C 107.040 44.891,105.594 44.578,100.400 43.656 C 99.190 43.441,97.390 43.254,96.400 43.241 C 95.410 43.229,93.353 43.012,91.830 42.761 C 89.750 42.418,88.206 42.419,85.630 42.764 C 83.743 43.016,81.210 43.301,80.000 43.395 C 78.053 43.548,75.581 43.907,71.296 44.659 C 70.579 44.785,69.894 45.049,69.773 45.244 C 69.652 45.440,68.933 45.600,68.176 45.600 C 67.419 45.600,66.800 45.780,66.800 46.000 C 66.800 46.220,66.260 46.400,65.600 46.400 C 64.940 46.400,64.400 46.580,64.400 46.800 C 64.400 47.020,63.950 47.200,63.400 47.200 C 62.850 47.200,62.400 47.380,62.400 47.600 C 62.400 47.820,62.121 48.000,61.781 48.000 C 61.440 48.000,60.416 48.360,59.506 48.800 C 58.595 49.240,57.614 49.600,57.325 49.600 C 57.036 49.600,56.800 49.780,56.800 50.000 C 56.800 50.220,56.440 50.400,56.000 50.400 C 55.560 50.400,55.200 50.580,55.200 50.800 C 55.200 51.020,54.840 51.200,54.400 51.200 C 53.960 51.200,53.600 51.380,53.600 51.600 C 53.600 51.820,53.322 52.000,52.983 52.000 C 52.644 52.000,51.990 52.351,51.529 52.780 C 51.069 53.209,50.095 53.844,49.365 54.190 C 48.635 54.536,47.804 55.046,47.519 55.323 C 47.233 55.600,46.370 56.262,45.600 56.794 C 44.830 57.327,43.885 58.113,43.500 58.542 C 43.115 58.971,42.794 59.160,42.787 58.961 C 42.780 58.763,42.510 58.949,42.187 59.376 C 41.864 59.804,41.600 60.013,41.600 59.842 C 41.600 59.670,39.170 61.969,36.200 64.949 C 33.230 67.929,30.800 70.528,30.800 70.725 C 30.800 70.921,30.305 71.616,29.700 72.268 C 29.095 72.921,28.544 73.702,28.475 74.002 C 28.406 74.303,28.005 74.849,27.582 75.215 C 27.160 75.582,26.930 75.997,27.071 76.138 C 27.213 76.279,26.984 76.713,26.564 77.102 C 25.607 77.987,24.800 79.402,24.800 80.195 C 24.800 80.528,24.620 80.800,24.400 80.800 C 24.180 80.800,24.000 81.070,24.000 81.400 C 24.000 81.730,23.820 82.000,23.600 82.000 C 23.380 82.000,23.200 82.461,23.200 83.024 C 23.200 83.604,23.027 83.940,22.800 83.800 C 22.580 83.664,22.400 83.913,22.400 84.353 C 22.400 84.793,22.220 85.264,22.000 85.400 C 21.780 85.536,21.600 85.997,21.600 86.424 C 21.600 86.851,21.420 87.200,21.200 87.200 C 20.980 87.200,20.800 87.560,20.800 88.000 C 20.800 88.440,20.620 88.800,20.400 88.800 C 20.180 88.800,20.000 89.340,20.000 90.000 C 20.000 90.660,19.820 91.200,19.600 91.200 C 19.380 91.200,19.200 91.751,19.200 92.424 C 19.200 93.137,19.033 93.544,18.800 93.400 C 18.561 93.253,18.400 93.737,18.400 94.600 C 18.400 95.463,18.239 95.947,18.000 95.800 C 17.758 95.651,17.600 96.196,17.600 97.176 C 17.600 98.069,17.420 98.800,17.200 98.800 C 16.980 98.800,16.800 99.509,16.800 100.376 C 16.800 101.243,16.620 102.064,16.400 102.200 C 16.180 102.336,16.000 103.607,16.000 105.024 C 16.000 106.475,15.825 107.600,15.600 107.600 C 15.055 107.600,15.055 125.463,15.600 125.800 C 15.820 125.936,16.000 127.016,16.000 128.200 C 16.000 129.384,16.180 130.464,16.400 130.600 C 16.620 130.736,16.800 131.546,16.800 132.400 C 16.800 133.254,16.980 134.064,17.200 134.200 C 17.420 134.336,17.600 135.056,17.600 135.800 C 17.600 136.544,17.780 137.264,18.000 137.400 C 18.220 137.536,18.400 138.177,18.400 138.824 C 18.400 139.471,18.580 140.000,18.800 140.000 C 19.020 140.000,19.200 140.540,19.200 141.200 C 19.200 141.860,19.380 142.400,19.600 142.400 C 19.820 142.400,20.000 142.760,20.000 143.200 C 20.000 143.640,20.180 144.000,20.400 144.000 C 20.620 144.000,20.800 144.540,20.800 145.200 C 20.800 145.860,20.980 146.400,21.200 146.400 C 21.420 146.400,21.600 146.760,21.600 147.200 C 21.600 147.640,21.780 148.000,22.000 148.000 C 22.220 148.000,22.400 148.360,22.400 148.800 C 22.400 149.240,22.535 149.601,22.700 149.603 C 23.059 149.607,24.000 151.544,24.000 152.280 C 24.000 152.566,24.160 152.800,24.356 152.800 C 24.552 152.800,25.086 153.565,25.544 154.500 C 26.752 156.968,27.679 158.436,28.700 159.499 C 29.195 160.015,29.600 160.589,29.600 160.776 C 29.600 160.963,30.095 161.648,30.700 162.298 C 31.305 162.949,32.250 164.084,32.800 164.820 C 34.747 167.425,43.108 175.200,43.963 175.200 C 44.203 175.200,44.400 175.380,44.400 175.600 C 44.400 175.820,44.670 176.000,45.000 176.000 C 45.330 176.000,45.600 176.150,45.600 176.332 C 45.600 176.515,46.095 176.920,46.700 177.232 C 47.305 177.545,48.149 178.115,48.575 178.500 C 49.002 178.885,49.587 179.200,49.875 179.200 C 50.164 179.200,50.400 179.380,50.400 179.600 C 50.400 179.820,50.670 180.000,51.000 180.000 C 51.330 180.000,51.600 180.180,51.600 180.400 C 51.600 180.620,51.870 180.800,52.200 180.800 C 52.530 180.800,52.800 180.980,52.800 181.200 C 52.800 181.420,53.160 181.600,53.600 181.600 C 54.040 181.600,54.400 181.780,54.400 182.000 C 54.400 182.220,54.760 182.400,55.200 182.400 C 55.640 182.400,56.000 182.580,56.000 182.800 C 56.000 183.020,56.360 183.200,56.800 183.200 C 57.240 183.200,57.600 183.380,57.600 183.600 C 57.600 183.820,57.960 184.000,58.400 184.000 C 58.840 184.000,59.200 184.180,59.200 184.400 C 59.200 184.620,59.650 184.800,60.200 184.800 C 60.750 184.800,61.200 184.980,61.200 185.200 C 61.200 185.420,61.740 185.600,62.400 185.600 C 63.060 185.600,63.600 185.780,63.600 186.000 C 63.600 186.220,63.949 186.400,64.376 186.400 C 64.803 186.400,65.264 186.580,65.400 186.800 C 65.536 187.020,66.267 187.200,67.024 187.200 C 67.781 187.200,68.400 187.380,68.400 187.600 C 68.400 187.820,69.019 188.000,69.776 188.000 C 70.533 188.000,71.264 188.180,71.400 188.400 C 71.536 188.620,72.346 188.800,73.200 188.800 C 74.054 188.800,74.864 188.980,75.000 189.200 C 75.136 189.420,76.272 189.603,77.524 189.606 C 78.776 189.609,80.065 189.780,80.389 189.985 C 80.769 190.225,81.074 190.204,81.245 189.928 C 81.750 189.111,82.400 190.052,82.400 191.600 C 82.400 193.225,81.878 193.859,80.700 193.665 C 80.265 193.593,80.000 193.805,80.000 194.224 C 80.000 194.752,80.119 194.799,80.553 194.439 C 81.350 193.778,81.485 194.368,81.568 198.889 C 81.638 202.702,81.249 204.400,80.306 204.400 C 79.962 204.400,79.957 204.283,80.289 203.951 C 80.536 203.704,80.635 203.237,80.511 202.912 C 80.364 202.529,80.095 202.863,79.748 203.860 C 79.090 205.752,79.021 206.948,79.632 205.900 C 80.644 204.163,80.781 205.756,80.779 219.204 C 80.777 227.916,80.930 233.495,81.182 233.967 C 81.406 234.384,81.546 236.180,81.494 237.959 C 81.425 240.347,81.539 241.246,81.931 241.396 C 82.787 241.723,82.368 245.416,81.483 245.344 C 80.630 245.275,80.580 246.230,81.421 246.553 C 81.762 246.684,81.939 246.625,81.814 246.423 C 81.689 246.221,81.749 245.955,81.948 245.832 C 82.589 245.436,83.233 246.679,83.136 248.123 C 83.084 248.895,83.257 249.786,83.520 250.103 C 83.783 250.421,83.933 251.245,83.852 251.935 C 83.767 252.670,83.933 253.378,84.253 253.644 C 84.937 254.212,84.965 256.067,84.300 256.765 C 83.892 257.194,83.971 257.238,84.730 257.008 C 85.605 256.744,85.648 256.810,85.439 258.124 C 85.273 259.165,85.376 259.582,85.840 259.760 C 86.303 259.938,86.396 260.309,86.200 261.200 C 85.995 262.133,86.075 262.400,86.560 262.400 C 87.016 262.400,87.147 262.719,87.047 263.582 C 86.964 264.296,87.085 264.731,87.355 264.682 C 87.600 264.637,87.806 264.960,87.813 265.400 C 87.820 265.840,88.241 267.047,88.748 268.081 C 89.255 269.116,89.563 270.136,89.433 270.347 C 89.302 270.559,89.384 270.795,89.615 270.872 C 89.846 270.949,90.064 271.394,90.100 271.862 C 90.138 272.377,90.367 272.634,90.680 272.514 C 91.064 272.367,91.133 272.635,90.948 273.558 C 90.788 274.359,90.860 274.800,91.150 274.800 C 91.398 274.800,91.600 275.160,91.600 275.600 C 91.600 276.040,91.780 276.400,92.000 276.400 C 92.220 276.400,92.400 276.760,92.400 277.200 C 92.400 277.640,92.580 278.000,92.800 278.000 C 93.020 278.000,93.200 278.253,93.200 278.562 C 93.200 279.116,94.780 282.410,95.232 282.800 C 95.360 282.910,95.719 283.585,96.030 284.300 C 96.341 285.015,96.731 285.600,96.898 285.600 C 97.064 285.600,97.200 285.949,97.200 286.376 C 97.200 286.803,97.392 287.272,97.627 287.417 C 97.862 287.562,97.958 287.933,97.840 288.240 C 97.722 288.548,97.846 288.800,98.116 288.800 C 98.746 288.800,99.701 290.312,99.390 290.816 C 99.260 291.027,99.433 291.200,99.776 291.200 C 100.119 291.200,100.400 291.470,100.400 291.800 C 100.400 292.130,100.760 292.760,101.200 293.200 C 101.640 293.640,102.000 294.268,102.000 294.597 C 102.000 294.925,102.360 295.418,102.800 295.693 C 103.240 295.968,103.600 296.413,103.600 296.682 C 103.600 296.952,104.116 297.763,104.746 298.486 C 105.376 299.209,106.016 300.196,106.166 300.680 C 106.317 301.163,106.783 301.667,107.200 301.800 C 107.617 301.933,108.073 302.401,108.213 302.840 C 108.352 303.280,109.082 304.255,109.833 305.007 C 110.585 305.758,111.200 306.547,111.200 306.758 C 111.200 307.259,125.490 321.600,125.989 321.600 C 126.198 321.600,127.082 322.320,127.953 323.200 C 128.824 324.080,129.716 324.800,129.935 324.800 C 130.153 324.800,130.842 325.340,131.465 326.000 C 132.088 326.660,132.804 327.200,133.057 327.200 C 133.309 327.200,133.940 327.647,134.458 328.193 C 134.976 328.739,135.711 329.189,136.091 329.193 C 136.471 329.197,137.075 329.648,137.435 330.197 C 137.794 330.745,138.259 331.087,138.469 330.957 C 138.956 330.656,140.454 331.989,140.161 332.463 C 140.040 332.659,140.089 332.786,140.270 332.744 C 140.452 332.703,141.050 332.794,141.600 332.947 C 142.150 333.100,146.712 333.175,151.739 333.113 L 160.877 333.000 157.639 329.615 C 155.857 327.753,154.400 326.071,154.400 325.876 C 154.400 325.681,153.905 325.044,153.300 324.460 C 152.695 323.877,151.390 322.320,150.401 321.000 C 149.411 319.680,148.505 318.510,148.385 318.400 C 147.844 317.900,143.600 311.163,143.600 310.804 C 143.600 310.582,143.441 310.400,143.247 310.400 C 143.052 310.400,142.793 310.085,142.671 309.700 C 142.451 309.004,141.187 306.782,140.795 306.400 C 140.682 306.290,140.142 305.300,139.595 304.200 C 139.048 303.100,138.465 302.140,138.300 302.067 C 138.135 301.993,138.000 301.588,138.000 301.167 C 138.000 300.745,137.820 300.400,137.600 300.400 C 137.380 300.400,137.200 300.040,137.200 299.600 C 137.200 299.160,137.020 298.800,136.800 298.800 C 136.580 298.800,136.400 298.440,136.400 298.000 C 136.400 297.560,136.220 297.200,136.000 297.200 C 135.780 297.200,135.600 296.947,135.600 296.638 C 135.600 296.329,135.214 295.294,134.743 294.338 C 134.272 293.382,133.732 292.195,133.543 291.700 C 133.354 291.205,132.996 290.305,132.746 289.700 C 132.497 289.095,132.147 288.240,131.968 287.800 C 130.227 283.516,127.194 272.642,127.197 270.700 C 127.199 269.875,127.020 269.200,126.800 269.200 C 126.580 269.200,126.400 268.311,126.400 267.224 C 126.400 266.137,126.220 265.136,126.000 265.000 C 125.780 264.864,125.600 263.773,125.600 262.576 C 125.600 261.379,125.420 260.400,125.200 260.400 C 124.963 260.400,124.800 258.941,124.800 256.824 C 124.800 254.857,124.620 253.136,124.400 253.000 C 123.852 252.662,123.852 222.138,124.400 221.800 C 124.630 221.658,124.800 219.537,124.800 216.800 C 124.800 214.063,124.970 211.942,125.200 211.800 C 125.420 211.664,125.600 210.044,125.600 208.200 C 125.600 206.356,125.780 204.736,126.000 204.600 C 126.220 204.464,126.400 203.733,126.400 202.976 C 126.400 202.219,126.580 201.600,126.800 201.600 C 127.020 201.600,127.200 201.275,127.200 200.878 C 127.200 199.320,131.506 193.600,132.678 193.600 C 132.965 193.600,133.200 193.450,133.200 193.268 C 133.200 193.085,133.695 192.680,134.300 192.368 C 134.905 192.055,135.749 191.485,136.175 191.100 C 136.602 190.715,137.187 190.400,137.475 190.400 C 137.764 190.400,138.000 190.250,138.000 190.068 C 138.000 189.885,138.495 189.480,139.100 189.168 C 139.705 188.855,140.613 188.195,141.118 187.700 C 141.623 187.205,142.202 186.800,142.405 186.800 C 142.608 186.800,143.364 186.211,144.087 185.490 C 144.809 184.770,145.808 183.895,146.307 183.547 C 147.905 182.433,154.993 175.450,155.998 174.000 C 156.532 173.230,157.471 172.123,158.085 171.540 C 158.698 170.956,159.200 170.343,159.200 170.176 C 159.200 170.009,159.879 168.956,160.708 167.836 C 162.821 164.982,164.400 162.490,164.400 162.009 C 164.400 161.784,164.535 161.599,164.700 161.597 C 164.865 161.595,165.198 161.190,165.439 160.697 C 165.861 159.836,168.430 154.671,170.032 151.462 C 170.454 150.616,170.800 149.581,170.800 149.162 C 170.800 148.743,170.980 148.400,171.200 148.400 C 171.420 148.400,171.600 148.051,171.600 147.624 C 171.600 147.197,171.780 146.736,172.000 146.600 C 172.220 146.464,172.400 145.913,172.400 145.376 C 172.400 144.839,172.580 144.400,172.800 144.400 C 173.020 144.400,173.200 143.860,173.200 143.200 C 173.200 142.540,173.380 142.000,173.600 142.000 C 173.820 142.000,174.000 141.381,174.000 140.624 C 174.000 139.867,174.180 139.136,174.400 139.000 C 174.620 138.864,174.800 138.043,174.800 137.176 C 174.800 136.309,174.980 135.600,175.200 135.600 C 175.420 135.600,175.600 134.801,175.600 133.824 C 175.600 132.847,175.780 131.936,176.000 131.800 C 176.220 131.664,176.400 130.404,176.400 129.000 C 176.400 127.596,176.580 126.336,176.800 126.200 C 177.342 125.865,177.342 107.335,176.800 107.000 C 176.580 106.864,176.400 105.593,176.400 104.176 C 176.400 102.725,176.225 101.600,176.000 101.600 C 175.780 101.600,175.600 100.711,175.600 99.624 C 175.600 98.537,175.420 97.536,175.200 97.400 C 174.980 97.264,174.800 96.443,174.800 95.576 C 174.800 94.709,174.637 94.000,174.437 94.000 C 174.116 94.000,173.616 90.791,173.596 88.600 C 173.582 87.086,174.042 83.799,174.380 83.000 C 175.661 79.971,176.250 78.958,178.470 75.962 C 179.840 74.113,181.194 72.362,181.480 72.071 C 181.766 71.781,182.000 71.421,182.000 71.271 C 182.000 71.122,182.675 70.245,183.500 69.323 C 185.615 66.958,188.457 63.664,189.400 62.485 C 189.840 61.934,191.190 60.461,192.400 59.212 C 193.610 57.962,195.254 56.188,196.054 55.270 C 196.854 54.351,197.697 53.600,197.928 53.600 C 198.158 53.600,198.404 53.105,198.473 52.500 C 198.549 51.843,198.813 51.444,199.130 51.510 C 199.421 51.570,199.544 51.432,199.402 51.203 C 199.261 50.974,198.999 50.877,198.821 50.987 C 198.643 51.097,198.410 50.155,198.302 48.893 C 198.195 47.632,198.231 46.551,198.383 46.490 C 198.534 46.430,198.580 45.847,198.485 45.195 C 198.389 44.543,198.455 43.693,198.632 43.305 C 198.872 42.778,199.021 43.053,199.224 44.400 C 199.481 46.104,199.495 46.067,199.488 43.700 C 199.483 42.156,199.312 41.198,199.040 41.194 C 198.733 41.190,198.729 41.099,199.026 40.894 C 199.748 40.395,199.706 37.363,198.966 36.623 C 198.392 36.050,198.324 35.120,198.452 29.680 C 198.534 26.226,198.543 23.895,198.474 24.500 C 198.404 25.105,198.204 25.600,198.029 25.600 C 197.854 25.600,197.801 25.131,197.910 24.557 C 198.031 23.925,197.892 23.362,197.555 23.127 C 197.124 22.826,197.113 22.693,197.502 22.535 C 197.779 22.423,197.924 22.200,197.824 22.040 C 197.725 21.879,197.611 17.478,197.571 12.260 C 197.503 3.440,197.445 2.745,196.749 2.373 C 196.337 2.152,195.999 1.753,195.997 1.486 C 195.994 1.000,193.328 0.743,191.894 1.090 M176.399 12.202 C 175.883 12.751,175.589 13.200,175.747 13.200 C 176.198 13.200,177.765 11.631,177.539 11.406 C 177.428 11.294,176.914 11.652,176.399 12.202 M198.555 16.600 C 198.556 19.460,198.620 20.578,198.697 19.083 C 198.774 17.589,198.774 15.249,198.696 13.883 C 198.618 12.518,198.555 13.740,198.555 16.600 M285.000 24.000 C 285.000 30.338,285.124 35.447,285.276 35.353 C 285.647 35.124,285.662 12.885,285.291 12.657 C 285.131 12.558,285.000 17.662,285.000 24.000 M168.871 19.220 C 168.392 19.666,168.000 20.247,168.000 20.511 C 168.000 20.776,168.468 20.487,169.040 19.870 C 170.266 18.548,170.134 18.043,168.871 19.220 M199.200 38.600 C 199.200 39.124,199.065 39.636,198.900 39.738 C 198.735 39.840,198.600 39.328,198.600 38.600 C 198.600 37.872,198.735 37.360,198.900 37.462 C 199.065 37.564,199.200 38.076,199.200 38.600 M146.660 41.441 C 145.924 42.451,145.924 42.454,146.760 41.932 C 147.222 41.644,147.600 41.181,147.600 40.904 C 147.600 40.219,147.514 40.268,146.660 41.441 M142.043 46.637 C 141.547 47.207,141.258 47.791,141.400 47.934 C 141.543 48.077,141.830 47.889,142.039 47.516 C 142.247 47.144,142.697 46.561,143.037 46.220 C 143.378 45.879,143.497 45.600,143.301 45.600 C 143.105 45.600,142.538 46.067,142.043 46.637 M132.851 82.565 C 134.272 83.160,135.599 84.415,136.350 85.874 C 136.669 86.494,136.800 94.126,136.800 112.182 L 136.800 137.616 135.857 139.110 C 134.955 140.538,134.390 140.942,131.886 141.948 C 129.487 142.912,125.506 140.557,124.487 137.572 C 123.695 135.251,123.797 88.184,124.598 86.266 C 126.043 82.808,129.611 81.208,132.851 82.565 M111.900 98.664 C 114.449 100.580,114.400 100.164,114.400 119.724 L 114.400 137.488 113.351 139.044 C 110.804 142.824,106.531 143.206,103.342 139.940 C 102.294 138.868,101.716 138.547,101.248 138.780 C 93.368 142.693,80.867 138.363,76.100 130.070 C 66.913 114.087,82.001 94.644,99.468 99.957 L 101.935 100.707 103.573 99.180 C 105.959 96.955,109.348 96.745,111.900 98.664 M56.400 98.166 C 64.419 100.124,68.083 103.672,66.831 108.267 C 65.735 112.289,60.736 114.349,57.391 112.157 C 52.296 108.819,46.215 110.467,43.300 115.975 C 42.345 117.779,42.018 122.117,42.800 122.600 C 43.020 122.736,43.200 123.164,43.200 123.552 C 43.200 124.553,45.815 127.479,47.325 128.168 C 51.568 130.104,54.334 129.809,57.193 127.115 C 58.078 126.282,59.061 125.600,59.377 125.600 C 59.694 125.600,60.064 125.420,60.200 125.200 C 61.010 123.890,65.075 125.386,66.910 127.671 C 70.385 131.994,66.606 137.872,58.200 141.220 C 55.298 142.376,48.222 142.370,45.400 141.210 C 44.960 141.029,43.970 140.649,43.200 140.367 C 35.670 137.603,29.600 128.430,29.600 119.814 C 29.600 106.045,43.311 94.970,56.400 98.166 M353.406 102.688 L 352.704 103.800 353.630 102.911 C 354.139 102.422,354.455 101.922,354.332 101.799 C 354.209 101.676,353.792 102.076,353.406 102.688 M90.312 112.775 C 86.691 114.585,85.036 118.918,86.566 122.581 C 89.772 130.254,101.639 127.988,101.591 119.713 C 101.558 114.019,95.401 110.233,90.312 112.775 M197.000 179.200 C 196.047 179.443,196.317 179.515,198.313 179.553 C 202.436 179.630,205.524 181.367,207.491 184.714 L 208.600 186.600 208.801 205.000 L 209.001 223.400 209.983 225.400 C 212.132 229.779,217.525 233.665,221.315 233.566 C 222.324 233.540,222.128 233.429,220.400 233.047 C 215.940 232.061,212.568 229.491,210.540 225.530 L 209.450 223.400 209.225 205.000 L 209.000 186.600 207.938 184.800 C 206.044 181.589,204.136 180.138,200.600 179.220 C 198.835 178.762,198.725 178.761,197.000 179.200 M192.600 180.000 L 191.800 180.344 192.600 180.325 C 193.040 180.314,193.940 180.168,194.600 180.000 L 195.800 179.695 194.600 179.675 C 193.940 179.665,193.040 179.811,192.600 180.000 M189.200 180.800 C 188.413 181.309,189.816 181.309,191.000 180.800 C 191.733 180.485,191.716 180.454,190.800 180.434 C 190.250 180.422,189.530 180.587,189.200 180.800 M186.400 181.600 C 185.605 182.114,186.604 182.114,187.800 181.600 L 188.600 181.256 187.800 181.234 C 187.360 181.222,186.730 181.387,186.400 181.600 M184.000 182.400 C 183.467 182.745,183.467 182.788,184.000 182.788 C 184.330 182.788,184.870 182.613,185.200 182.400 C 185.733 182.055,185.733 182.012,185.200 182.012 C 184.870 182.012,184.330 182.187,184.000 182.400 M181.600 183.200 C 181.067 183.545,181.067 183.588,181.600 183.588 C 181.930 183.588,182.470 183.413,182.800 183.200 C 183.333 182.855,183.333 182.812,182.800 182.812 C 182.470 182.812,181.930 182.987,181.600 183.200 M177.195 184.971 C 172.731 186.924,161.840 193.435,160.800 194.771 C 160.690 194.912,160.060 195.440,159.400 195.945 C 158.740 196.449,156.853 198.153,155.207 199.731 C 152.548 202.280,151.122 203.804,147.765 207.679 C 146.643 208.976,142.508 215.087,141.053 217.600 C 137.685 223.415,132.729 236.033,132.841 238.502 C 132.871 239.157,132.990 239.021,133.282 238.000 C 134.390 234.131,136.165 228.554,136.402 228.200 C 136.549 227.980,137.097 226.720,137.620 225.400 C 140.826 217.307,148.020 207.054,155.384 200.084 C 161.961 193.858,170.961 187.888,177.800 185.214 C 179.120 184.698,180.371 184.123,180.580 183.938 C 181.276 183.319,180.261 183.629,177.195 184.971 M258.800 204.359 C 255.061 205.161,254.210 205.954,238.400 223.361 C 237.190 224.693,235.078 226.944,233.706 228.364 C 231.029 231.134,230.495 232.256,233.059 229.724 C 233.908 228.886,236.312 226.312,238.401 224.005 C 255.963 204.613,255.740 204.800,261.347 204.800 C 266.353 204.800,268.857 206.490,273.161 212.775 C 275.526 216.227,279.764 224.040,280.770 226.800 C 281.051 227.570,281.431 228.560,281.614 229.000 C 282.137 230.256,283.493 234.481,283.780 235.747 C 283.922 236.378,284.137 236.797,284.256 236.677 C 284.776 236.157,280.958 225.479,278.806 221.434 C 277.054 218.142,274.343 213.493,274.004 213.200 C 273.877 213.090,272.945 211.830,271.934 210.400 C 268.424 205.437,263.764 203.294,258.800 204.359 M229.000 232.027 C 228.340 232.450,227.944 232.797,228.120 232.798 C 228.560 232.801,230.800 231.624,230.800 231.390 C 230.800 231.042,230.212 231.251,229.000 232.027 M79.216 232.454 C 79.207 232.814,79.469 233.624,79.798 234.254 C 80.566 235.728,80.580 234.906,79.816 233.146 C 79.494 232.406,79.224 232.094,79.216 232.454 M224.800 233.200 L 223.400 233.495 225.000 233.541 C 225.880 233.567,226.870 233.413,227.200 233.200 C 227.924 232.732,227.023 232.732,224.800 233.200 M284.434 238.000 C 284.422 238.550,284.587 239.270,284.800 239.600 C 285.309 240.387,285.309 238.984,284.800 237.800 C 284.485 237.067,284.454 237.084,284.434 238.000 M132.289 240.400 C 132.136 240.950,132.025 241.850,132.042 242.400 C 132.068 243.261,132.126 243.214,132.458 242.060 C 132.670 241.324,132.781 240.424,132.706 240.060 C 132.608 239.594,132.486 239.693,132.289 240.400 M285.295 241.400 C 285.295 242.060,285.432 243.140,285.600 243.800 L 285.905 245.000 285.905 243.800 C 285.905 243.140,285.768 242.060,285.600 241.400 L 285.295 240.200 285.295 241.400 M131.496 244.750 C 131.333 245.493,131.220 246.753,131.244 247.550 C 131.288 249.000,131.288 249.000,131.650 247.200 C 131.850 246.210,131.963 244.950,131.902 244.400 C 131.804 243.520,131.756 243.561,131.496 244.750 M286.273 249.000 C 286.396 250.980,286.565 252.675,286.648 252.767 C 286.936 253.083,286.705 247.797,286.378 246.600 C 286.181 245.879,286.139 246.838,286.273 249.000 M130.958 256.600 C 130.958 259.680,131.021 260.887,131.097 259.282 C 131.173 257.678,131.173 255.158,131.096 253.682 C 131.019 252.207,130.957 253.520,130.958 256.600 M286.269 263.536 C 286.088 265.371,286.029 266.962,286.139 267.073 C 286.467 267.400,286.869 263.944,286.729 262.000 C 286.624 260.534,286.539 260.819,286.269 263.536 M131.286 265.600 C 131.283 266.590,131.424 267.850,131.600 268.400 C 132.065 269.851,132.082 267.618,131.623 265.400 L 131.292 263.800 131.286 265.600 M285.418 269.926 C 285.253 271.095,285.213 272.146,285.329 272.262 C 285.614 272.547,286.131 268.987,285.900 268.325 C 285.800 268.036,285.582 268.757,285.418 269.926 M132.068 270.600 C 132.062 271.260,132.211 272.160,132.400 272.600 C 132.870 273.694,132.870 271.867,132.400 270.400 C 132.088 269.425,132.079 269.430,132.068 270.600 M284.447 274.784 C 280.522 292.856,268.132 310.271,250.797 322.079 C 250.249 322.452,249.980 322.767,250.200 322.778 C 253.173 322.924,271.747 304.598,274.836 298.471 C 275.133 297.882,275.844 296.680,276.416 295.800 C 279.812 290.576,285.755 275.008,285.088 273.082 C 284.996 272.817,284.707 273.583,284.447 274.784 M132.856 274.400 C 132.856 274.950,133.011 275.760,133.200 276.200 C 133.513 276.929,133.544 276.912,133.544 276.000 C 133.544 275.450,133.389 274.640,133.200 274.200 C 132.887 273.471,132.856 273.488,132.856 274.400 M133.600 277.495 C 133.600 279.965,139.810 293.778,142.847 298.062 C 143.261 298.646,143.600 299.229,143.600 299.357 C 143.600 299.486,143.860 299.908,144.178 300.295 C 144.495 300.683,145.617 302.170,146.670 303.600 C 150.223 308.426,157.384 315.678,160.871 317.983 C 161.602 318.466,161.210 317.999,160.000 316.945 C 147.612 306.159,139.619 294.540,135.000 280.604 C 133.954 277.446,133.600 276.661,133.600 277.495 M114.851 313.498 C 115.857 314.778,116.339 315.200,116.795 315.200 C 117.044 315.200,117.136 315.380,117.000 315.600 C 116.864 315.820,116.943 316.000,117.176 316.000 C 117.895 316.000,117.655 315.535,116.220 314.140 C 114.753 312.716,113.934 312.332,114.851 313.498 M118.000 316.249 C 118.000 316.373,118.360 316.931,118.800 317.491 C 119.240 318.050,119.600 318.359,119.600 318.177 C 119.600 317.996,119.864 318.196,120.187 318.624 C 120.510 319.051,120.780 319.219,120.787 318.997 C 120.794 318.776,120.170 318.016,119.400 317.310 C 118.630 316.603,118.000 316.126,118.000 316.249 M162.405 319.085 C 162.410 319.389,167.074 322.551,169.715 324.042 C 178.152 328.804,188.978 332.761,195.200 333.358 L 197.400 333.569 195.600 333.153 C 190.223 331.909,186.827 331.058,185.400 330.595 C 178.320 328.298,171.320 324.828,164.708 320.337 C 163.439 319.475,162.402 318.912,162.405 319.085 M243.800 325.759 C 238.820 328.285,233.862 330.211,229.000 331.507 C 225.315 332.490,224.098 332.787,222.200 333.165 L 220.200 333.564 222.560 333.346 C 226.167 333.012,233.866 330.777,239.200 328.515 C 242.138 327.269,247.842 324.348,248.800 323.600 C 250.168 322.530,250.132 322.546,243.800 325.759 M199.305 333.887 C 199.914 333.979,200.814 333.977,201.305 333.882 C 201.797 333.787,201.300 333.711,200.200 333.714 C 199.100 333.717,198.697 333.795,199.305 333.887 M216.905 333.887 C 217.514 333.979,218.414 333.977,218.905 333.882 C 219.397 333.787,218.900 333.711,217.800 333.714 C 216.700 333.717,216.297 333.795,216.905 333.887 " stroke="none" fill="#fcc364" fill-rule="evenodd"></path></g></svg>