<svg id="svg" version="1.1" xmlns="http://www.w3.org/2000/svg" xmlns:xlink="http://www.w3.org/1999/xlink" width="400" height="400" viewBox="0, 0, 400,400"><g id="svgg"><path id="path0" d="M378.092 106.000 C 377.620 106.440,376.956 106.800,376.617 106.800 C 376.278 106.800,376.000 106.980,376.000 107.200 C 376.000 107.420,375.745 107.600,375.433 107.600 C 375.122 107.600,374.807 107.735,374.733 107.900 C 374.660 108.065,373.205 108.904,371.500 109.765 C 369.795 110.626,368.400 111.481,368.400 111.665 C 368.400 111.849,368.040 112.000,367.600 112.000 C 367.160 112.000,366.800 112.180,366.800 112.400 C 366.800 112.620,366.440 112.800,366.000 112.800 C 365.560 112.800,365.200 112.980,365.200 113.200 C 365.200 113.420,364.964 113.600,364.675 113.600 C 364.387 113.600,363.764 113.960,363.292 114.400 C 362.820 114.840,362.156 115.200,361.817 115.200 C 361.478 115.200,361.200 115.336,361.200 115.502 C 361.200 115.669,360.660 116.044,360.000 116.336 C 358.160 117.150,358.600 117.985,361.910 119.953 C 363.974 121.180,365.200 123.351,365.200 125.781 C 365.200 128.916,366.650 130.273,368.000 128.400 C 368.317 127.960,368.897 127.600,369.288 127.600 C 369.680 127.600,370.000 127.420,370.000 127.200 C 370.000 126.980,370.360 126.800,370.800 126.800 C 371.240 126.800,371.600 126.620,371.600 126.400 C 371.600 126.180,371.870 126.000,372.200 126.000 C 372.530 126.000,372.800 125.834,372.800 125.632 C 372.800 125.429,373.340 125.145,374.000 125.000 C 374.660 124.855,375.200 124.606,375.200 124.447 C 375.200 124.288,376.097 123.717,377.194 123.179 C 378.290 122.640,379.190 122.065,379.194 121.900 C 379.197 121.735,379.560 121.600,380.000 121.600 C 380.440 121.600,380.800 121.420,380.800 121.200 C 380.800 120.980,381.036 120.800,381.325 120.800 C 381.613 120.800,382.236 120.440,382.708 120.000 C 383.180 119.560,383.844 119.200,384.183 119.200 C 384.522 119.200,384.800 119.020,384.800 118.800 C 384.800 118.580,385.078 118.400,385.417 118.400 C 386.653 118.400,387.625 117.027,387.353 115.667 C 387.214 114.970,386.943 114.400,386.750 114.400 C 386.558 114.400,386.400 114.040,386.400 113.600 C 386.400 113.160,386.220 112.800,386.000 112.800 C 385.780 112.800,385.600 112.530,385.600 112.200 C 385.600 111.870,385.420 111.600,385.200 111.600 C 384.980 111.600,384.800 111.330,384.800 111.000 C 384.800 110.670,384.654 110.400,384.475 110.400 C 384.296 110.400,383.902 109.770,383.600 109.000 C 383.298 108.230,382.948 107.600,382.823 107.600 C 382.698 107.600,382.356 107.060,382.064 106.400 C 381.413 104.929,379.453 104.732,378.092 106.000 M196.667 147.467 C 196.520 147.613,196.400 152.172,196.400 157.597 C 196.400 168.972,196.045 167.947,200.900 170.599 L 203.600 172.073 206.300 170.597 C 210.775 168.150,210.400 169.345,210.400 157.538 L 210.400 147.200 203.667 147.200 C 199.963 147.200,196.813 147.320,196.667 147.467 M103.600 213.580 L 103.600 221.959 104.900 222.923 C 105.615 223.453,107.139 224.405,108.286 225.037 L 110.372 226.187 112.603 224.993 C 113.830 224.337,115.456 223.292,116.217 222.671 L 117.600 221.542 117.600 213.371 L 117.600 205.200 110.600 205.200 L 103.600 205.200 103.600 213.580 M40.081 266.011 C 39.615 266.445,38.956 266.800,38.617 266.800 C 38.278 266.800,38.000 266.980,38.000 267.200 C 38.000 267.420,37.640 267.600,37.200 267.600 C 36.760 267.600,36.400 267.780,36.400 268.000 C 36.400 268.220,36.130 268.400,35.800 268.400 C 35.470 268.400,35.200 268.580,35.200 268.800 C 35.200 269.020,34.930 269.200,34.600 269.200 C 34.270 269.200,34.000 269.380,34.000 269.600 C 34.000 269.820,33.640 270.000,33.200 270.000 C 32.760 270.000,32.400 270.180,32.400 270.400 C 32.400 270.620,32.080 270.800,31.688 270.800 C 31.297 270.800,30.717 271.160,30.400 271.600 C 30.083 272.040,29.503 272.400,29.112 272.400 C 28.720 272.400,28.400 272.580,28.400 272.800 C 28.400 273.020,28.040 273.200,27.600 273.200 C 27.160 273.200,26.800 273.380,26.800 273.600 C 26.800 273.820,26.530 274.000,26.200 274.000 C 25.870 274.000,25.600 274.158,25.600 274.351 C 25.600 274.544,24.745 275.081,23.700 275.545 C 21.402 276.566,19.448 277.692,19.267 278.100 C 19.193 278.265,18.788 278.400,18.367 278.400 C 17.945 278.400,17.600 278.580,17.600 278.800 C 17.600 279.020,17.364 279.200,17.075 279.200 C 16.787 279.200,16.164 279.560,15.692 280.000 C 15.220 280.440,14.556 280.800,14.217 280.800 C 13.764 280.800,13.600 281.225,13.600 282.400 C 13.600 283.280,13.780 284.000,14.000 284.000 C 14.220 284.000,14.400 284.360,14.400 284.800 C 14.400 285.240,14.580 285.600,14.800 285.600 C 15.020 285.600,15.200 285.870,15.200 286.200 C 15.200 286.530,15.380 286.800,15.600 286.800 C 15.820 286.800,16.000 287.070,16.000 287.400 C 16.000 287.730,16.180 288.000,16.400 288.000 C 16.620 288.000,16.800 288.360,16.800 288.800 C 16.800 289.240,16.980 289.600,17.200 289.600 C 17.420 289.600,17.600 289.870,17.600 290.200 C 17.600 290.530,17.736 290.800,17.902 290.800 C 18.069 290.800,18.444 291.340,18.736 292.000 C 19.268 293.203,22.400 293.887,22.400 292.800 C 22.400 292.580,22.670 292.400,23.000 292.400 C 23.330 292.400,23.600 292.234,23.600 292.032 C 23.600 291.829,24.140 291.545,24.800 291.400 C 25.460 291.255,26.003 291.016,26.006 290.868 C 26.010 290.721,26.910 290.160,28.006 289.621 C 29.103 289.083,30.000 288.498,30.000 288.321 C 30.000 288.145,30.360 288.000,30.800 288.000 C 31.240 288.000,31.600 287.820,31.600 287.600 C 31.600 287.380,31.878 287.200,32.217 287.200 C 32.556 287.200,33.220 286.840,33.692 286.400 C 34.164 285.960,34.787 285.600,35.075 285.600 C 35.364 285.600,35.600 285.420,35.600 285.200 C 35.600 284.980,35.960 284.800,36.400 284.800 C 36.840 284.800,37.200 284.620,37.200 284.400 C 37.200 284.180,37.436 284.000,37.725 284.000 C 38.013 284.000,38.636 283.640,39.108 283.200 C 39.580 282.760,40.244 282.400,40.583 282.400 C 40.922 282.400,41.200 282.220,41.200 282.000 C 41.200 281.780,41.470 281.600,41.800 281.600 C 42.130 281.600,42.400 281.420,42.400 281.200 C 42.400 280.980,42.720 280.800,43.112 280.800 C 43.503 280.800,44.083 280.440,44.400 280.000 C 44.717 279.560,45.297 279.200,45.688 279.200 C 46.080 279.200,46.400 279.020,46.400 278.800 C 46.400 278.580,46.760 278.400,47.200 278.400 C 48.710 278.400,48.055 277.038,45.875 275.644 C 42.906 273.745,42.003 272.227,41.987 269.106 C 41.971 265.910,41.321 264.855,40.081 266.011 " stroke="none" fill="#bce3fa" fill-rule="evenodd"></path><path id="path1" d="M170.000 170.755 C 169.010 171.356,167.390 172.287,166.400 172.824 C 165.410 173.361,164.510 173.890,164.400 174.000 C 164.148 174.252,162.669 175.096,160.600 176.170 C 159.720 176.626,158.910 177.103,158.800 177.230 C 158.690 177.356,157.793 177.896,156.807 178.430 C 155.821 178.963,153.481 180.329,151.607 181.465 L 148.200 183.531 148.200 197.631 L 148.200 211.731 149.400 212.415 C 150.060 212.792,152.850 214.400,155.600 215.989 C 158.350 217.579,161.320 219.286,162.200 219.783 C 163.080 220.280,164.450 221.055,165.245 221.506 C 166.040 221.956,167.120 222.567,167.645 222.862 C 168.170 223.158,168.690 223.490,168.800 223.600 C 168.910 223.710,169.450 224.053,170.000 224.362 C 170.550 224.672,171.302 225.112,171.671 225.340 C 172.279 225.717,175.667 224.450,176.400 223.571 C 176.510 223.439,177.590 222.786,178.800 222.120 C 180.010 221.454,182.620 219.962,184.600 218.805 C 188.708 216.405,194.078 213.362,195.700 212.516 L 196.800 211.941 196.800 197.667 C 196.800 181.609,197.158 183.497,193.745 181.562 C 193.005 181.143,191.770 180.440,191.000 180.000 C 189.456 179.118,187.425 177.965,185.955 177.138 C 185.430 176.842,184.910 176.510,184.800 176.399 C 184.690 176.289,184.060 175.935,183.400 175.614 C 182.740 175.292,181.750 174.728,181.200 174.361 C 180.182 173.682,178.623 172.780,174.938 170.741 C 172.456 169.367,172.284 169.368,170.000 170.755 M231.400 171.172 C 230.098 171.947,228.063 173.115,225.700 174.443 C 224.875 174.906,224.020 175.427,223.800 175.600 C 223.580 175.773,222.725 176.294,221.900 176.757 C 221.075 177.221,219.725 177.979,218.900 178.443 C 218.075 178.906,217.220 179.420,217.000 179.585 C 216.780 179.750,215.610 180.420,214.400 181.075 C 213.190 181.730,211.795 182.519,211.300 182.829 L 210.400 183.392 210.400 197.667 L 210.400 211.941 211.500 212.509 C 213.377 213.478,217.268 215.664,220.333 217.471 C 221.946 218.422,223.358 219.200,223.471 219.200 C 223.584 219.200,224.154 219.539,224.738 219.953 C 225.322 220.367,226.475 221.087,227.300 221.553 C 230.781 223.519,231.533 223.952,232.339 224.455 C 233.054 224.901,233.273 224.891,233.731 224.392 C 234.627 223.417,241.806 215.075,242.633 214.047 C 243.055 213.523,243.940 212.528,244.600 211.835 C 245.260 211.143,247.240 208.871,249.000 206.788 C 253.101 201.933,254.021 200.867,255.000 199.831 C 257.227 197.477,257.339 197.722,250.600 190.244 C 250.380 190.000,249.210 188.633,248.000 187.207 C 244.399 182.962,243.838 182.317,242.989 181.439 C 242.543 180.977,241.115 179.340,239.816 177.800 C 233.028 169.751,233.354 170.008,231.400 171.172 M78.400 223.906 C 78.400 224.074,77.725 224.518,76.900 224.894 C 75.391 225.580,73.172 226.828,72.800 227.200 C 72.690 227.310,72.170 227.642,71.645 227.938 C 68.683 229.606,67.679 230.181,63.000 232.893 C 61.680 233.659,59.340 235.009,57.800 235.894 L 55.000 237.503 54.895 251.498 C 54.813 262.391,54.902 265.583,55.295 265.898 C 55.850 266.343,63.055 270.526,70.045 274.462 C 70.570 274.758,71.090 275.090,71.200 275.200 C 71.452 275.452,72.931 276.296,75.000 277.370 C 75.880 277.826,76.690 278.290,76.800 278.400 C 77.839 279.439,79.928 279.897,80.620 279.238 C 80.829 279.038,81.675 278.498,82.500 278.038 C 83.903 277.254,84.868 276.706,88.100 274.856 C 88.815 274.447,90.390 273.521,91.600 272.800 C 92.810 272.079,94.430 271.136,95.200 270.705 C 95.970 270.273,98.175 269.016,100.100 267.911 L 103.600 265.901 103.600 251.643 L 103.600 237.385 101.300 236.092 C 98.085 234.285,95.572 232.840,91.400 230.402 C 89.420 229.244,87.260 227.986,86.600 227.605 C 85.940 227.225,84.590 226.430,83.600 225.839 C 82.610 225.248,81.485 224.662,81.100 224.536 C 80.715 224.410,80.400 224.148,80.400 223.953 C 80.400 223.759,79.950 223.600,79.400 223.600 C 78.850 223.600,78.400 223.738,78.400 223.906 M139.400 224.535 C 138.520 225.011,137.710 225.490,137.600 225.600 C 137.204 225.996,134.985 227.254,134.300 227.471 C 133.915 227.593,133.600 227.852,133.600 228.047 C 133.600 228.241,133.434 228.400,133.232 228.400 C 133.029 228.400,131.274 229.327,129.332 230.459 C 124.590 233.223,121.292 235.132,119.600 236.092 C 118.830 236.528,117.975 237.068,117.700 237.292 C 116.802 238.022,116.994 265.948,117.900 266.288 C 118.285 266.433,120.198 267.507,122.151 268.676 C 124.104 269.844,125.782 270.800,125.879 270.800 C 125.976 270.800,126.808 271.301,127.728 271.912 C 128.648 272.524,129.940 273.283,130.600 273.600 C 131.260 273.917,132.552 274.676,133.472 275.288 C 134.392 275.899,135.337 276.400,135.572 276.400 C 135.807 276.400,136.000 276.580,136.000 276.800 C 136.000 277.020,136.360 277.200,136.800 277.200 C 137.240 277.200,137.603 277.335,137.606 277.500 C 137.610 277.665,138.508 278.239,139.602 278.777 L 141.591 279.753 143.096 278.938 C 145.687 277.534,147.784 276.327,148.200 276.000 C 148.420 275.827,149.275 275.306,150.100 274.843 C 152.516 273.486,154.062 272.593,156.318 271.256 C 157.482 270.565,158.494 270.000,158.565 270.000 C 158.637 270.000,160.294 269.042,162.248 267.871 L 165.800 265.741 165.800 251.601 L 165.800 237.461 159.000 233.525 C 155.260 231.360,151.930 229.471,151.600 229.327 C 151.270 229.183,150.280 228.585,149.400 227.998 C 148.520 227.411,147.215 226.677,146.500 226.368 C 145.785 226.058,145.200 225.669,145.200 225.502 C 145.200 225.336,144.975 225.196,144.700 225.191 C 144.425 225.186,143.750 224.830,143.200 224.400 C 141.957 223.428,141.414 223.447,139.400 224.535 M132.569 254.766 C 132.806 254.958,133.675 255.494,134.500 255.957 C 135.325 256.421,136.605 257.143,137.345 257.562 C 138.085 257.982,139.120 258.567,139.645 258.862 C 140.170 259.158,140.690 259.499,140.800 259.621 C 140.910 259.742,141.631 260.135,142.401 260.493 C 143.172 260.851,144.574 261.703,145.518 262.387 L 147.234 263.629 146.417 264.776 C 145.968 265.407,145.600 266.048,145.600 266.200 C 145.600 266.352,145.261 266.954,144.847 267.538 C 144.060 268.647,142.666 271.026,141.709 272.892 C 140.862 274.544,139.456 274.661,138.000 273.201 C 137.890 273.090,137.080 272.622,136.200 272.160 C 135.320 271.697,132.620 270.166,130.200 268.757 C 127.780 267.347,125.283 265.928,124.652 265.604 C 123.006 264.757,122.901 263.094,124.399 261.600 C 124.600 261.400,126.129 258.595,126.960 256.903 C 127.202 256.410,127.535 256.005,127.700 256.003 C 127.865 256.001,128.000 255.814,128.000 255.586 C 128.000 253.448,130.409 253.016,132.569 254.766 " stroke="none" fill="#fcb443" fill-rule="evenodd"></path><path id="path2" d="M263.832 100.748 C 263.714 100.940,263.095 101.201,262.457 101.329 C 261.818 101.456,261.050 101.806,260.748 102.105 C 260.447 102.404,259.615 102.907,258.900 103.222 C 258.185 103.537,257.600 103.931,257.600 104.098 C 257.600 104.264,257.280 104.400,256.888 104.400 C 256.497 104.400,255.917 104.760,255.600 105.200 C 255.283 105.640,254.703 106.000,254.312 106.000 C 253.920 106.000,253.600 106.180,253.600 106.400 C 253.600 106.620,253.280 106.800,252.888 106.800 C 252.497 106.800,251.917 107.160,251.600 107.600 C 251.283 108.040,250.703 108.400,250.312 108.400 C 249.920 108.400,249.600 108.580,249.600 108.800 C 249.600 109.020,249.358 109.200,249.061 109.200 C 248.508 109.200,245.957 110.356,245.600 110.769 C 245.384 111.018,244.273 111.672,241.900 112.944 C 241.075 113.386,240.400 113.895,240.400 114.074 C 240.400 114.253,240.055 114.400,239.633 114.400 C 239.212 114.400,238.807 114.535,238.733 114.700 C 238.566 115.076,236.436 116.375,235.500 116.671 C 235.115 116.793,234.800 117.052,234.800 117.247 C 234.800 117.441,234.440 117.600,234.000 117.600 C 233.560 117.600,233.200 117.780,233.200 118.000 C 233.200 118.220,232.880 118.400,232.488 118.400 C 232.097 118.400,231.517 118.760,231.200 119.200 C 230.883 119.640,230.393 120.000,230.112 120.000 C 229.830 120.000,229.600 120.152,229.600 120.338 C 229.600 120.524,229.150 121.199,228.600 121.838 L 227.601 123.000 227.600 140.300 C 227.600 152.209,227.468 157.600,227.176 157.600 C 226.943 157.600,226.864 157.780,227.000 158.000 C 227.136 158.220,226.877 158.400,226.424 158.400 C 225.971 158.400,225.600 158.580,225.600 158.800 C 225.600 159.020,225.240 159.200,224.800 159.200 C 224.360 159.200,224.000 159.377,224.000 159.592 C 224.000 159.808,223.507 160.109,222.904 160.260 C 222.301 160.411,221.567 160.776,221.272 161.071 C 220.977 161.366,220.570 161.505,220.368 161.380 C 220.165 161.255,220.000 161.331,220.000 161.549 C 220.000 161.768,219.641 162.060,219.202 162.199 C 218.764 162.338,218.179 162.672,217.902 162.941 C 217.626 163.210,216.733 163.743,215.919 164.125 C 215.104 164.507,214.204 165.047,213.919 165.325 C 213.633 165.603,212.725 166.147,211.900 166.534 C 210.871 167.017,210.400 167.500,210.400 168.072 C 210.400 169.132,209.548 169.856,206.251 171.600 L 203.604 173.000 200.702 171.455 C 197.554 169.780,196.400 168.733,196.400 167.556 C 196.400 167.098,196.119 166.800,195.688 166.800 C 195.297 166.800,194.717 166.440,194.400 166.000 C 194.083 165.560,193.503 165.200,193.112 165.200 C 192.720 165.200,192.400 165.064,192.400 164.898 C 192.400 164.731,191.815 164.346,191.100 164.041 C 190.385 163.736,189.440 163.188,189.000 162.825 C 188.560 162.461,187.660 161.902,187.000 161.582 C 186.340 161.263,185.710 160.911,185.600 160.801 C 185.214 160.414,180.996 158.388,180.588 158.394 C 180.362 158.397,179.917 158.040,179.600 157.600 C 179.283 157.160,178.703 156.800,178.312 156.800 C 177.920 156.800,177.600 156.620,177.600 156.400 C 177.600 156.180,177.240 156.000,176.800 156.000 C 176.360 156.000,176.000 155.820,176.000 155.600 C 176.000 155.380,175.295 155.200,174.433 155.200 C 173.544 155.200,172.787 154.984,172.683 154.700 C 172.537 154.300,172.394 154.300,171.970 154.700 C 171.679 154.975,170.936 155.200,170.320 155.200 C 169.704 155.200,169.200 155.380,169.200 155.600 C 169.200 155.820,168.840 156.000,168.400 156.000 C 167.960 156.000,167.600 156.180,167.600 156.400 C 167.600 156.620,167.240 156.800,166.800 156.800 C 166.360 156.800,166.000 156.936,166.000 157.102 C 166.000 157.269,165.100 157.818,164.000 158.322 C 162.900 158.827,162.000 159.388,162.000 159.570 C 162.000 159.751,161.505 160.000,160.900 160.123 C 160.295 160.245,159.403 160.717,158.917 161.173 C 158.431 161.628,157.771 162.000,157.450 162.000 C 157.129 162.000,156.807 162.135,156.733 162.300 C 156.566 162.676,154.436 163.975,153.500 164.271 C 153.115 164.393,152.800 164.652,152.800 164.847 C 152.800 165.041,152.440 165.200,152.000 165.200 C 151.560 165.200,151.200 165.380,151.200 165.600 C 151.200 165.820,150.880 166.000,150.488 166.000 C 150.097 166.000,149.517 166.360,149.200 166.800 C 148.883 167.240,148.303 167.600,147.912 167.600 C 147.520 167.600,147.200 167.738,147.200 167.906 C 147.200 168.074,146.473 168.526,145.585 168.911 C 144.698 169.295,143.868 169.878,143.743 170.205 C 143.617 170.532,143.174 170.800,142.757 170.800 C 142.341 170.800,142.000 170.980,142.000 171.200 C 142.000 171.420,141.640 171.600,141.200 171.600 C 140.760 171.600,140.400 171.780,140.400 172.000 C 140.400 172.220,140.164 172.400,139.875 172.400 C 139.587 172.400,138.964 172.760,138.492 173.200 C 138.020 173.640,137.433 174.000,137.188 174.000 C 136.537 174.000,135.600 175.045,135.600 175.771 C 135.600 176.117,135.422 176.400,135.204 176.400 C 134.951 176.400,134.771 182.679,134.704 193.856 L 134.600 211.311 132.060 212.856 C 130.663 213.705,129.268 214.400,128.960 214.400 C 128.652 214.400,128.400 214.580,128.400 214.800 C 128.400 215.020,128.212 215.200,127.983 215.200 C 127.754 215.200,127.180 215.560,126.708 216.000 C 126.236 216.440,125.613 216.800,125.325 216.800 C 125.036 216.800,124.800 216.980,124.800 217.200 C 124.800 217.420,124.440 217.600,124.000 217.600 C 123.560 217.600,123.200 217.780,123.200 218.000 C 123.200 218.220,122.880 218.400,122.488 218.400 C 122.097 218.400,121.517 218.760,121.200 219.200 C 120.883 219.640,120.303 220.000,119.912 220.000 C 119.520 220.000,119.200 220.180,119.200 220.400 C 119.200 220.620,118.840 220.800,118.400 220.800 C 117.861 220.800,117.600 221.067,117.600 221.618 C 117.600 222.579,116.292 223.960,114.600 224.786 C 113.940 225.108,112.922 225.693,112.338 226.086 C 111.195 226.855,109.200 227.055,109.200 226.400 C 109.200 226.180,108.840 226.000,108.400 226.000 C 107.960 226.000,107.600 225.820,107.600 225.600 C 107.600 225.380,107.416 225.200,107.191 225.200 C 106.421 225.200,103.600 223.094,103.600 222.518 C 103.600 221.832,102.642 220.800,102.005 220.800 C 101.756 220.800,101.664 220.620,101.800 220.400 C 101.936 220.180,101.677 220.000,101.224 220.000 C 100.771 220.000,100.400 219.820,100.400 219.600 C 100.400 219.380,100.040 219.200,99.600 219.200 C 99.160 219.200,98.800 219.042,98.800 218.849 C 98.800 218.655,98.260 218.273,97.600 218.000 C 96.940 217.727,96.400 217.345,96.400 217.151 C 96.400 216.958,96.040 216.800,95.600 216.800 C 95.160 216.800,94.800 216.620,94.800 216.400 C 94.800 216.180,94.522 216.000,94.183 216.000 C 93.844 216.000,93.180 215.640,92.708 215.200 C 92.236 214.760,91.613 214.400,91.325 214.400 C 91.036 214.400,90.800 214.264,90.800 214.098 C 90.800 213.931,90.215 213.543,89.500 213.235 C 88.785 212.927,87.719 212.340,87.132 211.932 C 84.232 209.919,81.801 208.984,79.600 209.034 C 76.174 209.113,75.927 209.159,76.238 209.662 C 76.412 209.944,76.348 210.015,76.073 209.845 C 75.825 209.692,75.198 209.845,74.679 210.185 C 74.161 210.525,73.616 210.682,73.468 210.535 C 73.321 210.387,73.200 210.455,73.200 210.685 C 73.200 210.915,72.660 211.327,72.000 211.600 C 71.340 211.873,70.800 212.255,70.800 212.449 C 70.800 212.642,70.440 212.800,70.000 212.800 C 69.560 212.800,69.200 212.980,69.200 213.200 C 69.200 213.420,68.880 213.600,68.488 213.600 C 68.097 213.600,67.517 213.960,67.200 214.400 C 66.883 214.840,66.303 215.200,65.912 215.200 C 65.520 215.200,65.200 215.346,65.200 215.525 C 65.200 215.704,64.570 216.098,63.800 216.400 C 63.030 216.702,62.400 217.096,62.400 217.275 C 62.400 217.454,62.130 217.600,61.800 217.600 C 61.470 217.600,61.200 217.780,61.200 218.000 C 61.200 218.220,60.840 218.400,60.400 218.400 C 59.960 218.400,59.600 218.580,59.600 218.800 C 59.600 219.020,59.330 219.200,59.000 219.200 C 58.670 219.200,58.400 219.380,58.400 219.600 C 58.400 219.820,58.080 220.000,57.688 220.000 C 57.297 220.000,56.717 220.360,56.400 220.800 C 56.083 221.240,55.503 221.600,55.112 221.600 C 54.720 221.600,54.400 221.780,54.400 222.000 C 54.400 222.220,54.040 222.400,53.600 222.400 C 53.160 222.400,52.800 222.580,52.800 222.800 C 52.800 223.020,52.564 223.200,52.275 223.200 C 51.987 223.200,51.364 223.560,50.892 224.000 C 50.420 224.440,49.756 224.800,49.417 224.800 C 49.078 224.800,48.800 224.980,48.800 225.200 C 48.800 225.420,48.554 225.600,48.254 225.600 C 47.954 225.600,47.193 226.005,46.564 226.500 C 45.934 226.995,45.373 227.310,45.315 227.200 C 45.130 226.846,42.800 228.973,42.800 229.496 C 42.800 229.773,42.665 230.001,42.500 230.003 C 41.064 230.018,40.375 264.798,41.800 265.345 C 42.240 265.514,42.400 266.208,42.400 267.950 C 42.400 271.342,45.194 275.600,47.420 275.600 C 47.960 275.600,48.800 276.800,48.800 277.571 C 48.800 278.041,49.060 278.400,49.400 278.400 C 49.730 278.400,50.000 278.580,50.000 278.800 C 50.000 279.020,50.270 279.200,50.600 279.200 C 50.930 279.200,51.200 279.380,51.200 279.600 C 51.200 279.820,51.560 280.000,52.000 280.000 C 52.440 280.000,52.800 280.180,52.800 280.400 C 52.800 280.620,53.120 280.800,53.512 280.800 C 53.903 280.800,54.483 281.160,54.800 281.600 C 55.117 282.040,55.697 282.400,56.088 282.400 C 56.480 282.400,56.800 282.580,56.800 282.800 C 56.800 283.020,57.160 283.200,57.600 283.200 C 58.040 283.200,58.400 283.380,58.400 283.600 C 58.400 283.820,58.636 284.000,58.925 284.000 C 59.213 284.000,59.836 284.360,60.308 284.800 C 60.780 285.240,61.354 285.600,61.583 285.600 C 61.812 285.600,62.000 285.780,62.000 286.000 C 62.000 286.220,62.345 286.400,62.767 286.400 C 63.188 286.400,63.593 286.535,63.667 286.700 C 63.834 287.076,65.964 288.375,66.900 288.671 C 67.285 288.793,67.600 289.052,67.600 289.247 C 67.600 289.441,67.945 289.600,68.367 289.600 C 68.788 289.600,69.193 289.735,69.267 289.900 C 69.477 290.373,71.856 291.600,72.562 291.600 C 72.913 291.600,73.200 291.780,73.200 292.000 C 73.200 292.220,73.520 292.400,73.912 292.400 C 74.303 292.400,74.883 292.760,75.200 293.200 C 75.836 294.083,83.543 294.478,83.000 293.600 C 82.864 293.380,83.033 293.200,83.376 293.200 C 83.719 293.200,84.000 293.020,84.000 292.800 C 84.000 292.580,84.360 292.400,84.800 292.400 C 85.240 292.400,85.600 292.220,85.600 292.000 C 85.600 291.780,85.918 291.600,86.307 291.600 C 86.696 291.600,87.677 291.150,88.486 290.600 C 89.295 290.050,90.147 289.600,90.379 289.600 C 90.610 289.600,90.800 289.420,90.800 289.200 C 90.800 288.980,91.160 288.800,91.600 288.800 C 92.040 288.800,92.400 288.620,92.400 288.400 C 92.400 288.180,92.636 288.000,92.925 288.000 C 93.213 288.000,93.836 287.640,94.308 287.200 C 94.780 286.760,95.444 286.400,95.783 286.400 C 96.122 286.400,96.400 286.220,96.400 286.000 C 96.400 285.780,96.760 285.600,97.200 285.600 C 97.640 285.600,98.000 285.442,98.000 285.249 C 98.000 285.055,98.540 284.673,99.200 284.400 C 99.860 284.127,100.400 283.745,100.400 283.551 C 100.400 283.358,100.760 283.200,101.200 283.200 C 101.640 283.200,102.000 283.020,102.000 282.800 C 102.000 282.580,102.320 282.400,102.712 282.400 C 103.103 282.400,103.683 282.040,104.000 281.600 C 104.317 281.160,104.897 280.800,105.288 280.800 C 105.680 280.800,106.000 280.664,106.000 280.498 C 106.000 280.331,106.506 279.971,107.125 279.697 C 107.744 279.424,108.636 278.840,109.108 278.400 C 110.034 277.537,110.800 277.356,110.800 278.000 C 110.800 278.220,111.070 278.400,111.400 278.400 C 111.730 278.400,112.000 278.580,112.000 278.800 C 112.000 279.020,112.360 279.200,112.800 279.200 C 113.240 279.200,113.600 279.380,113.600 279.600 C 113.600 279.820,113.836 280.000,114.125 280.000 C 114.413 280.000,115.036 280.360,115.508 280.800 C 115.980 281.240,116.644 281.600,116.983 281.600 C 117.322 281.600,117.600 281.780,117.600 282.000 C 117.600 282.220,117.920 282.400,118.312 282.400 C 118.703 282.400,119.283 282.760,119.600 283.200 C 119.917 283.640,120.497 284.000,120.888 284.000 C 121.280 284.000,121.600 284.180,121.600 284.400 C 121.600 284.620,121.960 284.800,122.400 284.800 C 122.840 284.800,123.200 284.980,123.200 285.200 C 123.200 285.420,123.520 285.600,123.912 285.600 C 124.303 285.600,124.883 285.960,125.200 286.400 C 125.517 286.840,126.097 287.200,126.488 287.200 C 126.880 287.200,127.200 287.380,127.200 287.600 C 127.200 287.820,127.455 288.000,127.767 288.000 C 128.078 288.000,128.393 288.135,128.467 288.300 C 128.648 288.708,130.602 289.834,132.900 290.855 C 133.945 291.319,134.800 291.856,134.800 292.049 C 134.800 292.242,135.160 292.400,135.600 292.400 C 136.040 292.400,136.400 292.580,136.400 292.800 C 136.400 293.020,136.760 293.200,137.200 293.200 C 137.640 293.200,138.000 293.380,138.000 293.600 C 138.000 293.835,139.400 294.000,141.400 294.000 C 143.400 294.000,144.800 293.835,144.800 293.600 C 144.800 293.380,145.160 293.200,145.600 293.200 C 146.040 293.200,146.400 293.020,146.400 292.800 C 146.400 292.580,146.745 292.400,147.167 292.400 C 147.588 292.400,147.993 292.257,148.067 292.082 C 148.140 291.908,149.595 291.061,151.300 290.201 C 153.005 289.341,154.400 288.528,154.400 288.393 C 154.400 288.259,155.030 287.902,155.800 287.600 C 156.570 287.298,157.200 286.904,157.200 286.725 C 157.200 286.546,157.436 286.400,157.725 286.400 C 158.013 286.400,158.636 286.040,159.108 285.600 C 159.580 285.160,160.244 284.800,160.583 284.800 C 160.922 284.800,161.200 284.620,161.200 284.400 C 161.200 284.180,161.560 284.000,162.000 284.000 C 162.440 284.000,162.800 283.820,162.800 283.600 C 162.800 283.380,163.070 283.200,163.400 283.200 C 163.730 283.200,164.000 283.020,164.000 282.800 C 164.000 282.580,164.270 282.400,164.600 282.400 C 164.930 282.400,165.200 282.220,165.200 282.000 C 165.200 281.780,165.560 281.600,166.000 281.600 C 166.440 281.600,166.800 281.420,166.800 281.200 C 166.800 280.980,167.120 280.800,167.512 280.800 C 167.903 280.800,168.483 280.440,168.800 280.000 C 169.117 279.560,169.697 279.200,170.088 279.200 C 170.480 279.200,170.800 279.020,170.800 278.800 C 170.800 278.580,171.160 278.400,171.600 278.400 C 172.040 278.400,172.400 278.220,172.400 278.000 C 172.400 277.780,172.670 277.600,173.000 277.600 C 173.330 277.600,173.600 277.420,173.600 277.200 C 173.600 276.980,173.870 276.800,174.200 276.800 C 174.530 276.800,174.800 276.620,174.800 276.400 C 174.800 276.180,174.993 276.000,175.229 276.000 C 175.464 276.000,175.892 275.775,176.180 275.500 C 176.467 275.225,177.084 274.735,177.551 274.412 C 178.018 274.088,178.400 273.593,178.400 273.312 C 178.400 273.030,178.580 272.800,178.800 272.800 C 179.060 272.800,179.200 266.782,179.200 255.547 C 179.200 236.548,179.091 237.396,181.648 236.585 C 182.061 236.454,182.400 236.178,182.400 235.973 C 182.400 235.768,182.745 235.600,183.167 235.600 C 183.588 235.600,183.993 235.465,184.067 235.300 C 184.234 234.924,186.364 233.625,187.300 233.329 C 187.685 233.207,188.000 232.948,188.000 232.753 C 188.000 232.559,188.360 232.400,188.800 232.400 C 189.240 232.400,189.600 232.220,189.600 232.000 C 189.600 231.780,189.830 231.600,190.112 231.600 C 190.393 231.600,190.883 231.240,191.200 230.800 C 191.517 230.360,192.097 230.000,192.488 230.000 C 192.880 230.000,193.200 229.820,193.200 229.600 C 193.200 229.380,193.560 229.200,194.000 229.200 C 194.440 229.200,194.800 229.020,194.800 228.800 C 194.800 228.580,195.036 228.400,195.325 228.400 C 195.613 228.400,196.236 228.040,196.708 227.600 C 197.180 227.160,197.844 226.800,198.183 226.800 C 198.522 226.800,198.800 226.620,198.800 226.400 C 198.800 226.180,199.145 226.000,199.567 226.000 C 199.988 226.000,200.393 225.865,200.467 225.700 C 201.212 224.024,206.800 224.003,206.800 225.677 C 206.800 225.855,207.160 226.000,207.600 226.000 C 208.040 226.000,208.400 226.146,208.400 226.325 C 208.400 226.504,209.030 226.898,209.800 227.200 C 210.570 227.502,211.200 227.896,211.200 228.075 C 211.200 228.254,211.481 228.400,211.824 228.400 C 212.167 228.400,212.336 228.580,212.200 228.800 C 212.064 229.020,212.323 229.200,212.776 229.200 C 213.229 229.200,213.600 229.380,213.600 229.600 C 213.600 229.820,213.878 230.000,214.217 230.000 C 214.556 230.000,215.220 230.360,215.692 230.800 C 216.164 231.240,216.787 231.600,217.075 231.600 C 217.364 231.600,217.600 231.780,217.600 232.000 C 217.600 232.220,217.960 232.400,218.400 232.400 C 218.840 232.400,219.200 232.580,219.200 232.800 C 219.200 233.020,219.478 233.200,219.817 233.200 C 220.156 233.200,220.820 233.560,221.292 234.000 C 221.764 234.440,222.387 234.800,222.675 234.800 C 222.964 234.800,223.200 234.980,223.200 235.200 C 223.200 235.420,223.560 235.600,224.000 235.600 C 224.440 235.600,224.800 235.780,224.800 236.000 C 224.800 236.220,225.036 236.400,225.325 236.400 C 225.613 236.400,226.198 236.725,226.625 237.122 C 227.051 237.520,227.985 238.103,228.700 238.420 C 229.415 238.736,230.000 239.131,230.000 239.298 C 230.000 239.464,230.349 239.600,230.776 239.600 C 231.203 239.600,231.664 239.780,231.800 240.000 C 232.310 240.826,237.183 240.466,238.538 239.503 C 239.898 238.537,241.567 236.785,241.587 236.303 C 241.594 236.139,242.680 234.908,244.000 233.568 C 245.320 232.227,246.400 230.956,246.400 230.743 C 246.400 230.530,247.480 229.296,248.800 228.000 C 250.120 226.704,251.200 225.530,251.200 225.391 C 251.200 225.251,251.887 224.476,252.727 223.669 C 253.567 222.861,254.938 221.300,255.773 220.200 C 257.405 218.050,257.637 217.779,259.788 215.513 C 260.565 214.696,261.200 213.832,261.200 213.594 C 261.200 213.356,262.460 211.919,264.000 210.400 C 265.540 208.881,266.800 207.520,266.800 207.376 C 266.800 207.231,267.790 206.123,269.000 204.913 C 270.210 203.703,271.200 202.565,271.200 202.385 C 271.200 202.205,271.498 201.759,271.863 201.394 C 272.678 200.579,272.855 194.352,272.071 194.090 C 271.812 194.004,271.600 193.754,271.600 193.535 C 271.600 193.316,270.880 192.446,270.000 191.600 C 269.120 190.754,268.400 189.869,268.400 189.631 C 268.400 189.394,268.220 189.200,268.000 189.200 C 267.780 189.200,267.600 189.010,267.600 188.778 C 267.600 188.546,266.520 187.296,265.200 186.000 C 263.880 184.704,262.800 183.443,262.800 183.196 C 262.800 182.950,261.939 181.905,260.888 180.874 C 259.836 179.843,258.441 178.280,257.788 177.400 C 257.134 176.520,255.745 174.957,254.700 173.926 C 253.655 172.895,252.800 171.876,252.800 171.661 C 252.800 171.446,251.720 170.173,250.400 168.832 C 249.080 167.492,248.000 166.230,248.000 166.028 C 248.000 165.826,246.740 164.386,245.200 162.828 C 243.660 161.269,242.400 159.816,242.400 159.597 C 242.400 159.379,242.220 159.200,242.000 159.200 C 241.740 159.200,241.600 153.933,241.600 144.200 C 241.600 129.467,241.614 129.200,242.400 129.200 C 242.840 129.200,243.200 129.020,243.200 128.800 C 243.200 128.580,243.520 128.400,243.912 128.400 C 244.303 128.400,244.883 128.040,245.200 127.600 C 245.517 127.160,246.097 126.800,246.488 126.800 C 246.880 126.800,247.200 126.620,247.200 126.400 C 247.200 126.180,247.560 126.000,248.000 126.000 C 248.440 126.000,248.800 125.834,248.800 125.632 C 248.800 125.429,249.340 125.145,250.000 125.000 C 250.660 124.855,251.200 124.571,251.200 124.368 C 251.200 124.166,251.377 124.000,251.593 124.000 C 251.809 124.000,253.114 123.322,254.493 122.494 C 255.872 121.666,257.540 120.722,258.200 120.397 C 258.860 120.072,259.691 119.489,260.047 119.103 C 260.403 118.716,260.988 118.400,261.347 118.400 C 261.706 118.400,262.000 118.220,262.000 118.000 C 262.000 117.780,262.278 117.600,262.617 117.600 C 262.956 117.600,263.620 117.240,264.092 116.800 C 264.564 116.360,265.327 116.000,265.787 116.000 C 266.247 116.000,266.883 116.360,267.200 116.800 C 267.517 117.240,268.097 117.600,268.488 117.600 C 268.880 117.600,269.200 117.780,269.200 118.000 C 269.200 118.220,269.560 118.400,270.000 118.400 C 270.440 118.400,270.800 118.580,270.800 118.800 C 270.800 119.020,271.120 119.200,271.512 119.200 C 271.903 119.200,272.483 119.560,272.800 120.000 C 273.117 120.440,273.697 120.800,274.088 120.800 C 274.480 120.800,274.800 120.980,274.800 121.200 C 274.800 121.420,275.160 121.600,275.600 121.600 C 276.040 121.600,276.400 121.752,276.400 121.938 C 276.400 122.123,277.750 122.978,279.399 123.838 C 281.049 124.697,282.399 125.535,282.399 125.700 C 282.400 125.865,282.760 126.000,283.200 126.000 C 283.640 126.000,284.000 126.180,284.000 126.400 C 284.000 126.620,284.360 126.800,284.800 126.800 C 285.240 126.800,285.600 126.980,285.600 127.200 C 285.600 127.420,285.920 127.600,286.312 127.600 C 286.703 127.600,287.283 127.960,287.600 128.400 C 287.917 128.840,288.497 129.200,288.888 129.200 C 289.280 129.200,289.600 129.380,289.600 129.600 C 289.600 129.820,289.960 130.000,290.400 130.000 C 290.840 130.000,291.200 130.147,291.200 130.326 C 291.200 130.505,291.937 131.045,292.838 131.526 C 294.575 132.453,299.600 132.806,299.600 132.000 C 299.600 131.780,299.960 131.600,300.400 131.600 C 300.840 131.600,301.200 131.420,301.200 131.200 C 301.200 130.980,301.560 130.800,302.000 130.800 C 302.440 130.800,302.800 130.620,302.800 130.400 C 302.800 130.180,303.070 130.000,303.400 130.000 C 303.730 130.000,304.000 129.820,304.000 129.600 C 304.000 129.380,304.270 129.200,304.600 129.200 C 304.930 129.200,305.200 129.020,305.200 128.800 C 305.200 128.580,305.560 128.400,306.000 128.400 C 306.440 128.400,306.800 128.264,306.800 128.098 C 306.800 127.931,307.306 127.571,307.925 127.297 C 308.544 127.024,309.436 126.440,309.908 126.000 C 310.380 125.560,310.975 125.200,311.229 125.200 C 311.811 125.200,315.753 123.105,315.933 122.700 C 316.007 122.535,316.412 122.400,316.833 122.400 C 317.255 122.400,317.600 122.220,317.600 122.000 C 317.600 121.780,317.836 121.600,318.125 121.600 C 318.413 121.600,319.036 121.240,319.508 120.800 C 319.980 120.360,320.644 120.000,320.983 120.000 C 321.322 120.000,321.600 119.864,321.600 119.698 C 321.600 119.531,322.185 119.140,322.900 118.828 C 323.615 118.516,324.491 117.932,324.847 117.530 C 325.203 117.129,325.788 116.800,326.147 116.800 C 326.506 116.800,326.800 116.620,326.800 116.400 C 326.800 116.180,327.160 116.000,327.600 116.000 C 328.040 116.000,328.400 116.180,328.400 116.400 C 328.400 116.620,328.760 116.800,329.200 116.800 C 329.640 116.800,330.000 116.980,330.000 117.200 C 330.000 117.420,330.278 117.600,330.617 117.600 C 330.956 117.600,331.620 117.960,332.092 118.400 C 332.564 118.840,333.187 119.200,333.475 119.200 C 333.764 119.200,334.000 119.380,334.000 119.600 C 334.000 119.820,334.360 120.000,334.800 120.000 C 335.240 120.000,335.600 120.159,335.600 120.353 C 335.600 120.548,335.915 120.807,336.300 120.929 C 337.236 121.225,339.366 122.524,339.533 122.900 C 339.607 123.065,339.914 123.200,340.216 123.200 C 340.517 123.200,341.428 123.650,342.238 124.200 C 343.049 124.750,343.957 125.200,344.256 125.200 C 344.555 125.200,344.800 125.380,344.800 125.600 C 344.800 125.820,345.160 126.000,345.600 126.000 C 346.040 126.000,346.400 126.180,346.400 126.400 C 346.400 126.620,346.670 126.800,347.000 126.800 C 347.330 126.800,347.600 126.980,347.600 127.200 C 347.600 127.420,347.870 127.600,348.200 127.600 C 348.530 127.600,348.800 127.780,348.800 128.000 C 348.800 128.220,349.160 128.400,349.600 128.400 C 350.040 128.400,350.400 128.580,350.400 128.800 C 350.400 129.020,350.760 129.200,351.200 129.200 C 351.987 129.200,352.000 129.467,352.000 145.600 L 352.000 162.000 359.000 162.000 L 366.000 162.000 366.000 145.896 C 366.000 130.226,365.978 129.779,365.200 129.293 C 364.541 128.882,364.400 128.360,364.400 126.344 C 364.400 123.180,363.475 121.657,360.549 120.006 C 358.592 118.902,358.355 118.634,358.570 117.776 C 358.718 117.189,358.642 116.800,358.380 116.800 C 358.140 116.800,357.192 116.289,356.272 115.665 C 355.352 115.041,354.015 114.277,353.300 113.968 C 352.585 113.658,352.000 113.290,352.000 113.151 C 352.000 113.011,351.460 112.673,350.800 112.400 C 350.140 112.127,349.600 111.745,349.600 111.551 C 349.600 111.358,349.240 111.200,348.800 111.200 C 348.360 111.200,348.000 111.020,348.000 110.800 C 348.000 110.580,347.653 110.400,347.229 110.400 C 346.804 110.400,346.212 110.175,345.913 109.900 C 345.063 109.118,343.670 108.400,343.005 108.400 C 342.672 108.400,342.400 108.220,342.400 108.000 C 342.400 107.780,342.130 107.600,341.800 107.600 C 341.470 107.600,341.200 107.420,341.200 107.200 C 341.200 106.980,340.930 106.800,340.600 106.800 C 340.270 106.800,340.000 106.620,340.000 106.400 C 340.000 106.180,339.730 106.000,339.400 106.000 C 339.070 106.000,338.800 105.820,338.800 105.600 C 338.800 105.380,338.440 105.200,338.000 105.200 C 337.560 105.200,337.200 105.020,337.200 104.800 C 337.200 104.580,336.930 104.400,336.600 104.400 C 336.270 104.400,336.000 104.220,336.000 104.000 C 336.000 103.780,335.730 103.600,335.400 103.600 C 335.070 103.600,334.800 103.420,334.800 103.200 C 334.800 102.980,334.440 102.800,334.000 102.800 C 333.560 102.800,333.200 102.620,333.200 102.400 C 333.200 102.180,332.840 102.000,332.400 102.000 C 331.960 102.000,331.600 101.820,331.600 101.600 C 331.600 101.380,331.240 101.200,330.800 101.200 C 330.360 101.200,330.000 101.020,330.000 100.800 C 330.000 100.580,329.111 100.400,328.024 100.400 C 326.937 100.400,325.936 100.580,325.800 100.800 C 325.664 101.020,325.203 101.200,324.776 101.200 C 324.349 101.200,324.000 101.380,324.000 101.600 C 324.000 101.820,323.640 102.000,323.200 102.000 C 322.760 102.000,322.400 102.180,322.400 102.400 C 322.400 102.620,322.080 102.800,321.688 102.800 C 321.297 102.800,320.717 103.160,320.400 103.600 C 320.083 104.040,319.503 104.400,319.112 104.400 C 318.720 104.400,318.400 104.580,318.400 104.800 C 318.400 105.020,318.040 105.200,317.600 105.200 C 317.160 105.200,316.800 105.380,316.800 105.600 C 316.800 105.820,316.530 106.000,316.200 106.000 C 315.870 106.000,315.600 106.180,315.600 106.400 C 315.600 106.620,315.330 106.800,315.000 106.800 C 314.670 106.800,314.400 106.980,314.400 107.200 C 314.400 107.420,314.040 107.600,313.600 107.600 C 313.160 107.600,312.800 107.780,312.800 108.000 C 312.800 108.220,312.530 108.400,312.200 108.400 C 311.870 108.400,311.600 108.540,311.600 108.712 C 311.600 108.884,310.700 109.373,309.600 109.800 C 308.500 110.227,307.600 110.695,307.600 110.840 C 307.600 110.984,307.060 111.327,306.400 111.600 C 305.740 111.873,305.200 112.255,305.200 112.449 C 305.200 112.642,304.855 112.800,304.433 112.800 C 304.012 112.800,303.607 112.935,303.533 113.100 C 303.366 113.476,301.236 114.775,300.300 115.071 C 299.915 115.193,299.600 115.452,299.600 115.647 C 299.600 115.841,299.240 116.000,298.800 116.000 C 298.360 116.000,298.000 116.180,298.000 116.400 C 298.000 116.620,297.586 116.800,297.080 116.800 C 296.026 116.800,294.008 115.947,294.003 115.500 C 294.001 115.335,293.722 115.200,293.383 115.200 C 293.044 115.200,292.380 114.840,291.908 114.400 C 291.436 113.960,290.813 113.600,290.525 113.600 C 290.236 113.600,290.000 113.464,290.000 113.298 C 290.000 113.131,289.415 112.745,288.700 112.439 C 287.985 112.134,287.130 111.663,286.800 111.394 C 285.688 110.485,282.349 108.784,282.046 108.972 C 281.881 109.074,281.493 108.807,281.185 108.379 C 280.876 107.950,280.303 107.600,279.912 107.600 C 279.520 107.600,279.200 107.420,279.200 107.200 C 279.200 106.980,278.840 106.800,278.400 106.800 C 277.960 106.800,277.600 106.620,277.600 106.400 C 277.600 106.180,277.280 106.000,276.888 106.000 C 276.497 106.000,275.917 105.640,275.600 105.200 C 275.283 104.760,274.703 104.400,274.312 104.400 C 273.920 104.400,273.600 104.220,273.600 104.000 C 273.600 103.780,273.330 103.600,273.000 103.600 C 272.670 103.600,272.400 103.420,272.400 103.200 C 272.400 102.980,272.130 102.800,271.800 102.800 C 271.470 102.800,271.200 102.620,271.200 102.400 C 271.200 102.180,270.930 102.000,270.600 102.000 C 270.270 102.000,270.000 101.820,270.000 101.600 C 270.000 101.380,269.460 101.200,268.800 101.200 C 268.140 101.200,267.600 101.020,267.600 100.800 C 267.600 100.310,264.132 100.262,263.832 100.748 M176.686 171.061 C 178.839 172.305,181.185 173.655,181.900 174.061 C 182.615 174.468,183.830 175.160,184.600 175.600 C 185.370 176.040,186.606 176.743,187.347 177.163 C 188.087 177.583,189.906 178.663,191.388 179.563 C 192.869 180.463,194.157 181.200,194.249 181.200 C 194.342 181.200,195.136 181.675,196.014 182.256 L 197.610 183.313 197.505 197.719 L 197.400 212.126 188.600 217.261 C 183.760 220.085,179.170 222.702,178.400 223.077 C 177.630 223.452,176.910 223.870,176.800 224.006 C 175.883 225.139,172.195 226.358,171.352 225.805 C 170.856 225.481,169.810 224.852,169.026 224.408 C 168.241 223.963,167.015 223.262,166.300 222.850 C 165.585 222.437,161.310 219.986,156.800 217.403 C 152.290 214.821,148.375 212.526,148.100 212.305 C 147.717 211.996,147.600 208.525,147.600 197.425 L 147.600 182.948 148.900 182.283 C 149.615 181.918,151.010 181.139,152.000 180.553 C 153.868 179.446,155.344 178.596,157.900 177.153 C 158.725 176.687,159.878 175.967,160.462 175.553 C 161.046 175.139,161.634 174.800,161.769 174.800 C 161.904 174.800,163.200 174.080,164.648 173.200 C 166.097 172.320,167.344 171.600,167.421 171.600 C 167.497 171.600,168.604 170.970,169.880 170.201 C 172.744 168.474,172.057 168.387,176.686 171.061 M235.658 172.100 C 236.833 173.475,237.886 174.690,237.998 174.800 C 238.109 174.910,238.830 175.733,239.600 176.628 C 240.370 177.524,242.008 179.414,243.240 180.828 C 248.104 186.413,252.129 191.048,252.944 192.005 C 253.415 192.557,254.565 193.887,255.500 194.961 C 257.821 197.625,257.835 197.550,254.262 201.600 C 253.777 202.150,251.049 205.300,248.201 208.600 C 245.352 211.900,242.924 214.690,242.804 214.800 C 242.685 214.910,242.072 215.630,241.443 216.400 C 240.814 217.170,239.239 218.994,237.944 220.454 C 236.648 221.913,235.218 223.578,234.765 224.154 C 233.790 225.393,232.577 225.477,231.200 224.400 C 230.650 223.970,230.073 223.614,229.918 223.609 C 229.762 223.604,228.682 223.035,227.518 222.344 C 226.353 221.653,224.815 220.753,224.100 220.344 C 223.385 219.935,222.215 219.263,221.500 218.850 C 220.382 218.206,214.904 215.060,211.000 212.820 L 209.800 212.131 209.695 197.722 L 209.590 183.313 211.186 182.256 C 212.064 181.675,212.858 181.200,212.951 181.200 C 213.043 181.200,214.331 180.463,215.812 179.563 C 217.294 178.663,219.113 177.583,219.853 177.163 C 221.358 176.310,221.883 176.009,228.400 172.257 C 233.933 169.071,233.085 169.090,235.658 172.100 M81.000 223.625 C 81.524 224.019,90.049 228.970,95.500 232.046 C 100.025 234.600,103.835 236.951,104.094 237.348 C 104.641 238.189,104.457 265.375,103.900 266.073 C 103.411 266.685,102.110 267.480,94.200 272.000 C 93.430 272.440,92.170 273.160,91.400 273.600 C 90.630 274.040,89.394 274.743,88.653 275.163 C 87.913 275.583,86.157 276.618,84.752 277.463 C 83.347 278.308,81.546 279.343,80.750 279.763 L 79.303 280.526 77.552 279.530 C 76.588 278.982,75.125 278.143,74.300 277.667 C 73.475 277.190,72.170 276.440,71.400 276.000 C 67.711 273.892,61.217 270.107,58.600 268.540 C 57.720 268.013,56.415 267.282,55.700 266.917 L 54.400 266.252 54.400 251.735 L 54.400 237.218 55.300 236.669 C 57.079 235.584,63.841 231.678,65.800 230.604 C 66.900 230.001,68.278 229.169,68.862 228.754 C 69.446 228.339,70.023 228.000,70.144 228.000 C 70.266 228.000,71.318 227.435,72.482 226.744 C 75.278 225.086,77.187 223.988,78.350 223.369 C 79.256 222.886,80.130 222.971,81.000 223.625 M144.133 224.255 C 147.095 226.001,149.110 227.159,152.845 229.262 C 153.370 229.558,153.890 229.899,154.000 230.021 C 154.110 230.142,154.830 230.549,155.600 230.925 C 156.370 231.301,159.070 232.825,161.600 234.313 L 166.200 237.017 166.303 251.608 L 166.407 266.200 161.556 269.000 C 158.889 270.540,155.962 272.230,155.053 272.757 C 154.144 273.283,152.815 274.048,152.100 274.457 C 151.385 274.865,150.215 275.535,149.500 275.943 C 148.785 276.352,147.390 277.166,146.400 277.752 C 145.410 278.338,143.864 279.196,142.963 279.658 L 141.327 280.498 137.363 278.195 C 135.184 276.928,132.410 275.349,131.200 274.685 C 129.990 274.021,128.550 273.175,128.000 272.804 C 127.450 272.433,126.730 272.015,126.400 271.874 C 126.070 271.733,123.730 270.395,121.200 268.900 L 116.600 266.183 116.600 251.648 L 116.600 237.112 120.400 234.904 C 124.378 232.593,125.877 231.728,128.200 230.400 C 128.970 229.960,130.230 229.240,131.000 228.800 C 131.770 228.360,133.075 227.621,133.900 227.157 C 134.725 226.694,135.580 226.170,135.800 225.993 C 136.226 225.651,141.309 222.829,141.533 222.811 C 141.606 222.805,142.776 223.455,144.133 224.255 M128.676 255.300 C 128.307 256.015,127.684 257.140,127.293 257.800 C 124.131 263.138,123.581 264.109,123.683 264.174 C 125.731 265.476,128.774 267.267,132.600 269.422 C 135.240 270.909,138.061 272.540,138.869 273.048 L 140.338 273.971 141.226 272.485 C 141.715 271.668,142.656 270.010,143.318 268.800 C 143.980 267.590,144.868 266.104,145.290 265.498 C 146.352 263.974,146.089 263.282,144.000 262.103 C 141.087 260.459,139.927 259.787,137.600 258.400 C 129.241 253.416,129.588 253.536,128.676 255.300 " stroke="none" fill="#ec9c2c" fill-rule="evenodd"></path><path id="path3" d="M358.800 118.136 C 358.800 118.431,359.655 119.141,360.700 119.713 C 363.843 121.433,364.800 123.039,364.800 126.595 C 364.800 128.670,364.925 129.200,365.414 129.200 C 365.897 129.200,365.940 129.035,365.614 128.426 C 365.386 128.001,365.200 126.810,365.200 125.781 C 365.200 123.351,363.974 121.180,361.910 119.953 C 361.029 119.429,359.969 118.685,359.554 118.300 C 359.005 117.790,358.800 117.746,358.800 118.136 M196.400 167.669 C 196.400 168.252,198.057 169.604,200.200 170.770 C 201.520 171.489,202.825 172.261,203.100 172.487 C 203.442 172.768,203.758 172.768,204.100 172.487 C 204.375 172.261,205.680 171.486,207.000 170.764 C 209.318 169.497,210.400 168.694,210.400 168.241 C 210.400 168.122,209.725 168.486,208.900 169.050 C 208.075 169.614,206.532 170.518,205.472 171.059 L 203.543 172.042 200.872 170.583 C 199.402 169.781,197.795 168.750,197.300 168.292 C 196.805 167.835,196.400 167.554,196.400 167.669 M116.120 222.716 C 115.416 223.312,113.834 224.337,112.606 224.993 L 110.372 226.187 108.286 225.037 C 107.139 224.405,105.615 223.453,104.900 222.923 C 104.185 222.393,103.600 222.126,103.600 222.331 C 103.600 222.801,104.212 223.297,106.100 224.357 C 106.925 224.821,108.230 225.557,108.999 225.993 L 110.398 226.785 112.299 225.743 C 115.807 223.820,116.808 223.133,117.219 222.364 C 117.743 221.385,117.662 221.411,116.120 222.716 M41.520 266.080 C 41.792 266.352,42.000 267.655,42.000 269.086 C 42.000 272.130,42.900 273.753,45.503 275.400 C 46.461 276.006,47.504 276.762,47.822 277.079 C 48.140 277.397,48.400 277.473,48.400 277.249 C 48.400 276.831,45.949 274.800,45.444 274.800 C 45.058 274.800,43.508 273.144,42.900 272.083 C 42.625 271.603,42.400 270.233,42.400 269.038 C 42.400 266.613,42.128 265.600,41.477 265.600 C 41.185 265.600,41.199 265.759,41.520 266.080 " stroke="none" fill="#d8b884" fill-rule="evenodd"></path><path id="path4" d="M364.520 126.800 C 364.520 128.010,364.595 128.505,364.687 127.900 C 364.778 127.295,364.778 126.305,364.687 125.700 C 364.595 125.095,364.520 125.590,364.520 126.800 M169.880 170.201 C 168.604 170.970,167.497 171.600,167.421 171.600 C 167.344 171.600,166.097 172.320,164.648 173.200 C 163.200 174.080,161.904 174.800,161.769 174.800 C 161.634 174.800,161.046 175.139,160.462 175.553 C 159.878 175.967,158.725 176.687,157.900 177.153 C 155.344 178.596,153.868 179.446,152.000 180.553 C 151.010 181.139,149.615 181.918,148.900 182.283 L 147.600 182.948 147.600 197.425 C 147.600 208.525,147.717 211.996,148.100 212.305 C 148.375 212.526,152.290 214.821,156.800 217.403 C 161.310 219.986,165.585 222.437,166.300 222.850 C 167.015 223.262,168.241 223.963,169.026 224.408 C 169.810 224.852,170.856 225.481,171.352 225.805 C 172.195 226.358,175.883 225.139,176.800 224.006 C 176.910 223.870,177.630 223.452,178.400 223.077 C 179.170 222.702,183.760 220.085,188.600 217.261 L 197.400 212.126 197.505 197.719 L 197.610 183.313 196.014 182.256 C 195.136 181.675,194.342 181.200,194.249 181.200 C 194.157 181.200,192.869 180.463,191.388 179.563 C 189.906 178.663,188.087 177.583,187.347 177.163 C 186.606 176.743,185.370 176.040,184.600 175.600 C 183.830 175.160,182.615 174.468,181.900 174.061 C 181.185 173.655,178.839 172.305,176.686 171.061 C 172.057 168.387,172.744 168.474,169.880 170.201 M174.938 170.741 C 178.623 172.780,180.182 173.682,181.200 174.361 C 181.750 174.728,182.740 175.292,183.400 175.614 C 184.060 175.935,184.690 176.289,184.800 176.399 C 184.910 176.510,185.430 176.842,185.955 177.138 C 187.425 177.965,189.456 179.118,191.000 180.000 C 191.770 180.440,193.005 181.143,193.745 181.562 C 197.158 183.497,196.800 181.609,196.800 197.667 L 196.800 211.941 195.700 212.516 C 194.078 213.362,188.708 216.405,184.600 218.805 C 182.620 219.962,180.010 221.454,178.800 222.120 C 177.590 222.786,176.510 223.439,176.400 223.571 C 175.667 224.450,172.279 225.717,171.671 225.340 C 171.302 225.112,170.550 224.672,170.000 224.362 C 169.450 224.053,168.910 223.710,168.800 223.600 C 168.690 223.490,168.170 223.158,167.645 222.862 C 167.120 222.567,166.040 221.956,165.245 221.506 C 164.450 221.055,163.080 220.280,162.200 219.783 C 161.320 219.286,158.350 217.579,155.600 215.989 C 152.850 214.400,150.060 212.792,149.400 212.415 L 148.200 211.731 148.200 197.631 L 148.200 183.531 151.607 181.465 C 153.481 180.329,155.821 178.963,156.807 178.430 C 157.793 177.896,158.690 177.356,158.800 177.230 C 158.910 177.103,159.720 176.626,160.600 176.170 C 162.669 175.096,164.148 174.252,164.400 174.000 C 164.510 173.890,165.410 173.361,166.400 172.824 C 167.390 172.287,169.010 171.356,170.000 170.755 C 172.284 169.368,172.456 169.367,174.938 170.741 M228.400 172.257 C 221.883 176.009,221.358 176.310,219.853 177.163 C 219.113 177.583,217.294 178.663,215.812 179.563 C 214.331 180.463,213.043 181.200,212.951 181.200 C 212.858 181.200,212.064 181.675,211.186 182.256 L 209.590 183.313 209.695 197.722 L 209.800 212.131 211.000 212.820 C 214.904 215.060,220.382 218.206,221.500 218.850 C 222.215 219.263,223.385 219.935,224.100 220.344 C 224.815 220.753,226.353 221.653,227.518 222.344 C 228.682 223.035,229.762 223.604,229.918 223.609 C 230.073 223.614,230.650 223.970,231.200 224.400 C 232.577 225.477,233.790 225.393,234.765 224.154 C 235.218 223.578,236.648 221.913,237.944 220.454 C 239.239 218.994,240.814 217.170,241.443 216.400 C 242.072 215.630,242.685 214.910,242.804 214.800 C 242.924 214.690,245.352 211.900,248.201 208.600 C 251.049 205.300,253.777 202.150,254.262 201.600 C 257.835 197.550,257.821 197.625,255.500 194.961 C 254.565 193.887,253.415 192.557,252.944 192.005 C 252.129 191.048,248.104 186.413,243.240 180.828 C 242.008 179.414,240.370 177.524,239.600 176.628 C 238.830 175.733,238.109 174.910,237.998 174.800 C 237.886 174.690,236.833 173.475,235.658 172.100 C 233.085 169.090,233.933 169.071,228.400 172.257 M235.439 172.700 C 236.548 173.965,238.518 176.260,239.816 177.800 C 241.115 179.340,242.543 180.977,242.989 181.439 C 243.838 182.317,244.399 182.962,248.000 187.207 C 249.210 188.633,250.380 190.000,250.600 190.244 C 257.339 197.722,257.227 197.477,255.000 199.831 C 254.021 200.867,253.101 201.933,249.000 206.788 C 247.240 208.871,245.260 211.143,244.600 211.835 C 243.940 212.528,243.055 213.523,242.633 214.047 C 241.806 215.075,234.627 223.417,233.731 224.392 C 233.273 224.891,233.054 224.901,232.339 224.455 C 231.533 223.952,230.781 223.519,227.300 221.553 C 226.475 221.087,225.322 220.367,224.738 219.953 C 224.154 219.539,223.584 219.200,223.471 219.200 C 223.358 219.200,221.946 218.422,220.333 217.471 C 217.268 215.664,213.377 213.478,211.500 212.509 L 210.400 211.941 210.400 197.667 L 210.400 183.392 211.300 182.829 C 211.795 182.519,213.190 181.730,214.400 181.075 C 215.610 180.420,216.780 179.750,217.000 179.585 C 217.220 179.420,218.075 178.906,218.900 178.443 C 219.725 177.979,221.075 177.221,221.900 176.757 C 222.725 176.294,223.580 175.773,223.800 175.600 C 224.020 175.427,224.875 174.906,225.700 174.443 C 228.063 173.115,230.098 171.947,231.400 171.172 C 233.133 170.139,233.223 170.173,235.439 172.700 M78.350 223.369 C 77.187 223.988,75.278 225.086,72.482 226.744 C 71.318 227.435,70.266 228.000,70.144 228.000 C 70.023 228.000,69.446 228.339,68.862 228.754 C 68.278 229.169,66.900 230.001,65.800 230.604 C 63.841 231.678,57.079 235.584,55.300 236.669 L 54.400 237.218 54.400 251.735 L 54.400 266.252 55.700 266.917 C 56.415 267.282,57.720 268.013,58.600 268.540 C 61.217 270.107,67.711 273.892,71.400 276.000 C 72.170 276.440,73.475 277.190,74.300 277.667 C 75.125 278.143,76.588 278.982,77.552 279.530 L 79.303 280.526 80.750 279.763 C 81.546 279.343,83.347 278.308,84.752 277.463 C 86.157 276.618,87.913 275.583,88.653 275.163 C 89.394 274.743,90.630 274.040,91.400 273.600 C 92.170 273.160,93.430 272.440,94.200 272.000 C 102.110 267.480,103.411 266.685,103.900 266.073 C 104.457 265.375,104.641 238.189,104.094 237.348 C 103.835 236.951,100.025 234.600,95.500 232.046 C 90.049 228.970,81.524 224.019,81.000 223.625 C 80.130 222.971,79.256 222.886,78.350 223.369 M138.800 224.246 C 137.370 225.030,136.020 225.816,135.800 225.993 C 135.580 226.170,134.725 226.694,133.900 227.157 C 133.075 227.621,131.770 228.360,131.000 228.800 C 130.230 229.240,128.970 229.960,128.200 230.400 C 125.877 231.728,124.378 232.593,120.400 234.904 L 116.600 237.112 116.600 251.648 L 116.600 266.183 121.200 268.900 C 123.730 270.395,126.070 271.733,126.400 271.874 C 126.730 272.015,127.450 272.433,128.000 272.804 C 128.550 273.175,129.990 274.021,131.200 274.685 C 132.410 275.349,135.184 276.928,137.363 278.195 L 141.327 280.498 142.963 279.658 C 143.864 279.196,145.410 278.338,146.400 277.752 C 147.390 277.166,148.785 276.352,149.500 275.943 C 150.215 275.535,151.385 274.865,152.100 274.457 C 152.815 274.048,154.144 273.283,155.053 272.757 C 155.962 272.230,158.889 270.540,161.556 269.000 L 166.407 266.200 166.303 251.608 L 166.200 237.017 161.600 234.313 C 159.070 232.825,156.370 231.301,155.600 230.925 C 154.830 230.549,154.110 230.142,154.000 230.021 C 153.890 229.899,153.370 229.558,152.845 229.262 C 149.110 227.159,147.095 226.001,144.133 224.255 C 141.200 222.526,141.938 222.527,138.800 224.246 M80.400 223.953 C 80.400 224.148,80.715 224.410,81.100 224.536 C 81.485 224.662,82.610 225.248,83.600 225.839 C 84.590 226.430,85.940 227.225,86.600 227.605 C 87.260 227.986,89.420 229.244,91.400 230.402 C 95.572 232.840,98.085 234.285,101.300 236.092 L 103.600 237.385 103.600 251.643 L 103.600 265.901 100.100 267.911 C 98.175 269.016,95.970 270.273,95.200 270.705 C 94.430 271.136,92.810 272.079,91.600 272.800 C 90.390 273.521,88.815 274.447,88.100 274.856 C 84.868 276.706,83.903 277.254,82.500 278.038 C 81.675 278.498,80.829 279.038,80.620 279.238 C 79.928 279.897,77.839 279.439,76.800 278.400 C 76.690 278.290,75.880 277.826,75.000 277.370 C 72.931 276.296,71.452 275.452,71.200 275.200 C 71.090 275.090,70.570 274.758,70.045 274.462 C 63.055 270.526,55.850 266.343,55.295 265.898 C 54.902 265.583,54.813 262.391,54.895 251.498 L 55.000 237.503 57.800 235.894 C 59.340 235.009,61.680 233.659,63.000 232.893 C 67.679 230.181,68.683 229.606,71.645 227.938 C 72.170 227.642,72.690 227.310,72.800 227.200 C 73.172 226.828,75.391 225.580,76.900 224.894 C 77.725 224.518,78.400 224.074,78.400 223.906 C 78.400 223.738,78.850 223.600,79.400 223.600 C 79.950 223.600,80.400 223.759,80.400 223.953 M143.200 224.400 C 143.750 224.830,144.425 225.186,144.700 225.191 C 144.975 225.196,145.200 225.336,145.200 225.502 C 145.200 225.669,145.785 226.058,146.500 226.368 C 147.215 226.677,148.520 227.411,149.400 227.998 C 150.280 228.585,151.270 229.183,151.600 229.327 C 151.930 229.471,155.260 231.360,159.000 233.525 L 165.800 237.461 165.800 251.601 L 165.800 265.741 162.248 267.871 C 160.294 269.042,158.637 270.000,158.565 270.000 C 158.494 270.000,157.482 270.565,156.318 271.256 C 154.062 272.593,152.516 273.486,150.100 274.843 C 149.275 275.306,148.420 275.827,148.200 276.000 C 147.784 276.327,145.687 277.534,143.096 278.938 L 141.591 279.753 139.602 278.777 C 138.508 278.239,137.610 277.665,137.606 277.500 C 137.603 277.335,137.240 277.200,136.800 277.200 C 136.360 277.200,136.000 277.020,136.000 276.800 C 136.000 276.580,135.807 276.400,135.572 276.400 C 135.337 276.400,134.392 275.899,133.472 275.288 C 132.552 274.676,131.260 273.917,130.600 273.600 C 129.940 273.283,128.648 272.524,127.728 271.912 C 126.808 271.301,125.976 270.800,125.879 270.800 C 125.782 270.800,124.104 269.844,122.151 268.676 C 120.198 267.507,118.285 266.433,117.900 266.288 C 116.994 265.948,116.802 238.022,117.700 237.292 C 117.975 237.068,118.830 236.528,119.600 236.092 C 121.292 235.132,124.590 233.223,129.332 230.459 C 131.274 229.327,133.029 228.400,133.232 228.400 C 133.434 228.400,133.600 228.241,133.600 228.047 C 133.600 227.852,133.915 227.593,134.300 227.471 C 134.985 227.254,137.204 225.996,137.600 225.600 C 139.241 223.959,141.906 223.388,143.200 224.400 M128.639 254.197 C 128.287 254.733,128.000 255.358,128.000 255.586 C 128.000 255.814,127.865 256.001,127.700 256.003 C 127.535 256.005,127.202 256.410,126.960 256.903 C 126.129 258.595,124.600 261.400,124.399 261.600 C 122.901 263.094,123.006 264.757,124.652 265.604 C 125.283 265.928,127.780 267.347,130.200 268.757 C 132.620 270.166,135.320 271.697,136.200 272.160 C 137.080 272.622,137.890 273.090,138.000 273.201 C 139.456 274.661,140.862 274.544,141.709 272.892 C 142.666 271.026,144.060 268.647,144.847 267.538 C 145.261 266.954,145.600 266.352,145.600 266.200 C 145.600 266.048,145.968 265.407,146.417 264.776 L 147.234 263.629 145.518 262.387 C 144.574 261.703,143.172 260.851,142.401 260.493 C 141.631 260.135,140.910 259.742,140.800 259.621 C 140.690 259.499,140.170 259.158,139.645 258.862 C 139.120 258.567,138.085 257.982,137.345 257.562 C 136.605 257.143,135.325 256.421,134.500 255.957 C 133.675 255.494,132.806 254.958,132.569 254.766 C 130.945 253.450,129.286 253.210,128.639 254.197 M131.388 254.800 C 134.177 256.380,135.434 257.109,137.600 258.400 C 139.927 259.787,141.087 260.459,144.000 262.103 C 146.089 263.282,146.352 263.974,145.290 265.498 C 144.868 266.104,143.980 267.590,143.318 268.800 C 142.656 270.010,141.715 271.668,141.226 272.485 L 140.338 273.971 138.869 273.048 C 138.061 272.540,135.240 270.909,132.600 269.422 C 128.774 267.267,125.731 265.476,123.683 264.174 C 123.581 264.109,124.131 263.138,127.293 257.800 C 127.684 257.140,128.307 256.015,128.676 255.300 C 129.466 253.772,129.547 253.757,131.388 254.800 " stroke="none" fill="#f4aa36" fill-rule="evenodd"></path></g></svg>