<svg id="svg" version="1.1" xmlns="http://www.w3.org/2000/svg" xmlns:xlink="http://www.w3.org/1999/xlink" width="400" height="400" viewBox="0, 0, 400,400"><g id="svgg"><path id="path0" d="M272.667 36.667 C 272.241 37.093,272.359 40.400,272.800 40.400 C 273.020 40.400,273.200 40.681,273.200 41.025 C 273.200 42.466,275.818 46.933,277.940 49.114 C 282.320 53.615,286.160 54.765,296.869 54.786 C 304.740 54.801,307.900 55.212,313.000 56.887 C 318.278 58.620,324.378 61.800,329.459 65.470 C 336.316 70.421,337.494 71.149,339.966 71.959 C 348.783 74.849,358.729 70.209,362.327 61.528 C 363.027 59.838,363.600 58.072,363.600 57.604 C 363.600 57.136,363.780 56.864,364.000 57.000 C 364.263 57.162,364.400 53.759,364.400 47.089 L 364.400 36.930 348.500 36.666 C 327.816 36.322,273.011 36.322,272.667 36.667 M253.160 112.288 C 249.886 118.850,249.543 119.600,249.811 119.600 C 250.096 119.600,256.470 106.737,256.279 106.546 C 256.186 106.453,254.783 109.037,253.160 112.288 M248.786 121.101 C 247.945 122.787,247.940 122.800,248.147 122.800 C 248.405 122.800,249.642 120.308,249.469 120.136 C 249.395 120.062,249.088 120.496,248.786 121.101 M239.473 142.153 C 239.323 142.545,239.211 143.166,239.225 143.533 C 239.242 143.975,239.381 143.874,239.637 143.234 C 239.849 142.703,239.961 142.082,239.885 141.854 C 239.809 141.627,239.624 141.761,239.473 142.153 M238.649 145.015 C 238.512 145.373,238.416 146.056,238.436 146.533 C 238.462 147.147,238.585 147.008,238.859 146.056 C 239.257 144.672,239.094 143.858,238.649 145.015 M358.400 145.808 C 342.853 148.127,331.117 159.433,327.778 175.305 C 326.887 179.539,326.914 329.628,327.807 333.905 C 335.034 368.549,381.149 374.678,396.400 343.021 C 400.329 334.866,400.000 342.941,400.000 254.600 L 400.000 177.142 399.149 173.671 C 396.421 162.539,389.266 153.666,379.143 148.861 C 377.681 148.168,376.232 147.600,375.923 147.600 C 375.613 147.600,375.189 147.449,374.980 147.264 C 374.203 146.578,366.111 145.173,363.400 145.254 C 362.520 145.280,360.270 145.529,358.400 145.808 M237.849 148.615 C 237.712 148.973,237.620 149.836,237.644 150.533 C 237.682 151.637,237.733 151.571,238.036 150.025 C 238.393 148.205,238.294 147.457,237.849 148.615 M237.050 153.650 C 236.717 155.314,236.806 368.738,237.140 369.924 C 237.283 370.432,237.400 321.697,237.400 261.624 C 237.400 201.551,237.378 152.400,237.350 152.400 C 237.322 152.400,237.188 152.963,237.050 153.650 M237.634 372.200 C 237.622 372.640,237.787 373.270,238.000 373.600 C 238.514 374.395,238.514 373.396,238.000 372.200 L 237.656 371.400 237.634 372.200 M252.400 382.038 C 250.091 382.342,246.917 383.470,245.459 384.504 C 244.530 385.163,244.255 385.212,243.980 384.768 C 243.795 384.468,243.546 384.321,243.427 384.440 C 243.118 384.748,247.213 389.606,248.788 390.800 C 249.513 391.350,250.480 392.123,250.935 392.518 C 251.391 392.913,252.357 393.603,253.082 394.051 C 253.832 394.514,254.400 395.196,254.400 395.633 C 254.400 396.126,254.678 396.400,255.176 396.400 C 255.603 396.400,256.064 396.580,256.200 396.800 C 256.336 397.020,256.887 397.200,257.424 397.200 C 257.961 397.200,258.400 397.380,258.400 397.600 C 258.400 397.820,258.760 398.000,259.200 398.000 C 259.640 398.000,260.000 398.180,260.000 398.400 C 260.000 398.620,260.324 398.800,260.720 398.800 C 261.116 398.800,261.665 399.025,261.940 399.300 C 262.828 400.188,374.097 400.014,374.647 399.124 C 374.757 398.946,375.287 398.800,375.824 398.800 C 376.361 398.800,376.800 398.659,376.800 398.487 C 376.800 398.315,377.609 397.936,378.597 397.644 C 379.585 397.352,380.318 396.990,380.225 396.840 C 380.132 396.689,380.405 396.540,380.832 396.508 C 381.752 396.438,382.882 395.415,382.481 395.014 C 382.326 394.860,382.380 394.770,382.600 394.814 C 383.902 395.077,384.800 394.745,384.800 394.000 C 384.800 393.400,385.067 393.200,385.867 393.200 C 386.453 393.200,386.817 393.083,386.674 392.941 C 386.324 392.591,388.011 391.159,388.452 391.432 C 388.643 391.550,388.814 391.232,388.832 390.724 C 388.849 390.216,388.958 390.036,389.073 390.324 C 389.237 390.733,389.449 390.699,390.032 390.171 C 390.444 389.798,390.685 389.337,390.567 389.147 C 390.449 388.956,390.678 388.786,391.076 388.768 C 391.476 388.751,391.581 388.648,391.312 388.539 C 390.968 388.400,391.057 388.090,391.612 387.495 C 393.203 385.787,392.047 384.521,387.382 382.865 L 384.967 382.007 319.583 381.904 C 283.623 381.847,253.390 381.907,252.400 382.038 " stroke="none" fill="#ccb4dc" fill-rule="evenodd"></path><path id="path1" d="M37.415 28.138 C 37.593 29.087,37.482 29.661,37.036 30.107 C 36.538 30.605,36.459 31.244,36.658 33.152 C 36.910 35.564,35.437 40.000,34.383 40.000 C 34.186 40.000,34.128 40.268,34.254 40.597 C 34.383 40.932,34.213 41.297,33.867 41.430 C 33.528 41.560,33.348 41.921,33.468 42.233 C 33.600 42.577,33.433 42.800,33.043 42.800 C 32.656 42.800,32.400 43.135,32.400 43.643 C 32.400 44.214,32.214 44.414,31.820 44.263 C 31.433 44.115,31.315 44.233,31.463 44.620 C 31.586 44.939,31.486 45.200,31.243 45.200 C 30.999 45.200,30.800 45.481,30.800 45.824 C 30.800 46.167,30.620 46.336,30.400 46.200 C 30.172 46.059,30.000 46.404,30.000 47.000 C 30.000 47.596,29.828 47.941,29.600 47.800 C 29.380 47.664,29.200 47.866,29.200 48.248 C 29.200 49.391,27.504 52.788,27.068 52.518 C 26.827 52.370,26.765 52.533,26.915 52.923 C 27.053 53.283,26.949 53.811,26.683 54.098 C 26.417 54.385,26.141 54.883,26.068 55.206 C 25.995 55.528,25.761 55.901,25.547 56.033 C 25.333 56.165,25.196 56.437,25.242 56.637 C 25.356 57.125,24.796 58.462,24.168 59.200 C 23.887 59.530,23.616 59.980,23.565 60.200 C 23.238 61.620,23.067 62.000,22.753 62.000 C 22.559 62.000,22.400 62.360,22.400 62.800 C 22.400 63.240,22.220 63.600,22.000 63.600 C 21.780 63.600,21.600 63.960,21.600 64.400 C 21.600 64.840,21.420 65.200,21.200 65.200 C 20.980 65.200,20.800 65.560,20.800 66.000 C 20.800 66.440,20.620 66.800,20.400 66.800 C 20.180 66.800,20.000 67.160,20.000 67.600 C 20.000 68.040,19.820 68.400,19.600 68.400 C 19.380 68.400,19.200 68.760,19.200 69.200 C 19.200 69.640,19.020 70.000,18.800 70.000 C 18.580 70.000,18.400 70.360,18.400 70.800 C 18.400 71.240,18.265 71.601,18.100 71.603 C 17.741 71.607,16.800 73.544,16.800 74.280 C 16.800 74.566,16.620 74.800,16.400 74.800 C 16.180 74.800,16.000 75.048,16.000 75.351 C 16.000 75.654,15.736 76.121,15.413 76.389 C 15.090 76.657,14.839 76.994,14.856 77.138 C 14.924 77.719,14.291 79.180,14.039 79.024 C 13.551 78.722,11.952 83.410,12.265 84.226 C 12.385 84.538,12.214 84.896,11.886 85.022 C 11.527 85.160,11.369 85.561,11.491 86.026 C 11.602 86.452,11.492 86.800,11.247 86.800 C 11.001 86.800,10.800 87.160,10.800 87.600 C 10.800 88.040,10.620 88.400,10.400 88.400 C 10.180 88.400,10.000 88.760,10.000 89.200 C 10.000 89.640,9.820 90.000,9.600 90.000 C 9.380 90.000,9.200 90.360,9.200 90.800 C 9.200 91.240,9.020 91.600,8.800 91.600 C 8.580 91.600,8.400 91.948,8.400 92.373 C 8.400 92.798,8.063 93.253,7.652 93.384 C 6.772 93.663,2.000 98.227,2.000 98.790 C 2.000 99.002,1.595 99.856,1.100 100.688 L 0.200 102.200 0.272 234.800 C 0.347 372.512,0.341 371.647,1.122 371.907 C 1.385 371.995,1.600 372.671,1.600 373.410 C 1.600 374.148,1.792 374.872,2.027 375.017 C 2.262 375.162,2.363 375.520,2.251 375.811 C 2.139 376.103,2.307 376.557,2.624 376.820 C 2.941 377.083,3.200 377.625,3.200 378.025 C 3.200 378.425,3.390 378.870,3.621 379.013 C 3.853 379.156,3.976 379.471,3.896 379.712 C 3.816 379.953,4.031 380.457,4.375 380.832 C 4.719 381.207,5.851 382.850,6.891 384.481 C 9.129 387.991,11.974 390.809,15.809 393.313 C 17.344 394.316,18.922 395.427,19.315 395.783 C 19.708 396.138,20.190 396.330,20.387 396.208 C 20.584 396.086,20.858 396.170,20.996 396.393 C 21.134 396.617,21.575 396.800,21.975 396.800 C 22.375 396.800,22.917 397.059,23.180 397.376 C 23.443 397.693,23.914 397.854,24.226 397.735 C 24.538 397.615,24.906 397.810,25.043 398.168 C 25.235 398.668,25.606 398.760,26.642 398.566 C 27.623 398.382,28.052 398.470,28.212 398.888 C 28.361 399.276,29.111 399.480,30.517 399.515 C 31.662 399.544,34.850 399.677,37.600 399.810 L 42.600 400.053 40.720 398.848 C 35.350 395.406,34.649 388.349,39.265 384.200 C 42.153 381.604,37.446 381.819,96.200 381.600 L 149.800 381.400 152.800 379.949 C 157.822 377.520,161.011 373.807,162.745 368.372 C 163.080 367.318,163.200 339.029,163.200 260.633 C 163.200 140.631,162.900 151.341,166.357 148.000 C 170.341 144.151,175.944 144.366,179.700 148.512 L 181.200 150.168 181.202 133.584 C 181.205 112.528,181.811 107.947,185.443 101.526 C 187.447 97.983,204.658 63.515,205.879 60.600 C 207.471 56.797,209.332 53.012,209.680 52.867 C 209.856 52.793,210.000 52.541,210.000 52.306 C 210.000 52.071,211.710 48.495,213.800 44.359 C 217.971 36.106,218.223 35.022,217.157 29.920 C 216.613 27.312,216.220 26.841,215.583 28.032 C 214.605 29.859,211.396 32.875,209.024 34.196 C 204.416 36.761,208.860 36.643,125.600 36.411 L 49.800 36.200 47.674 35.329 C 44.836 34.165,41.620 31.629,39.614 28.972 C 37.719 26.462,37.053 26.209,37.415 28.138 M263.246 90.815 C 263.221 91.153,260.223 97.341,256.584 104.565 C 252.945 111.790,250.045 117.778,250.139 117.873 C 250.469 118.202,263.639 91.502,263.467 90.854 C 263.323 90.312,263.285 90.305,263.246 90.815 M249.040 119.640 C 248.686 120.349,248.474 121.007,248.569 121.102 C 248.664 121.197,249.038 120.701,249.400 120.000 C 249.762 119.299,249.974 118.641,249.871 118.538 C 249.768 118.435,249.394 118.931,249.040 119.640 M245.095 127.684 C 243.442 131.048,241.539 135.240,240.867 137.000 C 238.809 142.385,236.890 149.920,237.964 148.400 C 238.197 148.070,238.391 147.313,238.394 146.719 C 238.397 146.124,238.561 145.224,238.758 144.719 C 238.955 144.213,239.336 142.990,239.604 142.000 C 239.872 141.010,240.233 139.840,240.405 139.400 C 240.578 138.960,240.949 137.970,241.230 137.200 C 242.077 134.879,243.933 130.847,246.263 126.267 C 247.475 123.883,248.385 121.851,248.284 121.751 C 248.183 121.650,246.748 124.320,245.095 127.684 M237.018 151.526 C 236.853 152.695,236.813 153.746,236.929 153.862 C 237.214 154.147,237.731 150.587,237.500 149.925 C 237.400 149.636,237.182 150.357,237.018 151.526 M236.262 159.100 C 235.898 164.608,236.014 364.127,236.383 366.800 C 236.551 368.010,236.713 320.895,236.744 262.100 C 236.775 203.305,236.737 155.200,236.660 155.200 C 236.584 155.200,236.404 156.955,236.262 159.100 M236.868 370.200 C 236.862 370.860,237.011 371.760,237.200 372.200 C 237.670 373.294,237.670 371.467,237.200 370.000 C 236.888 369.025,236.879 369.030,236.868 370.200 M237.600 373.537 C 237.600 375.049,241.517 383.404,242.927 384.899 C 243.187 385.174,243.894 386.062,244.498 386.871 C 246.010 388.895,249.102 391.770,251.661 393.529 C 252.837 394.338,253.932 395.180,254.094 395.400 C 254.283 395.657,254.390 395.640,254.394 395.353 C 254.397 395.107,253.676 394.427,252.791 393.841 C 246.290 389.540,240.983 382.602,238.585 375.271 C 237.957 373.350,237.600 372.722,237.600 373.537 " stroke="none" fill="#fbca74" fill-rule="evenodd"></path><path id="path2" d="M272.400 49.400 C 272.400 55.133,272.255 58.400,272.000 58.400 C 271.760 58.400,271.600 60.000,271.600 62.400 C 271.600 64.800,271.440 66.400,271.200 66.400 C 270.980 66.400,270.800 67.210,270.800 68.200 C 270.800 69.190,270.620 70.000,270.400 70.000 C 270.180 70.000,270.000 70.709,270.000 71.576 C 270.000 72.443,269.820 73.264,269.600 73.400 C 269.380 73.536,269.200 74.267,269.200 75.024 C 269.200 75.781,269.020 76.400,268.800 76.400 C 268.580 76.400,268.400 76.752,268.400 77.181 C 268.400 77.961,268.051 78.959,266.852 81.600 C 266.503 82.370,266.192 83.335,266.161 83.744 C 266.130 84.153,265.929 84.603,265.714 84.744 C 265.499 84.885,265.205 85.482,265.061 86.072 C 264.917 86.662,264.555 87.387,264.258 87.685 C 263.923 88.020,263.778 88.814,263.876 89.772 C 264.015 91.130,263.058 93.281,256.017 107.434 C 251.608 116.298,248.000 123.727,248.000 123.942 C 248.000 124.157,247.865 124.393,247.700 124.467 C 247.280 124.653,245.600 127.963,245.600 128.604 C 245.600 128.895,245.465 129.193,245.300 129.267 C 244.868 129.459,243.200 132.772,243.200 133.438 C 243.200 133.747,243.020 134.000,242.800 134.000 C 242.580 134.000,242.400 134.450,242.400 135.000 C 242.400 135.550,242.220 136.000,242.000 136.000 C 241.780 136.000,241.600 136.439,241.600 136.976 C 241.600 137.513,241.441 138.051,241.248 138.170 C 241.054 138.290,240.799 138.796,240.680 139.294 C 240.562 139.792,239.931 142.270,239.279 144.800 C 237.060 153.403,237.143 148.466,237.277 263.800 L 237.400 371.000 238.433 374.022 C 239.566 377.341,241.590 381.723,242.085 381.933 C 242.258 382.007,242.400 382.277,242.400 382.533 C 242.401 382.790,242.842 383.513,243.382 384.141 L 244.363 385.281 245.481 384.495 C 246.097 384.062,247.701 383.321,249.046 382.847 L 251.491 381.986 318.228 381.996 L 384.965 382.007 387.382 382.864 C 392.074 384.530,393.205 385.785,391.584 387.525 C 391.136 388.006,390.947 388.400,391.166 388.400 C 391.384 388.400,391.886 387.938,392.281 387.372 C 392.677 386.807,393.360 385.944,393.800 385.454 C 394.240 384.964,394.659 384.304,394.732 383.986 C 394.805 383.668,395.009 383.316,395.186 383.204 C 395.782 382.826,397.200 379.982,397.200 379.164 C 397.200 378.718,397.380 378.464,397.600 378.600 C 397.820 378.736,398.000 378.474,398.000 378.018 C 398.000 377.218,398.236 376.615,399.300 374.700 C 399.679 374.018,399.820 368.804,399.882 353.200 L 399.965 332.600 399.027 336.150 C 391.309 365.353,354.753 373.370,335.340 350.118 C 331.697 345.755,329.123 340.215,327.807 333.905 C 326.914 329.628,326.887 179.539,327.778 175.305 C 332.240 154.095,351.549 141.681,372.600 146.489 C 373.700 146.740,374.771 147.093,374.980 147.273 C 375.189 147.453,375.613 147.600,375.923 147.600 C 376.232 147.600,377.681 148.168,379.143 148.861 C 389.125 153.599,396.150 162.190,399.044 173.200 L 399.938 176.600 399.967 165.800 C 399.998 154.126,399.682 147.102,399.141 147.437 C 398.953 147.553,398.800 147.004,398.800 146.218 C 398.800 145.432,398.638 144.477,398.439 144.095 C 398.240 143.713,397.860 142.590,397.593 141.600 C 397.097 139.756,396.578 138.333,395.953 137.105 C 395.759 136.723,395.600 135.958,395.600 135.405 C 395.600 134.852,395.420 134.400,395.200 134.400 C 394.980 134.400,394.800 134.029,394.800 133.576 C 394.800 133.123,394.620 132.864,394.400 133.000 C 394.067 133.206,393.891 132.413,394.034 131.345 C 394.053 131.204,393.916 130.979,393.729 130.845 C 393.244 130.495,391.672 127.202,391.369 125.900 C 391.228 125.295,390.953 124.800,390.757 124.800 C 390.560 124.800,390.400 124.616,390.400 124.392 C 390.400 124.168,389.944 123.261,389.386 122.377 C 388.828 121.493,388.469 120.612,388.588 120.419 C 388.707 120.226,388.668 120.008,388.501 119.934 C 388.025 119.724,385.384 114.278,385.533 113.814 C 385.607 113.586,385.534 113.532,385.373 113.694 C 384.999 114.068,384.000 112.172,384.000 111.088 C 384.000 110.636,383.890 110.377,383.755 110.512 C 383.482 110.785,381.604 107.287,381.602 106.500 C 381.601 106.225,381.465 105.999,381.300 105.997 C 380.941 105.993,380.000 104.056,380.000 103.320 C 380.000 103.034,379.820 102.800,379.600 102.800 C 379.380 102.800,379.200 102.440,379.200 102.000 C 379.200 101.560,379.020 101.200,378.800 101.200 C 378.580 101.200,378.400 100.840,378.400 100.400 C 378.400 99.960,378.265 99.599,378.100 99.597 C 377.741 99.593,376.800 97.656,376.800 96.920 C 376.800 96.634,376.620 96.400,376.400 96.400 C 376.180 96.400,376.000 96.040,376.000 95.600 C 376.000 95.160,375.840 94.800,375.645 94.800 C 375.449 94.800,375.171 94.170,375.026 93.400 C 374.882 92.630,374.597 92.000,374.392 92.000 C 374.188 92.000,373.741 91.460,373.400 90.800 C 373.059 90.140,372.910 89.600,373.070 89.600 C 373.229 89.600,373.144 89.384,372.880 89.120 C 372.616 88.856,372.400 88.393,372.400 88.091 C 372.400 87.790,372.128 87.271,371.796 86.939 C 371.464 86.607,371.295 86.170,371.420 85.968 C 371.545 85.765,371.457 85.600,371.224 85.600 C 370.991 85.600,370.800 85.351,370.800 85.046 C 370.800 84.741,370.539 83.989,370.220 83.374 C 369.902 82.760,369.750 82.082,369.882 81.867 C 370.015 81.652,369.936 81.592,369.707 81.734 C 369.292 81.990,368.880 81.099,368.533 79.200 C 368.433 78.650,368.182 78.140,367.975 78.067 C 367.769 77.993,367.600 77.329,367.600 76.590 C 367.600 75.852,367.420 75.136,367.200 75.000 C 366.980 74.864,366.800 74.223,366.800 73.576 C 366.800 72.929,366.657 72.400,366.482 72.400 C 366.307 72.400,366.119 71.744,366.065 70.943 C 366.011 70.142,365.805 69.183,365.607 68.813 C 365.409 68.443,365.207 67.029,365.158 65.670 C 365.109 64.312,364.918 63.200,364.734 63.200 C 364.550 63.200,364.400 61.861,364.400 60.224 C 364.400 58.587,364.220 57.136,364.000 57.000 C 363.780 56.864,363.600 57.136,363.600 57.604 C 363.600 58.072,363.027 59.838,362.327 61.528 C 358.729 70.209,348.783 74.849,339.966 71.959 C 337.494 71.149,336.316 70.421,329.459 65.470 C 324.378 61.800,318.278 58.620,313.000 56.887 C 307.900 55.212,304.740 54.801,296.869 54.786 C 286.160 54.765,282.320 53.615,277.940 49.114 C 275.818 46.933,273.200 42.466,273.200 41.025 C 273.200 40.681,273.020 40.400,272.800 40.400 C 272.545 40.400,272.400 43.667,272.400 49.400 M387.200 392.000 C 386.693 392.440,386.457 392.800,386.677 392.800 C 386.896 392.800,387.402 392.440,387.800 392.000 C 388.198 391.560,388.434 391.200,388.323 391.200 C 388.213 391.200,387.707 391.560,387.200 392.000 " stroke="none" fill="#dfd0ed" fill-rule="evenodd"></path><path id="path3" d="M48.200 0.264 C 45.375 0.896,38.800 6.165,38.800 7.797 C 38.800 8.129,38.620 8.400,38.400 8.400 C 38.180 8.400,38.000 8.670,38.000 9.000 C 38.000 9.330,37.820 9.600,37.600 9.600 C 37.380 9.600,37.200 9.949,37.200 10.376 C 37.200 10.803,37.020 11.264,36.800 11.400 C 36.580 11.536,36.400 12.166,36.400 12.800 C 36.400 13.434,36.220 14.064,36.000 14.200 C 35.779 14.336,35.600 16.130,35.600 18.200 C 35.600 20.270,35.779 22.064,36.000 22.200 C 36.220 22.336,36.400 23.067,36.400 23.824 C 36.400 24.581,36.580 25.200,36.800 25.200 C 37.020 25.200,37.200 25.560,37.200 26.000 C 37.200 26.440,37.020 26.800,36.800 26.800 C 36.580 26.800,36.400 27.610,36.400 28.600 C 36.400 29.590,36.568 30.400,36.773 30.400 C 37.337 30.400,37.665 28.998,37.373 27.834 C 36.954 26.165,37.831 26.610,39.614 28.972 C 41.620 31.629,44.836 34.165,47.674 35.329 L 49.800 36.200 125.600 36.411 C 208.860 36.643,204.416 36.761,209.024 34.196 C 211.396 32.875,214.605 29.859,215.583 28.032 C 216.220 26.841,216.613 27.312,217.157 29.920 C 218.223 35.022,217.971 36.106,213.800 44.359 C 211.710 48.495,210.000 52.071,210.000 52.306 C 210.000 52.541,209.856 52.793,209.680 52.867 C 209.332 53.012,207.471 56.797,205.879 60.600 C 204.658 63.515,187.447 97.983,185.443 101.526 C 181.811 107.947,181.205 112.528,181.202 133.584 L 181.200 150.168 179.700 148.512 C 175.944 144.366,170.341 144.151,166.357 148.000 C 162.900 151.341,163.200 140.631,163.200 260.633 C 163.200 339.029,163.080 367.318,162.745 368.372 C 161.011 373.807,157.822 377.520,152.800 379.949 L 149.800 381.400 96.200 381.600 C 37.446 381.819,42.153 381.604,39.265 384.200 C 34.575 388.416,35.414 395.748,40.959 398.997 L 42.691 400.012 144.812 399.906 C 226.078 399.822,246.967 399.698,247.100 399.300 C 247.192 399.025,247.792 398.800,248.433 398.800 C 249.075 398.800,249.600 398.620,249.600 398.400 C 249.600 398.180,250.039 398.000,250.576 398.000 C 251.113 398.000,251.664 397.820,251.800 397.600 C 251.936 397.380,252.319 397.200,252.652 397.200 C 255.059 397.200,254.588 395.416,251.678 393.504 C 249.143 391.839,246.116 389.039,244.477 386.844 C 243.885 386.050,243.180 385.167,242.912 384.883 C 240.392 382.216,237.138 373.444,236.426 367.400 C 235.847 362.485,235.841 164.148,236.420 157.400 C 237.611 143.505,238.568 140.863,252.679 112.497 C 262.636 92.482,264.570 88.000,263.253 88.000 C 263.004 88.000,262.800 87.640,262.800 87.200 C 262.800 86.760,262.620 86.400,262.400 86.400 C 262.180 86.400,262.000 86.040,262.000 85.600 C 262.000 85.160,261.820 84.800,261.600 84.800 C 261.380 84.800,261.200 84.440,261.200 84.000 C 261.200 83.560,261.020 83.200,260.800 83.200 C 260.580 83.200,260.400 82.840,260.400 82.400 C 260.400 81.960,260.220 81.600,260.000 81.600 C 259.780 81.600,259.600 81.240,259.600 80.800 C 259.600 80.360,259.420 80.000,259.200 80.000 C 258.980 80.000,258.800 79.754,258.800 79.453 C 258.800 79.152,258.170 77.675,257.400 76.172 C 256.630 74.668,256.000 73.205,256.000 72.919 C 256.000 72.634,255.820 72.400,255.600 72.400 C 255.380 72.400,255.200 72.040,255.200 71.600 C 255.200 71.160,255.020 70.800,254.800 70.800 C 254.580 70.800,254.400 70.440,254.400 70.000 C 254.400 69.560,254.220 69.200,254.000 69.200 C 253.780 69.200,253.600 68.840,253.600 68.400 C 253.600 67.960,253.420 67.600,253.200 67.600 C 252.980 67.600,252.800 67.240,252.800 66.800 C 252.800 66.360,252.620 66.000,252.400 66.000 C 252.180 66.000,252.000 65.640,252.000 65.200 C 252.000 64.760,251.820 64.400,251.600 64.400 C 251.380 64.400,251.200 64.040,251.200 63.600 C 251.200 63.160,251.065 62.799,250.900 62.799 C 250.735 62.798,250.150 61.808,249.600 60.600 C 249.050 59.392,248.465 58.402,248.300 58.401 C 248.135 58.401,248.000 58.040,248.000 57.600 C 248.000 57.160,247.820 56.800,247.600 56.800 C 247.380 56.800,247.200 56.440,247.200 56.000 C 247.200 55.560,247.020 55.200,246.800 55.200 C 246.580 55.200,246.400 54.840,246.400 54.400 C 246.400 53.960,246.220 53.600,246.000 53.600 C 245.780 53.600,245.600 53.240,245.600 52.800 C 245.600 52.360,245.420 52.000,245.200 52.000 C 244.980 52.000,244.800 51.640,244.800 51.200 C 244.800 50.760,244.620 50.400,244.400 50.400 C 244.180 50.400,244.000 50.040,244.000 49.600 C 244.000 49.160,243.820 48.800,243.600 48.800 C 243.380 48.800,243.200 48.440,243.200 48.000 C 243.200 47.560,243.064 47.200,242.898 47.200 C 242.731 47.200,242.360 46.615,242.073 45.900 C 241.786 45.185,241.109 43.700,240.569 42.600 C 240.029 41.500,239.590 40.375,239.594 40.100 C 239.597 39.825,239.420 39.600,239.200 39.600 C 238.980 39.600,238.800 39.240,238.800 38.800 C 238.800 38.360,238.620 38.000,238.400 38.000 C 238.180 38.000,238.000 37.640,238.000 37.200 C 238.000 36.760,237.820 36.400,237.600 36.400 C 237.371 36.400,237.200 35.200,237.200 33.600 C 237.200 32.000,237.029 30.800,236.800 30.800 C 236.580 30.800,236.400 29.900,236.400 28.800 C 236.400 27.700,236.220 26.800,236.000 26.800 C 235.780 26.800,235.600 26.170,235.600 25.400 C 235.600 24.630,235.420 24.000,235.200 24.000 C 234.980 24.000,234.800 23.561,234.800 23.024 C 234.800 22.487,234.620 21.936,234.400 21.800 C 234.180 21.664,234.000 21.203,234.000 20.776 C 234.000 20.349,233.820 20.000,233.600 20.000 C 233.380 20.000,233.200 19.640,233.200 19.200 C 233.200 18.760,233.020 18.400,232.800 18.400 C 232.580 18.400,232.400 18.164,232.400 17.875 C 232.400 17.587,232.040 16.964,231.600 16.492 C 231.160 16.020,230.800 15.440,230.800 15.203 C 230.800 14.967,230.215 14.165,229.500 13.422 C 228.785 12.678,227.480 11.251,226.600 10.249 C 225.720 9.248,224.847 8.422,224.660 8.414 C 224.474 8.406,223.844 7.905,223.260 7.300 C 222.677 6.695,221.705 5.945,221.100 5.632 C 220.495 5.320,220.000 4.915,220.000 4.732 C 220.000 4.550,219.640 4.400,219.200 4.400 C 218.760 4.400,218.400 4.220,218.400 4.000 C 218.400 3.780,218.040 3.600,217.600 3.600 C 217.160 3.600,216.800 3.420,216.800 3.200 C 216.800 2.980,216.440 2.800,216.000 2.800 C 215.560 2.800,215.200 2.620,215.200 2.400 C 215.200 2.180,214.840 2.000,214.400 2.000 C 213.960 2.000,213.600 1.820,213.600 1.600 C 213.600 1.380,213.075 1.200,212.433 1.200 C 211.792 1.200,211.192 0.975,211.100 0.700 C 210.938 0.214,50.347 -0.216,48.200 0.264 M35.898 31.035 C 35.734 31.199,35.600 32.473,35.600 33.867 C 35.600 35.289,35.425 36.400,35.200 36.400 C 34.980 36.400,34.800 36.760,34.800 37.200 C 34.800 37.640,34.620 38.000,34.400 38.000 C 34.180 38.000,34.000 38.360,34.000 38.800 C 34.000 39.240,33.820 39.600,33.600 39.600 C 33.380 39.600,33.200 39.960,33.200 40.400 C 33.200 40.840,33.020 41.200,32.800 41.200 C 32.580 41.200,32.400 41.560,32.400 42.000 C 32.400 42.440,32.220 42.800,32.000 42.800 C 31.780 42.800,31.600 43.145,31.600 43.567 C 31.600 43.988,31.375 44.414,31.100 44.512 C 30.825 44.610,30.726 44.827,30.881 44.993 C 31.257 45.397,32.400 44.220,32.400 43.429 C 32.400 43.083,32.689 42.800,33.043 42.800 C 33.433 42.800,33.600 42.577,33.468 42.233 C 33.348 41.921,33.528 41.560,33.867 41.430 C 34.213 41.297,34.383 40.932,34.254 40.597 C 34.128 40.268,34.183 40.000,34.377 40.000 C 35.089 40.000,36.800 35.852,36.760 34.221 C 36.710 32.194,36.291 30.643,35.898 31.035 M27.600 50.967 C 27.600 51.279,27.498 51.864,27.372 52.267 C 27.247 52.670,27.421 52.550,27.758 52.000 C 28.483 50.819,28.546 50.400,28.000 50.400 C 27.780 50.400,27.600 50.655,27.600 50.967 M10.460 85.792 C 9.327 88.105,8.400 90.268,8.400 90.599 C 8.400 90.930,8.220 91.200,8.000 91.200 C 7.780 91.200,7.600 91.545,7.600 91.967 C 7.600 92.388,7.375 92.814,7.100 92.912 C 6.825 93.010,6.709 93.209,6.843 93.355 C 7.287 93.838,8.400 93.126,8.400 92.357 C 8.400 91.941,8.580 91.600,8.800 91.600 C 9.020 91.600,9.200 91.240,9.200 90.800 C 9.200 90.360,9.380 90.000,9.600 90.000 C 9.820 90.000,10.000 89.640,10.000 89.200 C 10.000 88.760,10.180 88.400,10.400 88.400 C 10.620 88.400,10.800 88.040,10.800 87.600 C 10.800 87.160,11.001 86.800,11.247 86.800 C 11.492 86.800,11.602 86.452,11.491 86.026 C 11.369 85.561,11.527 85.160,11.886 85.022 C 12.232 84.890,12.382 84.530,12.243 84.168 C 12.111 83.824,12.197 83.180,12.434 82.737 C 12.671 82.294,12.787 81.854,12.692 81.759 C 12.597 81.664,11.593 83.479,10.460 85.792 M0.176 370.381 C 0.301 372.461,0.582 374.342,0.801 374.561 C 1.021 374.781,1.200 375.374,1.200 375.880 C 1.200 376.386,1.380 376.800,1.600 376.800 C 1.820 376.800,2.000 377.340,2.000 378.000 C 2.000 378.660,2.180 379.200,2.400 379.200 C 2.620 379.200,2.800 379.560,2.800 380.000 C 2.800 380.440,2.980 380.800,3.200 380.800 C 3.420 380.800,3.600 381.120,3.600 381.512 C 3.600 381.903,3.960 382.483,4.400 382.800 C 4.840 383.117,5.200 383.657,5.200 384.000 C 5.200 384.343,5.560 384.883,6.000 385.200 C 6.440 385.517,6.800 386.018,6.800 386.314 C 6.800 387.030,12.951 393.200,13.665 393.200 C 13.972 393.200,14.483 393.560,14.800 394.000 C 15.117 394.440,15.614 394.800,15.905 394.800 C 16.196 394.800,16.820 395.160,17.292 395.600 C 17.764 396.040,18.387 396.400,18.675 396.400 C 18.964 396.400,19.200 396.580,19.200 396.800 C 19.200 397.020,19.560 397.200,20.000 397.200 C 20.440 397.200,20.800 397.380,20.800 397.600 C 20.800 397.820,21.340 398.000,22.000 398.000 C 22.660 398.000,23.200 398.180,23.200 398.400 C 23.200 398.620,23.665 398.800,24.233 398.800 C 24.883 398.800,25.204 398.614,25.099 398.300 C 25.007 398.025,24.639 397.798,24.281 397.795 C 23.923 397.793,23.408 397.568,23.135 397.295 C 22.863 397.023,22.327 396.800,21.944 396.800 C 21.561 396.800,21.134 396.617,20.996 396.393 C 20.858 396.170,20.584 396.086,20.387 396.208 C 20.190 396.330,19.708 396.138,19.315 395.783 C 18.922 395.427,17.344 394.316,15.809 393.313 C 11.974 390.809,9.129 387.991,6.891 384.481 C 5.851 382.850,4.719 381.207,4.375 380.832 C 4.031 380.457,3.816 379.953,3.896 379.712 C 3.976 379.471,3.853 379.156,3.621 379.013 C 3.390 378.870,3.200 378.425,3.200 378.025 C 3.200 377.625,2.941 377.083,2.624 376.820 C 2.307 376.557,2.139 376.103,2.251 375.811 C 2.363 375.520,2.262 375.162,2.027 375.017 C 1.792 374.872,1.600 374.153,1.600 373.419 C 1.600 372.652,1.365 371.995,1.046 371.873 C 0.644 371.719,0.547 371.171,0.692 369.878 C 0.809 368.844,0.695 367.782,0.421 367.348 C 0.047 366.755,-0.004 367.385,0.176 370.381 M26.012 398.784 C 25.017 399.414,25.729 399.606,29.840 399.817 C 32.941 399.976,33.583 399.924,32.800 399.577 C 32.250 399.334,31.052 399.233,30.138 399.354 C 28.896 399.519,28.419 399.426,28.250 398.987 C 27.996 398.325,26.895 398.225,26.012 398.784 " stroke="none" fill="#e36304" fill-rule="evenodd"></path><path id="path4" d="M266.400 0.257 C 263.100 1.365,257.600 5.573,257.600 6.990 C 257.600 7.228,257.240 7.683,256.800 8.000 C 256.360 8.317,256.000 8.897,256.000 9.288 C 256.000 9.680,255.820 10.000,255.600 10.000 C 255.380 10.000,255.200 10.439,255.200 10.976 C 255.200 11.513,255.039 12.052,254.842 12.174 C 254.113 12.624,253.344 19.904,253.961 20.521 C 254.202 20.762,254.400 21.734,254.400 22.680 C 254.400 23.626,254.580 24.400,254.800 24.400 C 255.020 24.400,255.200 24.760,255.200 25.200 C 255.200 25.640,255.380 26.000,255.600 26.000 C 255.820 26.000,256.000 26.360,256.000 26.800 C 256.000 27.240,256.180 27.600,256.400 27.600 C 256.620 27.600,256.800 27.878,256.800 28.218 C 256.800 28.558,257.205 29.252,257.700 29.759 C 258.195 30.267,258.979 31.114,259.443 31.641 C 260.405 32.735,261.901 34.000,262.233 34.000 C 262.356 34.000,262.736 34.279,263.077 34.620 C 263.418 34.960,264.215 35.343,264.848 35.470 C 265.482 35.596,266.000 35.858,266.000 36.050 C 266.000 36.242,266.529 36.400,267.176 36.400 C 267.823 36.400,268.464 36.580,268.600 36.800 C 268.922 37.321,272.278 37.321,272.600 36.800 C 272.897 36.320,331.770 36.300,353.200 36.772 C 361.036 36.945,367.570 36.932,367.780 36.743 C 367.989 36.554,368.653 36.400,369.256 36.400 C 369.859 36.400,370.464 36.220,370.600 36.000 C 370.736 35.780,371.197 35.600,371.624 35.600 C 372.051 35.600,372.400 35.420,372.400 35.200 C 372.400 34.980,372.760 34.800,373.200 34.800 C 373.640 34.800,374.000 34.620,374.000 34.400 C 374.000 34.180,374.184 34.000,374.409 34.000 C 375.056 34.000,379.200 29.683,379.200 29.009 C 379.200 28.674,379.380 28.400,379.600 28.400 C 379.820 28.400,380.000 28.119,380.000 27.776 C 380.000 27.433,380.142 27.240,380.315 27.348 C 380.488 27.455,380.670 27.060,380.719 26.471 C 380.767 25.882,380.985 25.340,381.203 25.267 C 381.422 25.193,381.600 24.698,381.600 24.167 C 381.600 23.635,381.780 23.200,382.000 23.200 C 382.565 23.200,382.511 14.597,381.935 12.828 C 381.121 10.327,380.613 9.200,380.302 9.200 C 380.136 9.200,380.000 8.927,380.000 8.594 C 380.000 7.722,374.503 2.382,372.389 1.200 L 370.600 0.200 318.800 0.128 C 290.310 0.088,266.730 0.146,266.400 0.257 " stroke="none" fill="#cc096d" fill-rule="evenodd"></path></g></svg>