<svg id="svg" version="1.1" xmlns="http://www.w3.org/2000/svg" xmlns:xlink="http://www.w3.org/1999/xlink" width="400" height="400" viewBox="0, 0, 400,400"><g id="svgg"><path id="path0" d="M244.000 83.194 C 218.590 95.899,197.080 106.454,196.200 106.647 L 194.600 107.000 194.400 165.400 L 194.200 223.800 195.935 223.768 C 196.889 223.750,197.789 223.570,197.935 223.368 C 198.081 223.165,198.380 222.998,198.600 222.996 C 199.042 222.991,202.083 221.571,202.400 221.221 C 202.774 220.808,206.198 219.198,206.700 219.199 C 206.975 219.200,207.200 219.041,207.200 218.847 C 207.200 218.520,208.461 217.946,209.400 217.843 C 210.509 217.723,211.717 215.589,216.106 206.000 C 226.151 184.050,224.192 185.593,242.600 185.132 C 269.537 184.456,276.810 184.150,277.292 183.668 C 277.550 183.410,278.084 183.200,278.480 183.200 C 278.876 183.200,279.200 183.020,279.200 182.800 C 279.200 182.580,279.571 182.400,280.024 182.400 C 280.477 182.400,280.736 182.220,280.600 182.000 C 280.461 181.774,280.785 181.600,281.343 181.600 C 281.888 181.600,282.393 181.465,282.467 181.300 C 282.659 180.868,285.972 179.200,286.638 179.200 C 286.947 179.200,287.200 179.020,287.200 178.800 C 287.200 178.580,287.386 178.400,287.613 178.400 C 288.676 178.400,291.600 174.607,291.600 173.229 C 291.600 172.799,291.780 172.336,292.000 172.200 C 292.554 171.858,292.554 62.000,292.000 62.000 C 291.780 62.000,291.600 61.550,291.600 61.000 C 291.600 59.373,292.168 59.109,244.000 83.194 M266.088 116.818 C 273.376 118.842,272.258 129.928,264.760 129.991 C 257.271 130.054,255.372 119.180,262.475 116.906 C 264.237 116.342,264.363 116.339,266.088 116.818 M268.000 143.000 C 274.252 146.947,270.373 156.410,263.065 155.039 C 261.005 154.652,258.583 152.350,258.063 150.284 C 256.604 144.490,262.969 139.824,268.000 143.000 M241.993 151.596 C 247.349 154.329,247.065 161.438,241.507 163.754 C 233.897 166.924,229.007 155.479,236.321 151.616 C 238.230 150.608,240.044 150.602,241.993 151.596 M193.200 225.141 C 193.200 225.421,148.763 247.813,143.400 250.236 C 142.520 250.633,141.710 251.068,141.600 251.202 C 141.490 251.336,140.770 251.695,140.000 252.000 C 139.230 252.305,138.510 252.666,138.400 252.803 C 138.141 253.124,109.727 267.197,109.313 267.209 C 109.141 267.214,108.550 267.570,108.000 268.000 C 107.450 268.430,106.685 268.786,106.300 268.791 C 105.915 268.796,105.600 268.980,105.600 269.200 C 105.600 269.420,105.240 269.600,104.800 269.600 C 104.360 269.600,104.000 269.780,104.000 270.000 C 104.000 270.220,103.735 270.400,103.412 270.400 C 103.089 270.400,102.204 270.748,101.447 271.174 C 100.689 271.599,99.378 272.004,98.534 272.074 L 97.000 272.200 96.884 329.200 C 96.821 360.550,96.871 386.926,96.996 387.813 C 97.302 389.989,98.117 389.957,103.000 387.572 C 104.320 386.927,105.548 386.400,105.729 386.400 C 105.909 386.400,106.329 386.128,106.661 385.796 C 106.993 385.464,107.430 385.295,107.632 385.420 C 107.835 385.545,108.001 385.502,108.003 385.324 C 108.007 384.946,109.920 384.000,110.680 384.000 C 110.966 384.000,111.200 383.820,111.200 383.600 C 111.200 383.380,111.560 383.200,112.000 383.200 C 112.440 383.200,112.800 383.020,112.800 382.800 C 112.800 382.580,113.160 382.400,113.600 382.400 C 114.040 382.400,114.400 382.220,114.400 382.000 C 114.400 381.780,114.572 381.600,114.782 381.600 C 114.993 381.600,116.081 381.060,117.200 380.400 C 118.319 379.740,119.587 379.200,120.018 379.200 C 120.448 379.200,120.800 379.020,120.800 378.800 C 120.800 378.580,121.160 378.400,121.600 378.400 C 122.040 378.400,122.400 378.220,122.400 378.000 C 122.400 377.780,122.670 377.600,123.000 377.600 C 123.330 377.600,123.600 377.420,123.600 377.200 C 123.600 376.980,123.960 376.800,124.400 376.800 C 124.840 376.800,125.201 376.665,125.203 376.500 C 125.207 376.141,127.144 375.200,127.880 375.200 C 128.166 375.200,128.400 374.990,128.400 374.733 C 128.400 374.477,128.514 374.380,128.653 374.519 C 128.792 374.658,129.287 374.560,129.753 374.300 C 130.219 374.041,130.720 373.822,130.867 373.814 C 131.013 373.806,131.258 373.675,131.410 373.523 C 131.801 373.133,139.939 369.180,140.252 369.228 C 140.394 369.250,140.621 369.118,140.755 368.934 C 141.198 368.329,143.482 367.216,143.744 367.477 C 143.885 367.618,144.000 367.523,144.000 367.267 C 144.000 367.010,144.270 366.800,144.600 366.800 C 144.930 366.800,145.200 366.620,145.200 366.400 C 145.200 366.180,145.650 366.000,146.200 366.000 C 146.750 366.000,147.201 365.865,147.203 365.700 C 147.207 365.341,149.144 364.400,149.880 364.400 C 150.166 364.400,150.400 364.252,150.400 364.071 C 150.400 363.704,153.979 362.000,154.752 362.000 C 155.024 362.000,155.136 361.820,155.000 361.600 C 154.864 361.380,155.123 361.200,155.576 361.200 C 156.029 361.200,156.400 361.020,156.400 360.800 C 156.400 360.580,156.760 360.400,157.200 360.400 C 157.640 360.400,158.000 360.264,158.000 360.098 C 158.000 359.808,158.617 359.509,161.500 358.402 C 162.215 358.128,162.800 357.715,162.800 357.485 C 162.800 357.255,162.912 357.178,163.048 357.315 C 163.184 357.451,164.804 356.773,166.648 355.809 C 168.492 354.844,170.003 354.178,170.006 354.328 C 170.009 354.477,170.144 354.420,170.306 354.200 C 170.751 353.594,173.199 352.309,173.206 352.677 C 173.209 352.855,173.344 352.820,173.506 352.600 C 173.914 352.045,177.153 350.400,177.838 350.400 C 178.147 350.400,178.400 350.220,178.400 350.000 C 178.400 349.780,178.745 349.600,179.167 349.600 C 179.588 349.600,179.993 349.465,180.067 349.300 C 180.140 349.135,181.460 348.370,183.000 347.600 C 184.540 346.830,185.860 346.065,185.933 345.900 C 186.007 345.735,186.401 345.600,186.810 345.600 C 187.218 345.600,187.664 345.420,187.800 345.200 C 187.936 344.980,188.305 344.800,188.619 344.800 C 189.786 344.800,194.000 340.671,194.000 339.528 C 194.000 339.102,194.180 338.864,194.400 339.000 C 195.375 339.602,194.890 315.502,193.900 314.133 C 192.653 312.410,191.415 310.828,185.105 302.895 C 176.023 291.478,176.038 291.589,181.800 279.422 C 182.786 277.338,184.115 274.501,184.753 273.117 C 185.391 271.733,186.898 268.530,188.103 266.000 C 190.358 261.261,191.647 258.489,193.670 254.020 L 194.838 251.441 194.812 239.020 C 194.796 231.270,194.638 226.550,194.393 226.467 C 194.177 226.393,194.000 225.988,194.000 225.567 C 194.000 225.145,193.820 224.800,193.600 224.800 C 193.380 224.800,193.200 224.953,193.200 225.141 M378.250 269.084 C 378.094 269.240,370.729 269.518,361.883 269.702 C 353.037 269.887,339.500 270.201,331.800 270.400 C 296.607 271.311,295.573 271.321,294.507 270.750 C 293.244 270.074,293.021 270.372,290.288 276.360 C 288.385 280.531,287.682 282.037,284.109 289.600 C 283.121 291.690,281.703 294.705,280.957 296.300 C 280.211 297.895,278.988 300.505,278.240 302.100 C 274.603 309.859,272.522 314.343,270.213 319.400 C 269.610 320.720,268.124 323.870,266.910 326.400 C 265.696 328.930,264.256 331.990,263.708 333.200 C 263.161 334.410,262.122 336.660,261.400 338.200 C 259.962 341.267,257.772 345.980,255.941 349.949 C 254.246 353.620,252.162 358.067,250.199 362.200 C 248.334 366.125,246.112 370.882,244.969 373.400 C 244.569 374.280,244.091 375.104,243.907 375.232 C 243.114 375.783,244.125 376.800,245.466 376.800 C 246.298 376.800,246.747 376.961,246.597 377.206 C 246.304 377.679,250.875 377.605,251.214 377.131 C 251.331 376.966,258.035 376.809,266.111 376.782 C 274.507 376.754,280.891 376.576,281.021 376.366 C 281.151 376.155,287.424 376.000,295.800 376.000 C 304.537 376.000,310.446 375.848,310.587 375.621 C 310.726 375.396,315.995 375.225,323.511 375.202 C 330.490 375.180,337.280 375.086,338.600 374.993 C 339.920 374.901,342.630 374.755,344.622 374.669 C 348.330 374.510,351.200 373.845,351.200 373.145 C 351.200 372.929,351.366 372.856,351.570 372.981 C 351.773 373.107,352.463 372.713,353.103 372.105 C 354.413 370.861,356.417 368.095,355.677 368.553 C 355.412 368.716,355.647 368.002,356.198 366.965 C 356.749 365.929,357.200 364.832,357.200 364.528 C 357.200 364.224,357.459 363.876,357.775 363.754 C 358.091 363.633,358.259 363.297,358.147 363.007 C 358.036 362.718,358.138 362.362,358.373 362.217 C 358.608 362.072,358.800 361.603,358.800 361.176 C 358.800 360.749,358.980 360.400,359.200 360.400 C 359.420 360.400,359.600 360.040,359.600 359.600 C 359.600 359.160,359.759 358.800,359.953 358.800 C 360.148 358.800,360.405 358.485,360.525 358.100 C 360.645 357.715,361.349 356.050,362.090 354.400 C 362.831 352.750,363.698 350.815,364.016 350.100 C 364.335 349.385,364.731 348.800,364.898 348.800 C 365.064 348.800,365.200 348.541,365.200 348.224 C 365.200 347.907,365.918 346.242,366.795 344.524 C 367.672 342.806,368.392 341.085,368.395 340.700 C 368.398 340.315,368.580 340.000,368.800 340.000 C 369.020 340.000,369.200 339.775,369.201 339.500 C 369.202 339.225,370.012 337.388,371.001 335.418 C 371.990 333.448,372.800 331.603,372.800 331.318 C 372.800 331.033,372.991 330.800,373.224 330.800 C 373.457 330.800,373.544 330.632,373.417 330.428 C 373.291 330.223,373.373 329.940,373.600 329.800 C 373.827 329.660,373.909 329.377,373.783 329.172 C 373.656 328.968,373.743 328.800,373.976 328.800 C 374.209 328.800,374.400 328.530,374.400 328.200 C 374.400 327.870,374.541 327.600,374.713 327.600 C 374.885 327.600,375.066 327.105,375.116 326.500 C 375.166 325.895,375.385 325.340,375.603 325.267 C 375.822 325.193,376.000 324.788,376.000 324.367 C 376.000 323.945,376.180 323.600,376.400 323.600 C 376.620 323.600,376.800 323.324,376.800 322.986 C 376.800 322.648,377.091 321.928,377.446 321.386 C 377.801 320.844,377.936 320.397,377.746 320.394 C 377.556 320.391,377.581 320.256,377.802 320.094 C 378.346 319.697,380.800 314.826,380.800 314.144 C 380.800 313.845,380.980 313.600,381.200 313.600 C 381.420 313.600,381.600 313.240,381.600 312.800 C 381.600 312.360,381.780 312.000,382.000 312.000 C 382.220 312.000,382.400 311.640,382.400 311.200 C 382.400 310.760,382.580 310.400,382.800 310.400 C 383.020 310.400,383.200 310.040,383.200 309.600 C 383.200 309.160,383.380 308.800,383.600 308.800 C 383.820 308.800,384.001 308.485,384.001 308.100 C 384.002 307.715,384.320 306.860,384.708 306.200 C 385.095 305.540,385.660 304.280,385.962 303.400 C 386.265 302.520,386.633 301.710,386.780 301.600 C 387.186 301.295,389.727 295.870,389.731 295.300 C 389.732 295.025,389.894 294.800,390.090 294.800 C 390.287 294.800,390.345 294.635,390.221 294.434 C 390.097 294.233,390.199 294.000,390.448 293.917 C 390.696 293.835,390.900 293.279,390.900 292.683 C 390.900 292.088,391.058 291.600,391.250 291.600 C 391.443 291.600,391.600 291.255,391.600 290.833 C 391.600 290.412,391.735 290.007,391.900 289.933 C 392.065 289.860,392.627 288.900,393.150 287.800 C 393.672 286.700,394.617 284.740,395.250 283.444 C 395.882 282.148,396.400 280.843,396.400 280.544 C 396.400 280.245,396.536 280.000,396.702 280.000 C 396.869 280.000,397.229 279.460,397.502 278.800 C 397.776 278.140,398.224 277.060,398.498 276.400 C 398.771 275.740,399.101 275.200,399.231 275.200 C 399.532 275.200,399.602 274.787,399.858 271.500 L 400.068 268.800 389.301 268.800 C 383.379 268.800,378.406 268.928,378.250 269.084 " stroke="none" fill="#94dbfc" fill-rule="evenodd"></path><path id="path1" d="M97.338 61.208 C 97.205 61.873,96.938 62.515,96.744 62.635 C 96.286 62.918,96.303 171.414,96.762 172.319 C 96.951 172.694,97.353 173.540,97.653 174.200 C 97.954 174.860,98.380 175.586,98.600 175.813 C 99.204 176.437,102.371 178.041,148.200 200.945 C 171.520 212.600,191.140 222.523,191.800 222.995 C 194.396 224.855,194.180 229.635,194.400 165.400 L 194.600 107.000 196.200 106.648 C 197.825 106.291,247.760 81.626,247.462 81.328 C 247.247 81.114,228.239 90.480,228.067 90.886 C 227.993 91.059,227.588 91.200,227.167 91.200 C 226.745 91.200,226.400 91.380,226.400 91.600 C 226.400 91.820,226.040 92.000,225.600 92.000 C 225.160 92.000,224.800 92.180,224.800 92.400 C 224.800 92.620,224.440 92.800,224.000 92.800 C 223.560 92.800,223.200 92.980,223.200 93.200 C 223.200 93.420,222.855 93.600,222.433 93.600 C 222.012 93.600,221.607 93.742,221.533 93.915 C 221.460 94.088,220.320 94.749,219.000 95.383 C 217.680 96.018,212.328 98.646,207.106 101.224 C 197.887 105.775,196.138 106.425,193.200 106.391 C 192.170 106.379,179.521 100.246,145.343 83.187 C 96.113 58.616,97.710 59.348,97.338 61.208 M285.359 62.144 C 283.137 63.275,277.107 66.270,271.959 68.800 C 266.812 71.330,262.540 73.535,262.467 73.700 C 262.393 73.865,261.988 74.000,261.567 74.000 C 261.145 74.000,260.800 74.180,260.800 74.400 C 260.800 74.620,260.440 74.800,260.000 74.800 C 259.560 74.800,259.200 74.980,259.200 75.200 C 259.200 75.420,258.840 75.600,258.400 75.600 C 257.960 75.600,257.599 75.735,257.597 75.900 C 257.593 76.259,255.656 77.200,254.920 77.200 C 254.634 77.200,254.400 77.380,254.400 77.600 C 254.400 77.820,254.055 78.000,253.633 78.000 C 253.212 78.000,252.807 78.135,252.733 78.300 C 252.660 78.465,251.643 79.041,250.474 79.581 C 249.304 80.120,248.242 80.733,248.112 80.942 C 247.982 81.152,248.039 81.237,248.238 81.131 C 248.437 81.025,257.690 76.408,268.800 70.870 C 279.910 65.332,289.270 60.624,289.600 60.407 C 291.082 59.432,289.058 60.261,285.359 62.144 M255.200 184.800 L 249.800 185.036 257.200 185.067 C 261.270 185.084,266.580 184.972,269.000 184.817 C 274.855 184.443,263.694 184.429,255.200 184.800 M230.200 185.572 C 228.076 185.933,226.887 186.601,225.194 188.384 C 223.620 190.042,221.637 193.888,216.108 206.000 C 212.993 212.825,211.177 216.320,210.247 217.283 C 209.671 217.878,209.200 218.733,209.200 219.183 C 209.200 219.632,209.020 220.000,208.800 220.000 C 208.580 220.000,208.400 220.360,208.400 220.800 C 208.400 221.240,208.220 221.600,208.000 221.600 C 207.780 221.600,207.600 221.960,207.600 222.400 C 207.600 222.840,207.420 223.200,207.200 223.200 C 206.980 223.200,206.800 223.560,206.800 224.000 C 206.800 224.440,206.620 224.800,206.400 224.800 C 206.180 224.800,206.000 225.149,206.000 225.576 C 206.000 226.003,205.820 226.464,205.600 226.600 C 205.380 226.736,205.200 227.207,205.200 227.647 C 205.200 228.087,205.020 228.336,204.800 228.200 C 204.573 228.060,204.400 228.396,204.400 228.976 C 204.400 229.539,204.249 230.000,204.064 230.000 C 203.879 230.000,203.490 230.720,203.200 231.600 C 202.910 232.480,202.521 233.200,202.336 233.200 C 202.151 233.200,202.000 233.465,202.000 233.788 C 202.000 234.111,201.640 235.017,201.200 235.800 C 200.760 236.583,200.400 237.489,200.400 237.812 C 200.400 238.135,200.220 238.400,200.000 238.400 C 199.780 238.400,199.600 238.850,199.600 239.400 C 199.600 239.950,199.465 240.401,199.300 240.403 C 198.941 240.407,198.000 242.344,198.000 243.080 C 198.000 243.366,197.820 243.600,197.600 243.600 C 197.380 243.600,197.200 243.866,197.200 244.190 C 197.200 244.515,196.849 245.357,196.421 246.062 C 195.992 246.767,195.734 247.492,195.846 247.675 C 195.959 247.857,195.804 248.100,195.503 248.216 C 195.192 248.335,194.914 249.111,194.861 250.012 C 194.810 250.884,194.258 252.723,193.635 254.099 C 191.639 258.505,190.344 261.292,188.103 266.000 C 186.898 268.530,185.391 271.733,184.753 273.117 C 184.115 274.501,182.786 277.338,181.800 279.422 C 175.616 292.480,174.823 290.092,192.810 312.600 C 193.689 313.700,194.589 315.256,194.809 316.059 C 195.029 316.861,195.477 317.621,195.804 317.746 C 196.132 317.872,196.400 318.158,196.400 318.383 C 196.400 318.858,197.290 320.030,199.047 321.868 C 199.732 322.586,200.228 323.238,200.149 323.318 C 200.070 323.397,200.814 324.306,201.802 325.338 C 202.791 326.370,203.600 327.364,203.600 327.548 C 203.600 327.731,204.140 328.446,204.800 329.137 C 205.460 329.828,206.000 330.535,206.000 330.708 C 206.000 330.881,206.360 331.283,206.800 331.600 C 207.240 331.917,207.600 332.367,207.600 332.600 C 207.600 332.833,207.960 333.283,208.400 333.600 C 208.840 333.917,209.200 334.407,209.200 334.688 C 209.200 334.970,209.380 335.200,209.600 335.200 C 209.820 335.200,210.000 335.460,210.000 335.777 C 210.000 336.095,210.318 336.590,210.707 336.877 C 211.096 337.165,211.757 337.940,212.176 338.600 C 212.594 339.260,213.536 340.403,214.269 341.140 C 215.001 341.877,215.600 342.634,215.600 342.822 C 215.600 343.010,216.009 343.577,216.509 344.082 C 217.008 344.587,217.855 345.630,218.390 346.400 C 218.925 347.170,219.686 348.091,220.081 348.447 C 220.476 348.803,220.800 349.308,220.800 349.571 C 220.800 349.833,220.980 349.936,221.200 349.800 C 221.420 349.664,221.600 349.845,221.600 350.202 C 221.600 350.559,222.140 351.306,222.800 351.861 C 223.460 352.417,224.000 353.037,224.000 353.239 C 224.000 353.622,225.704 355.693,226.880 356.739 C 227.253 357.071,227.483 357.466,227.389 357.618 C 227.296 357.769,227.935 358.622,228.810 359.515 C 229.684 360.407,230.400 361.254,230.400 361.397 C 230.400 361.540,230.625 361.894,230.900 362.184 C 231.175 362.474,231.760 363.215,232.200 363.830 C 233.415 365.529,234.903 367.326,235.692 368.047 C 236.081 368.403,236.401 368.853,236.403 369.047 C 236.404 369.241,237.116 370.120,237.983 371.000 C 238.851 371.880,239.570 372.767,239.580 372.972 C 239.606 373.451,242.382 376.000,242.879 376.000 C 243.475 376.000,244.169 375.133,244.963 373.400 C 246.288 370.506,248.460 365.860,250.199 362.200 C 252.162 358.067,254.246 353.620,255.941 349.949 C 257.772 345.980,259.962 341.267,261.400 338.200 C 262.122 336.660,263.161 334.410,263.708 333.200 C 264.256 331.990,265.696 328.930,266.910 326.400 C 268.124 323.870,269.610 320.720,270.213 319.400 C 272.522 314.343,274.603 309.859,278.240 302.100 C 278.988 300.505,280.211 297.895,280.957 296.300 C 281.703 294.705,283.121 291.690,284.109 289.600 C 287.682 282.037,288.385 280.531,290.288 276.360 C 293.021 270.372,293.244 270.074,294.507 270.750 C 295.573 271.321,296.607 271.311,331.800 270.400 C 339.500 270.201,353.037 269.887,361.883 269.702 C 370.729 269.518,378.094 269.240,378.250 269.084 C 378.406 268.928,377.378 268.809,375.967 268.820 C 371.155 268.858,318.335 270.217,305.122 270.644 C 292.343 271.056,292.950 271.332,285.214 261.600 C 282.328 257.970,279.747 254.730,279.478 254.400 C 279.209 254.070,278.361 252.990,277.594 252.000 C 276.828 251.010,276.099 250.110,275.975 250.000 C 275.851 249.890,274.064 247.640,272.002 245.000 C 269.941 242.360,267.252 238.944,266.027 237.410 C 264.802 235.875,263.582 234.345,263.316 234.010 C 240.939 205.824,240.573 205.361,237.573 201.400 C 236.406 199.860,233.806 196.525,231.794 193.990 C 225.247 185.738,224.952 186.154,237.691 185.655 L 246.200 185.322 239.000 185.311 C 235.040 185.305,231.080 185.422,230.200 185.572 M0.366 225.889 C 0.135 226.497,0.030 248.775,0.095 283.585 L 0.200 340.290 2.164 342.145 C 3.244 343.165,4.369 344.000,4.664 344.000 C 4.959 344.000,5.200 344.180,5.200 344.400 C 5.200 344.620,5.560 344.800,6.000 344.800 C 6.440 344.800,6.800 344.980,6.800 345.200 C 6.800 345.420,7.160 345.600,7.600 345.600 C 8.040 345.600,8.400 345.780,8.400 346.000 C 8.400 346.220,8.760 346.400,9.200 346.400 C 9.640 346.400,10.000 346.580,10.000 346.800 C 10.000 347.020,10.360 347.200,10.800 347.200 C 11.240 347.200,11.600 347.380,11.600 347.600 C 11.600 347.820,11.870 348.000,12.200 348.000 C 12.530 348.000,12.800 348.180,12.800 348.400 C 12.800 348.620,13.160 348.800,13.600 348.800 C 14.040 348.800,14.400 348.980,14.400 349.200 C 14.400 349.420,14.850 349.600,15.400 349.600 C 15.950 349.600,16.400 349.780,16.400 350.000 C 16.400 350.220,16.670 350.400,17.000 350.400 C 17.330 350.400,17.600 350.580,17.600 350.800 C 17.600 351.020,17.960 351.200,18.400 351.200 C 18.840 351.200,19.200 351.380,19.200 351.600 C 19.200 351.820,19.411 352.000,19.668 352.000 C 20.391 352.000,25.600 354.536,25.600 354.888 C 25.600 355.060,25.846 355.200,26.147 355.200 C 26.448 355.200,28.282 356.010,30.222 357.000 C 32.162 357.990,33.986 358.800,34.275 358.800 C 34.564 358.800,34.800 358.980,34.800 359.200 C 34.800 359.420,35.160 359.600,35.600 359.600 C 36.040 359.600,36.400 359.780,36.400 360.000 C 36.400 360.220,36.760 360.400,37.200 360.400 C 37.640 360.400,38.000 360.580,38.000 360.800 C 38.000 361.020,38.360 361.200,38.800 361.200 C 39.240 361.200,39.600 361.380,39.600 361.600 C 39.600 361.820,39.960 362.000,40.400 362.000 C 40.840 362.000,41.200 362.180,41.200 362.400 C 41.200 362.620,41.560 362.800,42.000 362.800 C 42.440 362.800,42.800 362.980,42.800 363.200 C 42.800 363.420,43.160 363.600,43.600 363.600 C 44.040 363.600,44.400 363.780,44.400 364.000 C 44.400 364.220,44.760 364.400,45.200 364.400 C 45.640 364.400,46.000 364.546,46.000 364.725 C 46.000 364.904,46.630 365.298,47.400 365.600 C 48.170 365.902,48.800 366.296,48.800 366.475 C 48.800 366.654,49.160 366.800,49.600 366.800 C 50.040 366.800,50.400 366.980,50.400 367.200 C 50.400 367.420,50.535 367.579,50.700 367.553 C 51.604 367.410,52.415 367.652,52.200 368.000 C 52.064 368.220,52.323 368.400,52.776 368.400 C 53.229 368.400,53.600 368.580,53.600 368.800 C 53.600 369.020,53.834 369.200,54.120 369.200 C 54.856 369.200,56.793 370.141,56.797 370.500 C 56.799 370.665,57.160 370.800,57.600 370.800 C 58.040 370.800,58.400 370.980,58.400 371.200 C 58.400 371.420,58.760 371.600,59.200 371.600 C 59.640 371.600,60.000 371.810,60.000 372.067 C 60.000 372.323,60.114 372.420,60.252 372.281 C 60.391 372.142,61.516 372.562,62.752 373.213 C 63.989 373.865,65.225 374.399,65.500 374.399 C 65.775 374.400,66.000 374.580,66.000 374.800 C 66.000 375.020,66.360 375.200,66.800 375.200 C 67.240 375.200,67.600 375.380,67.600 375.600 C 67.600 375.820,67.960 376.000,68.400 376.000 C 68.840 376.000,69.200 376.180,69.200 376.400 C 69.200 376.620,69.560 376.800,70.000 376.800 C 70.440 376.800,70.800 376.980,70.800 377.200 C 70.800 377.420,71.160 377.600,71.600 377.600 C 72.040 377.600,72.400 377.780,72.400 378.000 C 72.400 378.220,72.760 378.400,73.200 378.400 C 73.640 378.400,74.000 378.580,74.000 378.800 C 74.000 379.020,74.345 379.200,74.767 379.200 C 75.188 379.200,75.593 379.336,75.667 379.502 C 75.740 379.668,77.060 380.432,78.600 381.200 C 80.140 381.968,81.460 382.732,81.533 382.898 C 81.607 383.064,81.886 383.200,82.154 383.200 C 82.863 383.200,84.793 384.149,84.797 384.500 C 84.799 384.665,85.261 384.800,85.824 384.800 C 86.404 384.800,86.740 384.973,86.600 385.200 C 86.464 385.420,86.598 385.600,86.897 385.600 C 87.651 385.600,89.593 386.535,89.597 386.900 C 89.599 387.065,89.834 387.200,90.120 387.200 C 90.880 387.200,92.793 388.146,92.797 388.524 C 92.799 388.702,92.961 388.748,93.157 388.626 C 93.354 388.505,94.277 388.674,95.208 389.003 C 96.139 389.331,96.923 389.600,96.950 389.600 C 96.978 389.600,97.000 363.185,97.000 330.900 L 97.000 272.200 98.534 272.074 C 99.378 272.004,100.689 271.599,101.447 271.174 C 102.204 270.748,103.089 270.400,103.412 270.400 C 103.735 270.400,104.000 270.220,104.000 270.000 C 104.000 269.780,104.360 269.600,104.800 269.600 C 105.240 269.600,105.600 269.409,105.600 269.176 C 105.600 268.943,105.465 268.818,105.300 268.898 C 105.135 268.979,104.100 269.459,103.000 269.966 C 101.900 270.473,100.723 271.026,100.384 271.195 C 100.045 271.364,98.695 271.617,97.384 271.758 L 95.000 272.015 47.872 248.456 C 0.866 224.958,0.742 224.899,0.366 225.889 M192.100 225.482 C 191.605 225.578,191.200 225.823,191.200 226.028 C 191.200 226.233,190.840 226.400,190.400 226.400 C 189.960 226.400,189.600 226.580,189.600 226.800 C 189.600 227.020,189.396 227.200,189.146 227.200 C 188.484 227.200,143.541 249.674,143.761 249.895 C 143.945 250.078,193.200 225.617,193.200 225.342 C 193.200 225.264,193.155 225.225,193.100 225.254 C 193.045 225.284,192.595 225.387,192.100 225.482 M124.450 259.285 C 114.248 264.390,106.100 268.633,106.345 268.715 C 106.589 268.796,107.314 268.489,107.956 268.031 C 108.598 267.574,109.237 267.200,109.375 267.200 C 109.763 267.200,138.173 253.087,138.400 252.782 C 138.510 252.634,139.275 252.271,140.100 251.976 C 140.925 251.681,141.600 251.295,141.600 251.120 C 141.600 250.944,141.859 250.800,142.176 250.800 C 142.493 250.800,142.864 250.620,143.000 250.400 C 143.372 249.799,144.236 249.385,124.450 259.285 M380.505 268.687 C 381.114 268.779,382.014 268.777,382.505 268.682 C 382.997 268.587,382.500 268.511,381.400 268.514 C 380.300 268.517,379.897 268.595,380.505 268.687 M389.280 268.698 C 391.194 268.771,394.434 268.771,396.480 268.698 C 398.526 268.626,396.960 268.566,393.000 268.565 C 389.040 268.565,387.366 268.624,389.280 268.698 " stroke="none" fill="#b3e4fc" fill-rule="evenodd"></path><path id="path2" d="M192.290 10.984 C 191.680 11.302,191.050 11.579,190.890 11.599 C 189.647 11.754,188.848 12.154,189.068 12.511 C 189.235 12.780,189.079 12.839,188.645 12.673 C 188.257 12.524,188.059 12.572,188.190 12.785 C 188.318 12.991,188.069 13.349,187.637 13.580 C 186.653 14.107,186.281 14.115,186.597 13.605 C 186.739 13.375,186.572 13.313,186.198 13.456 C 185.844 13.592,185.642 13.933,185.750 14.213 C 185.882 14.558,185.622 14.688,184.949 14.614 C 184.401 14.554,183.715 14.743,183.424 15.033 C 183.133 15.324,182.784 15.450,182.648 15.314 C 182.511 15.178,182.400 15.287,182.400 15.557 C 182.400 15.827,182.220 15.936,182.000 15.800 C 181.780 15.664,181.600 15.726,181.600 15.937 C 181.600 16.149,181.015 16.526,180.301 16.775 C 179.018 17.222,179.013 17.234,179.895 17.714 C 180.387 17.981,196.034 25.839,214.667 35.176 C 253.241 54.505,252.400 53.976,252.400 58.938 C 252.400 64.034,253.313 63.457,214.551 82.852 L 180.228 100.027 176.214 98.011 C 174.006 96.902,171.990 95.996,171.733 95.997 C 171.477 95.999,171.207 95.856,171.133 95.680 C 170.949 95.238,142.384 81.083,142.149 81.317 C 141.703 81.764,191.816 106.378,193.200 106.393 C 196.143 106.423,197.891 105.773,207.106 101.224 C 212.328 98.646,217.680 96.018,219.000 95.383 C 220.320 94.749,221.460 94.088,221.533 93.915 C 221.607 93.742,222.012 93.600,222.433 93.600 C 222.855 93.600,223.200 93.420,223.200 93.200 C 223.200 92.980,223.560 92.800,224.000 92.800 C 224.440 92.800,224.800 92.620,224.800 92.400 C 224.800 92.180,225.160 92.000,225.600 92.000 C 226.040 92.000,226.400 91.820,226.400 91.600 C 226.400 91.380,226.745 91.200,227.167 91.200 C 227.588 91.200,227.993 91.058,228.067 90.885 C 228.181 90.613,233.555 87.912,249.200 80.263 C 251.070 79.348,252.660 78.465,252.733 78.300 C 252.807 78.135,253.212 78.000,253.633 78.000 C 254.055 78.000,254.400 77.820,254.400 77.600 C 254.400 77.380,254.634 77.200,254.920 77.200 C 255.656 77.200,257.593 76.259,257.597 75.900 C 257.599 75.735,257.960 75.600,258.400 75.600 C 258.840 75.600,259.200 75.420,259.200 75.200 C 259.200 74.980,259.560 74.800,260.000 74.800 C 260.440 74.800,260.800 74.620,260.800 74.400 C 260.800 74.180,261.145 74.000,261.567 74.000 C 261.988 74.000,262.393 73.865,262.467 73.700 C 262.540 73.535,264.940 72.249,267.800 70.843 C 270.660 69.437,276.975 66.333,281.833 63.945 C 287.330 61.243,290.667 59.383,290.667 59.019 C 290.667 58.698,290.544 58.511,290.394 58.604 C 290.243 58.697,289.904 58.367,289.638 57.872 C 289.128 56.919,288.955 56.800,285.689 55.159 C 284.549 54.586,283.732 54.001,283.875 53.859 C 284.017 53.716,283.839 53.600,283.479 53.600 C 283.119 53.600,281.702 53.030,280.331 52.333 C 278.960 51.637,277.605 51.067,277.319 51.067 C 277.034 51.067,276.800 50.960,276.800 50.830 C 276.800 50.699,276.421 50.356,275.958 50.067 C 275.261 49.631,275.169 49.632,275.423 50.070 C 275.591 50.362,275.221 50.150,274.600 49.600 C 273.979 49.050,273.601 48.825,273.759 49.100 C 273.919 49.377,273.842 49.600,273.586 49.600 C 273.333 49.600,273.027 49.225,272.907 48.768 C 272.757 48.194,272.458 47.996,271.945 48.130 C 271.535 48.237,271.200 48.181,271.200 48.004 C 271.200 47.594,267.202 45.490,267.194 45.896 C 267.191 46.063,267.056 46.020,266.894 45.799 C 266.353 45.062,264.482 44.302,263.976 44.615 C 263.661 44.809,263.577 44.760,263.749 44.482 C 264.048 43.999,262.662 43.072,262.253 43.481 C 262.114 43.620,262.000 43.523,262.000 43.267 C 262.000 42.727,261.148 42.813,260.683 43.400 C 260.506 43.624,260.418 43.452,260.483 43.009 C 260.547 42.574,260.375 42.191,260.100 42.159 C 259.825 42.127,259.319 42.078,258.976 42.050 C 258.613 42.021,258.472 41.808,258.638 41.538 C 258.806 41.266,258.749 41.184,258.498 41.339 C 257.894 41.713,256.753 41.200,257.064 40.696 C 257.208 40.464,257.134 40.394,256.897 40.540 C 256.432 40.827,254.007 39.601,254.003 39.076 C 254.001 38.898,253.840 38.851,253.645 38.972 C 253.450 39.093,253.068 38.923,252.796 38.596 C 252.524 38.268,252.054 38.000,251.751 38.000 C 251.448 38.000,251.200 37.809,251.200 37.576 C 251.200 37.343,251.035 37.255,250.832 37.380 C 250.630 37.505,250.193 37.336,249.861 37.004 C 249.529 36.672,249.010 36.400,248.709 36.400 C 248.407 36.400,247.944 36.184,247.680 35.920 C 247.416 35.656,247.200 35.594,247.200 35.782 C 247.200 35.970,246.839 35.797,246.398 35.398 C 245.956 34.998,245.485 34.782,245.350 34.917 C 245.215 35.052,244.842 34.899,244.520 34.577 C 244.199 34.256,243.770 34.095,243.568 34.220 C 243.365 34.345,243.200 34.246,243.200 34.000 C 243.200 33.754,243.020 33.664,242.800 33.800 C 242.580 33.936,242.400 33.827,242.400 33.557 C 242.400 33.287,242.283 33.184,242.140 33.327 C 241.996 33.470,241.623 33.275,241.310 32.894 C 240.958 32.465,240.853 32.429,241.035 32.800 C 241.197 33.130,240.863 32.976,240.294 32.458 C 239.725 31.940,239.066 31.636,238.830 31.782 C 238.593 31.928,238.400 31.846,238.400 31.600 C 238.400 31.354,238.220 31.264,238.000 31.400 C 237.780 31.536,237.600 31.457,237.600 31.224 C 237.600 30.991,237.330 30.800,237.000 30.800 C 236.670 30.800,236.400 30.664,236.400 30.498 C 236.400 30.163,234.126 29.068,233.854 29.272 C 233.761 29.342,233.316 29.067,232.867 28.661 C 232.404 28.242,231.839 28.052,231.563 28.223 C 231.257 28.412,231.180 28.357,231.355 28.074 C 231.525 27.797,231.201 27.518,230.516 27.350 C 229.902 27.200,229.268 26.880,229.106 26.638 C 228.912 26.349,228.810 26.390,228.806 26.761 C 228.802 27.142,228.563 27.049,228.066 26.476 C 227.483 25.803,227.223 25.729,226.807 26.114 C 226.395 26.496,226.343 26.493,226.565 26.100 C 226.740 25.790,226.602 25.600,226.200 25.600 C 225.813 25.600,225.667 25.415,225.838 25.138 C 226.007 24.864,225.949 24.785,225.694 24.942 C 225.458 25.088,225.023 24.966,224.728 24.671 C 224.433 24.376,223.711 24.014,223.124 23.867 C 222.537 23.719,221.818 23.373,221.528 23.097 C 221.238 22.821,220.100 22.146,219.000 21.598 C 217.900 21.049,216.940 20.465,216.867 20.300 C 216.793 20.135,216.288 20.000,215.743 20.000 C 215.089 20.000,214.851 19.841,215.042 19.532 C 215.241 19.211,215.107 19.150,214.615 19.339 C 214.155 19.515,213.691 19.360,213.320 18.907 C 213.001 18.518,212.866 18.443,213.019 18.740 C 213.243 19.177,213.132 19.192,212.437 18.820 C 211.964 18.567,211.683 18.189,211.812 17.980 C 211.942 17.771,211.687 17.600,211.247 17.600 C 210.807 17.600,210.334 17.417,210.196 17.193 C 210.058 16.970,209.790 16.883,209.600 17.000 C 209.410 17.117,209.138 17.023,208.994 16.790 C 208.850 16.557,208.027 16.084,207.166 15.740 C 206.305 15.395,205.600 14.933,205.600 14.714 C 205.600 14.494,205.330 14.418,205.000 14.545 C 204.670 14.671,204.400 14.623,204.400 14.437 C 204.400 13.989,200.398 12.254,199.491 12.309 C 199.102 12.332,198.887 12.182,199.015 11.976 C 199.214 11.654,198.676 11.510,197.745 11.634 C 197.604 11.653,197.355 11.450,197.190 11.184 C 197.026 10.918,196.195 10.630,195.345 10.544 C 194.220 10.431,193.963 10.497,194.400 10.788 C 194.887 11.112,194.826 11.189,194.076 11.194 C 193.561 11.197,193.262 11.023,193.400 10.800 C 193.724 10.276,193.611 10.295,192.290 10.984 M98.414 58.774 C 97.894 59.745,97.893 60.000,98.410 60.000 C 98.635 60.000,108.299 64.725,119.886 70.500 C 144.182 82.609,141.600 81.381,141.600 80.833 C 141.600 80.595,141.240 80.400,140.800 80.400 C 140.360 80.400,140.000 80.256,140.000 80.080 C 140.000 79.905,139.325 79.519,138.500 79.224 C 137.675 78.929,136.910 78.578,136.800 78.444 C 136.421 77.982,134.810 77.200,134.239 77.200 C 133.924 77.200,133.607 77.057,133.533 76.882 C 133.411 76.590,125.110 72.426,106.600 63.373 C 99.303 59.804,98.664 59.395,98.992 58.500 C 99.277 57.722,98.875 57.912,98.414 58.774 M94.226 176.620 C 93.156 177.175,93.079 177.200,92.416 177.200 C 92.204 177.200,91.678 177.579,91.246 178.043 C 90.814 178.506,90.256 178.758,90.005 178.603 C 89.755 178.448,89.192 178.645,88.756 179.040 C 88.319 179.435,87.686 179.799,87.350 179.849 C 86.171 180.022,85.551 180.398,85.795 180.793 C 85.942 181.030,85.767 181.086,85.363 180.930 C 84.963 180.777,84.503 180.918,84.242 181.275 C 83.799 181.880,83.559 182.000,82.786 182.000 C 80.750 182.000,87.509 185.624,117.073 200.382 C 135.733 209.697,151.579 217.746,152.286 218.268 C 156.168 221.139,155.914 227.947,151.821 230.720 C 150.487 231.624,83.425 265.200,82.954 265.200 C 82.795 265.200,67.294 257.531,48.508 248.158 C 29.722 238.784,14.267 231.200,14.163 231.303 C 14.060 231.407,32.252 240.623,54.591 251.783 L 95.207 272.074 97.303 271.815 C 100.020 271.478,94.983 273.892,144.828 249.046 C 168.934 237.031,188.869 227.200,189.128 227.200 C 189.388 227.200,189.600 227.020,189.600 226.800 C 189.600 226.580,189.960 226.400,190.400 226.400 C 190.840 226.400,191.200 226.233,191.200 226.028 C 191.200 225.823,191.591 225.598,192.069 225.528 C 195.941 224.958,193.693 223.706,145.876 199.794 C 121.011 187.360,100.425 176.987,100.130 176.742 C 99.324 176.073,95.436 175.993,94.226 176.620 M318.171 183.300 C 318.171 183.867,321.105 187.905,326.091 194.200 C 334.456 204.763,334.732 205.110,341.495 213.613 C 343.863 216.590,346.275 219.650,346.855 220.413 C 347.435 221.176,348.245 222.181,348.655 222.647 C 349.065 223.112,349.850 224.083,350.400 224.803 C 350.950 225.523,354.683 230.249,358.694 235.304 C 366.937 245.690,367.439 246.684,366.376 250.511 C 364.983 255.527,363.315 256.049,347.417 256.448 C 340.147 256.630,327.540 256.963,319.400 257.187 C 311.260 257.411,299.805 257.713,293.945 257.860 L 283.289 258.125 282.345 257.124 C 281.825 256.573,280.590 255.094,279.600 253.838 C 278.610 252.581,277.465 251.159,277.055 250.677 C 276.645 250.195,275.836 249.170,275.257 248.400 C 274.678 247.630,274.109 246.910,273.992 246.800 C 273.875 246.690,273.159 245.790,272.400 244.800 C 271.641 243.810,270.918 242.910,270.792 242.800 C 270.666 242.690,269.679 241.430,268.600 240.000 C 267.521 238.570,266.526 237.310,266.390 237.200 C 266.254 237.090,265.179 235.740,264.000 234.200 C 262.821 232.660,261.754 231.310,261.628 231.200 C 261.503 231.090,260.772 230.190,260.006 229.200 C 259.239 228.210,258.389 227.130,258.118 226.800 C 257.847 226.470,255.361 223.320,252.593 219.800 C 249.825 216.280,247.203 212.950,246.766 212.400 C 246.330 211.850,245.574 210.874,245.086 210.231 C 244.599 209.588,243.795 208.651,243.300 208.149 C 242.805 207.647,242.400 207.140,242.400 207.023 C 242.400 206.822,241.517 205.673,240.581 204.655 C 240.351 204.405,239.546 203.300,238.794 202.200 C 237.660 200.542,232.667 194.144,230.054 191.000 C 228.181 188.747,227.514 187.526,227.928 187.112 C 228.622 186.418,235.111 186.055,254.600 185.619 C 264.720 185.393,273.630 185.029,274.400 184.811 C 275.686 184.446,275.637 184.430,273.800 184.616 C 272.700 184.727,264.330 184.988,255.200 185.196 C 234.330 185.670,229.312 185.942,227.871 186.676 C 226.498 187.375,226.398 187.188,231.794 193.990 C 233.806 196.525,236.406 199.860,237.573 201.400 C 240.573 205.361,240.939 205.824,263.316 234.010 C 263.582 234.345,264.802 235.875,266.027 237.410 C 267.252 238.944,269.941 242.360,272.002 245.000 C 274.064 247.640,275.851 249.890,275.975 250.000 C 276.099 250.110,276.828 251.010,277.594 252.000 C 278.361 252.990,279.209 254.070,279.478 254.400 C 279.747 254.730,282.328 257.970,285.214 261.600 C 292.967 271.352,292.315 271.060,305.325 270.636 C 313.764 270.361,319.269 270.214,358.600 269.218 C 367.840 268.985,377.830 268.711,380.800 268.611 C 383.770 268.511,389.325 268.423,393.145 268.415 L 400.091 268.400 399.877 266.413 C 399.664 264.431,398.765 262.568,398.264 263.069 C 398.119 263.214,398.000 263.016,398.000 262.627 C 398.000 262.239,397.415 261.374,396.700 260.707 C 395.985 260.039,395.395 259.381,395.390 259.246 C 395.384 259.111,395.145 258.640,394.859 258.200 L 394.340 257.400 394.595 258.200 C 394.832 258.946,394.794 258.940,394.025 258.117 C 393.571 257.631,393.200 256.945,393.200 256.593 C 393.200 256.241,393.020 256.064,392.800 256.200 C 392.580 256.336,392.400 256.077,392.400 255.624 C 392.400 255.171,392.220 254.800,392.000 254.800 C 391.780 254.800,391.600 254.530,391.600 254.200 C 391.600 253.870,391.432 253.600,391.227 253.600 C 391.022 253.600,390.739 253.237,390.598 252.794 C 390.457 252.351,390.220 252.062,390.071 252.153 C 389.922 252.244,389.454 251.856,389.032 251.293 C 388.609 250.729,388.502 250.416,388.793 250.596 C 389.157 250.821,389.229 250.770,389.021 250.435 C 388.855 250.166,388.488 250.034,388.205 250.143 C 387.853 250.278,387.750 250.066,387.880 249.470 C 388.009 248.876,387.954 248.761,387.706 249.108 C 387.435 249.488,387.208 249.362,386.804 248.608 C 386.507 248.053,386.105 247.600,385.909 247.600 C 385.713 247.600,385.664 247.420,385.800 247.200 C 385.936 246.980,385.846 246.800,385.600 246.800 C 385.354 246.800,385.256 246.633,385.382 246.429 C 385.508 246.225,385.249 245.943,384.806 245.802 C 384.363 245.661,384.000 245.331,384.000 245.069 C 384.000 244.807,383.543 244.099,382.984 243.496 C 382.425 242.893,382.071 242.400,382.198 242.400 C 382.325 242.400,382.017 241.974,381.514 241.453 C 381.011 240.932,380.465 240.582,380.300 240.676 C 380.135 240.770,380.000 240.606,380.000 240.312 C 380.000 240.017,379.650 239.524,379.221 239.215 C 378.793 238.907,378.518 238.533,378.609 238.385 C 378.701 238.237,378.331 237.699,377.788 237.188 C 377.244 236.678,376.800 235.932,376.800 235.530 C 376.800 235.049,376.493 234.789,375.900 234.768 C 375.405 234.751,375.230 234.644,375.512 234.531 C 375.853 234.394,375.588 233.926,374.712 233.123 C 373.990 232.461,373.670 232.040,374.000 232.187 C 374.330 232.334,373.970 231.879,373.200 231.175 C 372.430 230.471,372.070 230.035,372.400 230.206 C 372.898 230.464,372.911 230.422,372.480 229.959 C 372.194 229.651,371.744 229.400,371.480 229.399 C 371.216 229.398,370.976 229.128,370.946 228.799 C 370.917 228.470,370.869 227.930,370.840 227.600 C 370.794 227.067,370.745 227.067,370.400 227.600 C 370.067 228.115,370.011 228.103,370.006 227.514 C 370.003 227.137,369.235 226.086,368.300 225.178 C 367.365 224.269,366.825 223.643,367.100 223.787 C 367.375 223.930,367.600 223.857,367.600 223.624 C 367.600 223.391,367.195 223.197,366.700 223.194 C 365.972 223.189,365.915 223.114,366.400 222.800 C 366.928 222.459,366.925 222.412,366.377 222.406 C 366.034 222.403,365.436 221.680,365.048 220.800 C 364.660 219.920,364.097 219.200,363.798 219.200 C 363.499 219.200,363.145 218.857,363.012 218.437 C 362.879 218.017,362.495 217.569,362.159 217.440 C 361.824 217.311,361.669 217.012,361.815 216.776 C 361.962 216.537,361.707 216.248,361.240 216.126 C 360.762 216.001,360.400 215.582,360.400 215.153 C 360.400 214.738,360.120 214.400,359.776 214.400 C 359.433 214.400,359.264 214.220,359.400 214.000 C 359.536 213.780,359.457 213.600,359.224 213.600 C 358.991 213.600,358.800 213.358,358.800 213.062 C 358.800 212.330,357.415 211.125,357.003 211.499 C 356.821 211.665,356.801 211.575,356.959 211.300 C 357.123 211.015,357.036 210.800,356.757 210.800 C 356.487 210.800,356.380 210.686,356.519 210.547 C 356.928 210.138,356.001 208.752,355.518 209.051 C 355.252 209.215,355.190 209.140,355.362 208.862 C 355.519 208.608,355.446 208.400,355.200 208.400 C 354.954 208.400,354.852 208.239,354.974 208.043 C 355.095 207.846,354.752 207.574,354.211 207.439 C 353.490 207.257,353.295 207.007,353.478 206.496 C 353.615 206.113,353.586 205.927,353.414 206.083 C 352.956 206.497,351.653 204.728,351.914 204.047 C 352.057 203.676,351.969 203.572,351.668 203.758 C 351.384 203.933,351.200 203.792,351.200 203.400 C 351.200 203.044,351.020 202.864,350.800 203.000 C 350.580 203.136,350.400 202.911,350.400 202.499 C 350.400 201.702,349.027 200.000,348.384 200.000 C 348.173 200.000,348.000 199.804,348.000 199.564 C 348.000 199.324,347.595 198.771,347.100 198.334 C 346.605 197.897,346.453 197.671,346.762 197.831 C 347.131 198.024,347.226 197.966,347.038 197.662 C 346.881 197.408,346.493 197.200,346.176 197.200 C 345.859 197.200,345.600 196.840,345.600 196.400 C 345.600 195.960,345.360 195.600,345.066 195.600 C 344.372 195.600,342.400 193.384,342.400 192.603 C 342.400 192.272,342.253 192.000,342.074 192.000 C 341.895 192.000,341.443 191.360,341.070 190.579 C 340.698 189.797,340.210 189.270,339.986 189.408 C 339.763 189.546,339.606 189.511,339.637 189.330 C 339.785 188.480,339.547 188.000,338.976 188.000 C 338.633 188.000,338.464 187.820,338.600 187.600 C 338.736 187.380,338.657 187.200,338.424 187.200 C 338.191 187.200,338.000 186.958,338.000 186.661 C 338.000 186.365,337.595 185.927,337.100 185.688 C 336.586 185.440,336.447 185.243,336.776 185.227 C 337.620 185.187,335.998 184.029,335.076 184.013 C 334.678 184.006,334.463 183.822,334.597 183.605 C 334.734 183.384,334.585 183.307,334.261 183.432 C 333.942 183.554,333.573 183.479,333.440 183.265 C 333.308 183.050,332.811 182.977,332.337 183.101 C 331.826 183.234,331.574 183.166,331.717 182.934 C 331.864 182.697,330.952 182.520,329.395 182.485 C 327.985 182.453,326.723 182.601,326.592 182.813 C 326.460 183.026,326.048 183.187,325.676 183.172 C 325.125 183.149,325.148 183.080,325.800 182.800 C 326.417 182.535,326.206 182.450,324.876 182.428 C 323.608 182.407,323.227 182.532,323.435 182.900 C 323.656 183.291,323.604 183.295,323.197 182.919 C 322.821 182.571,322.460 182.554,321.890 182.859 C 321.325 183.161,321.180 183.156,321.375 182.840 C 321.525 182.598,321.457 182.400,321.224 182.400 C 320.991 182.400,320.797 182.625,320.794 182.900 C 320.790 183.234,320.657 183.201,320.394 182.800 C 320.044 182.267,319.952 182.267,319.570 182.800 C 319.245 183.252,319.089 183.276,318.936 182.900 C 318.610 182.095,318.171 182.324,318.171 183.300 M1.200 224.934 C 1.200 225.248,13.274 231.259,13.484 231.050 C 13.587 230.947,11.001 229.543,7.738 227.931 C 0.713 224.461,1.200 224.684,1.200 224.934 " stroke="none" fill="#d4ecfc" fill-rule="evenodd"></path><path id="path3" d="M198.505 11.477 C 198.893 11.578,199.107 11.827,198.981 12.030 C 198.856 12.234,198.943 12.400,199.176 12.400 C 199.409 12.400,199.600 12.130,199.600 11.800 C 199.600 11.431,199.254 11.218,198.700 11.246 C 198.015 11.282,197.968 11.337,198.505 11.477 M188.200 12.400 C 188.417 12.751,187.925 12.964,187.138 12.860 C 186.994 12.841,186.774 13.090,186.650 13.413 C 186.352 14.191,186.765 14.150,188.103 13.267 C 188.710 12.867,189.085 12.418,188.937 12.270 C 188.515 11.849,187.924 11.953,188.200 12.400 M184.666 14.173 C 184.519 14.556,184.698 14.728,185.202 14.690 C 185.773 14.647,185.854 14.506,185.531 14.116 C 184.992 13.468,184.935 13.471,184.666 14.173 M178.460 17.300 C 178.185 17.575,177.834 17.816,177.680 17.835 C 177.134 17.902,175.797 18.546,175.596 18.839 C 175.484 19.002,175.128 19.195,174.806 19.268 C 174.483 19.341,173.975 19.627,173.677 19.904 C 173.379 20.181,172.970 20.305,172.768 20.180 C 172.565 20.055,172.400 20.143,172.400 20.376 C 172.400 20.609,172.117 20.800,171.771 20.800 C 171.426 20.800,170.871 21.072,170.539 21.404 C 170.207 21.736,169.770 21.905,169.568 21.780 C 169.365 21.655,169.200 21.743,169.200 21.976 C 169.200 22.209,168.855 22.400,168.433 22.400 C 168.012 22.400,167.607 22.567,167.533 22.770 C 167.460 22.974,167.137 23.199,166.816 23.270 C 166.494 23.342,165.875 23.715,165.440 24.100 C 165.005 24.485,164.321 24.800,163.919 24.800 C 163.154 24.800,161.574 25.563,161.155 26.134 C 161.021 26.318,160.751 26.475,160.555 26.482 C 159.873 26.508,158.476 27.154,158.226 27.558 C 158.088 27.782,157.733 27.873,157.439 27.760 C 157.144 27.647,156.797 27.831,156.667 28.170 C 156.518 28.558,156.177 28.689,155.750 28.525 C 155.289 28.348,155.162 28.415,155.358 28.732 C 155.550 29.043,155.303 29.200,154.624 29.200 C 154.061 29.200,153.600 29.380,153.600 29.600 C 153.600 29.820,153.259 30.000,152.843 30.000 C 152.426 30.000,151.983 30.267,151.858 30.593 C 151.717 30.961,151.371 31.087,150.950 30.925 C 150.489 30.748,150.362 30.815,150.558 31.132 C 150.750 31.443,150.503 31.600,149.824 31.600 C 149.261 31.600,148.800 31.780,148.800 32.000 C 148.800 32.220,148.440 32.400,148.000 32.400 C 147.560 32.400,147.200 32.580,147.200 32.800 C 147.200 33.020,146.966 33.200,146.680 33.200 C 146.394 33.200,145.935 33.425,145.660 33.700 C 145.385 33.975,145.034 34.224,144.880 34.254 C 143.834 34.455,142.800 34.949,142.800 35.247 C 142.800 35.441,142.517 35.600,142.171 35.600 C 141.826 35.600,141.271 35.872,140.939 36.204 C 140.607 36.536,140.170 36.705,139.968 36.580 C 139.765 36.455,139.600 36.543,139.600 36.776 C 139.600 37.009,139.317 37.200,138.971 37.200 C 138.626 37.200,138.071 37.472,137.739 37.804 C 137.407 38.136,136.970 38.305,136.768 38.180 C 136.565 38.055,136.400 38.143,136.400 38.376 C 136.400 38.609,136.040 38.800,135.600 38.800 C 135.160 38.800,134.800 38.936,134.800 39.102 C 134.800 39.451,132.349 40.623,131.900 40.489 C 131.735 40.440,131.600 40.580,131.600 40.800 C 131.600 41.020,131.240 41.200,130.800 41.200 C 130.360 41.200,130.000 41.380,130.000 41.600 C 130.000 41.820,129.664 42.000,129.254 42.000 C 128.844 42.000,128.034 42.373,127.454 42.829 C 126.874 43.285,126.400 43.527,126.400 43.367 C 126.400 43.207,126.070 43.374,125.668 43.739 C 125.265 44.103,124.819 44.286,124.677 44.144 C 124.535 44.002,124.313 44.161,124.184 44.499 C 124.038 44.877,123.646 45.032,123.157 44.905 C 122.624 44.765,122.404 44.877,122.483 45.249 C 122.556 45.595,122.265 45.788,121.700 45.768 C 121.205 45.751,120.800 45.886,120.800 46.068 C 120.800 46.251,120.459 46.400,120.043 46.400 C 119.626 46.400,119.183 46.667,119.058 46.993 C 118.928 47.331,118.565 47.485,118.215 47.350 C 117.877 47.221,117.600 47.314,117.600 47.557 C 117.600 47.801,117.240 48.000,116.800 48.000 C 116.360 48.000,116.000 48.180,116.000 48.400 C 116.000 48.620,115.659 48.800,115.243 48.800 C 114.826 48.800,114.372 49.096,114.233 49.457 C 114.095 49.819,113.865 49.998,113.723 49.856 C 113.581 49.714,113.180 49.856,112.832 50.171 C 112.485 50.485,112.020 50.784,111.800 50.835 C 110.380 51.162,110.000 51.333,110.000 51.647 C 110.000 51.841,109.717 52.000,109.371 52.000 C 109.026 52.000,108.471 52.272,108.139 52.604 C 107.807 52.936,107.370 53.105,107.168 52.980 C 106.965 52.855,106.800 52.943,106.800 53.176 C 106.800 53.409,106.440 53.600,106.000 53.600 C 105.560 53.600,105.200 53.780,105.200 54.000 C 105.200 54.220,104.855 54.400,104.433 54.400 C 104.012 54.400,103.607 54.566,103.533 54.770 C 103.460 54.973,103.130 55.198,102.800 55.270 C 102.470 55.341,101.909 55.715,101.553 56.100 C 101.197 56.485,100.702 56.800,100.453 56.800 C 100.204 56.800,100.000 56.980,100.000 57.200 C 100.000 57.420,99.746 57.600,99.435 57.600 C 98.933 57.600,98.777 59.378,99.246 59.747 C 99.331 59.813,102.640 61.449,106.600 63.381 C 124.129 71.935,133.410 76.587,133.533 76.882 C 133.607 77.057,133.924 77.200,134.239 77.200 C 134.810 77.200,136.421 77.982,136.800 78.444 C 136.910 78.578,137.675 78.929,138.500 79.224 C 139.325 79.519,140.000 79.905,140.000 80.080 C 140.000 80.256,140.360 80.400,140.800 80.400 C 141.240 80.400,141.600 80.580,141.600 80.800 C 141.600 81.020,141.799 81.200,142.041 81.200 C 142.663 81.200,170.971 95.290,171.133 95.680 C 171.207 95.856,171.477 95.999,171.733 95.997 C 171.990 95.996,174.006 96.902,176.214 98.011 L 180.228 100.027 214.551 82.852 C 253.313 63.457,252.400 64.034,252.400 58.938 C 252.400 53.976,253.241 54.505,214.667 35.176 C 176.025 15.813,179.125 17.408,179.469 17.064 C 179.614 16.919,179.559 16.800,179.347 16.800 C 179.134 16.800,178.735 17.025,178.460 17.300 M225.423 25.237 C 225.546 25.437,225.917 25.600,226.247 25.600 C 226.599 25.600,226.729 25.791,226.562 26.062 C 226.384 26.350,226.452 26.415,226.745 26.234 C 227.351 25.859,227.025 25.352,226.006 25.086 C 225.562 24.970,225.300 25.038,225.423 25.237 M255.606 39.892 C 255.600 40.350,258.381 42.022,259.084 41.982 C 259.258 41.973,258.680 41.588,257.800 41.127 C 256.920 40.667,256.068 40.090,255.906 39.845 C 255.699 39.531,255.610 39.545,255.606 39.892 M90.243 178.233 C 90.093 178.623,90.182 178.806,90.475 178.708 C 91.073 178.509,91.402 177.600,90.876 177.600 C 90.661 177.600,90.376 177.885,90.243 178.233 M81.197 182.700 C 81.193 183.098,79.221 184.000,78.354 184.000 C 77.976 184.000,77.607 184.141,77.533 184.313 C 77.330 184.790,74.432 186.400,73.777 186.400 C 73.460 186.400,73.200 186.580,73.200 186.800 C 73.200 187.020,72.840 187.200,72.400 187.200 C 71.960 187.200,71.600 187.380,71.600 187.600 C 71.600 187.820,71.240 188.000,70.800 188.000 C 70.360 188.000,69.999 188.135,69.997 188.300 C 69.993 188.659,68.056 189.600,67.320 189.600 C 67.034 189.600,66.800 189.780,66.800 190.000 C 66.800 190.220,66.440 190.400,66.000 190.400 C 65.560 190.400,65.200 190.580,65.200 190.800 C 65.200 191.020,64.930 191.200,64.600 191.200 C 64.270 191.200,64.000 191.380,64.000 191.600 C 64.000 191.820,63.640 192.000,63.200 192.000 C 62.760 192.000,62.400 192.174,62.400 192.387 C 62.400 192.601,62.132 192.672,61.803 192.546 C 61.473 192.419,61.105 192.583,60.978 192.914 C 60.832 193.292,60.441 193.431,59.912 193.293 C 59.342 193.144,59.166 193.222,59.361 193.537 C 59.549 193.842,59.297 194.000,58.624 194.000 C 58.061 194.000,57.600 194.180,57.600 194.400 C 57.600 194.620,57.317 194.800,56.971 194.800 C 56.626 194.800,56.073 195.070,55.743 195.399 C 55.414 195.729,54.668 196.118,54.085 196.264 C 53.503 196.411,52.672 196.861,52.238 197.265 C 51.804 197.669,51.123 198.000,50.725 198.000 C 50.326 198.000,50.000 198.180,50.000 198.400 C 50.000 198.620,49.539 198.800,48.976 198.800 C 48.396 198.800,48.060 198.973,48.200 199.200 C 48.341 199.428,47.996 199.600,47.400 199.600 C 46.804 199.600,46.459 199.772,46.600 200.000 C 46.741 200.228,46.396 200.400,45.800 200.400 C 45.204 200.400,44.859 200.572,45.000 200.800 C 45.136 201.020,45.002 201.200,44.703 201.200 C 43.949 201.200,42.007 202.135,42.003 202.500 C 42.001 202.665,41.640 202.800,41.200 202.800 C 40.760 202.800,40.400 202.980,40.400 203.200 C 40.400 203.420,40.040 203.600,39.600 203.600 C 39.160 203.600,38.800 203.780,38.800 204.000 C 38.800 204.220,38.440 204.400,38.000 204.400 C 37.560 204.400,37.200 204.580,37.200 204.800 C 37.200 205.020,36.840 205.200,36.400 205.200 C 35.960 205.200,35.600 205.380,35.600 205.600 C 35.600 205.820,35.240 206.000,34.800 206.000 C 34.360 206.000,34.000 206.180,34.000 206.400 C 34.000 206.620,33.640 206.800,33.200 206.800 C 32.760 206.800,32.400 206.980,32.400 207.200 C 32.400 207.420,32.040 207.600,31.600 207.600 C 31.160 207.600,30.800 207.780,30.800 208.000 C 30.800 208.220,30.530 208.400,30.200 208.400 C 29.870 208.400,29.600 208.574,29.600 208.787 C 29.600 209.001,29.332 209.072,29.003 208.946 C 28.668 208.817,28.303 208.987,28.170 209.333 C 28.040 209.672,27.684 209.854,27.379 209.736 C 27.073 209.619,26.344 209.901,25.758 210.362 C 25.172 210.823,24.356 211.200,23.946 211.200 C 23.536 211.200,23.200 211.368,23.200 211.574 C 23.200 211.780,22.570 212.176,21.800 212.454 C 21.030 212.733,20.400 213.105,20.400 213.280 C 20.400 213.456,20.040 213.600,19.600 213.600 C 19.160 213.600,18.800 213.780,18.800 214.000 C 18.800 214.220,18.451 214.400,18.024 214.400 C 17.597 214.400,17.136 214.580,17.000 214.800 C 16.864 215.020,16.403 215.200,15.976 215.200 C 15.549 215.200,15.200 215.380,15.200 215.600 C 15.200 215.820,14.840 216.000,14.400 216.000 C 13.960 216.000,13.600 216.180,13.600 216.400 C 13.600 216.620,13.259 216.800,12.843 216.800 C 12.426 216.800,11.983 217.067,11.858 217.393 C 11.728 217.731,11.365 217.885,11.015 217.750 C 10.677 217.621,10.400 217.714,10.400 217.957 C 10.400 218.201,10.130 218.400,9.800 218.400 C 9.470 218.400,9.200 218.580,9.200 218.800 C 9.200 219.020,8.840 219.200,8.400 219.200 C 7.960 219.200,7.600 219.380,7.600 219.600 C 7.600 219.820,7.210 220.000,6.733 220.000 C 6.257 220.000,5.984 220.117,6.127 220.261 C 6.407 220.540,4.609 221.600,3.854 221.600 C 3.188 221.601,1.417 223.295,1.294 224.049 C 1.217 224.525,2.970 225.575,7.894 228.002 C 11.582 229.819,29.915 238.932,48.632 248.253 C 67.350 257.574,82.795 265.200,82.954 265.200 C 83.425 265.200,150.487 231.624,151.821 230.720 C 155.914 227.947,156.168 221.139,152.286 218.268 C 151.579 217.746,135.724 209.693,117.054 200.373 C 98.384 191.053,83.020 183.196,82.911 182.914 C 82.704 182.372,81.202 182.185,81.197 182.700 M310.580 182.776 C 310.361 182.993,304.238 183.190,296.117 183.242 C 286.119 183.306,282.110 183.458,282.294 183.766 C 282.437 184.005,282.249 183.953,281.877 183.651 C 281.436 183.293,281.200 183.258,281.200 183.551 C 281.200 183.835,280.277 184.000,278.680 184.000 C 277.294 184.000,275.972 184.188,275.742 184.418 C 275.091 185.069,266.744 185.526,250.600 185.795 C 225.856 186.206,226.032 186.162,230.054 191.000 C 232.619 194.087,237.658 200.538,238.794 202.191 C 240.182 204.209,240.995 205.263,241.900 206.216 C 242.175 206.506,242.400 206.854,242.400 206.990 C 242.400 207.125,242.805 207.647,243.300 208.149 C 243.795 208.651,244.599 209.588,245.086 210.231 C 245.574 210.874,246.330 211.850,246.766 212.400 C 247.203 212.950,249.825 216.280,252.593 219.800 C 255.361 223.320,257.847 226.470,258.118 226.800 C 258.389 227.130,259.239 228.210,260.006 229.200 C 260.772 230.190,261.503 231.090,261.628 231.200 C 261.754 231.310,262.821 232.660,264.000 234.200 C 265.179 235.740,266.254 237.090,266.390 237.200 C 266.526 237.310,267.521 238.570,268.600 240.000 C 269.679 241.430,270.666 242.690,270.792 242.800 C 270.918 242.910,271.641 243.810,272.400 244.800 C 273.159 245.790,273.875 246.690,273.992 246.800 C 274.109 246.910,274.678 247.630,275.257 248.400 C 275.836 249.170,276.645 250.195,277.055 250.677 C 277.465 251.159,278.610 252.581,279.600 253.838 C 280.590 255.094,281.825 256.573,282.345 257.124 L 283.289 258.125 293.945 257.860 C 299.805 257.713,311.260 257.411,319.400 257.187 C 327.540 256.963,340.147 256.630,347.417 256.448 C 363.315 256.049,364.983 255.527,366.376 250.511 C 367.439 246.684,366.937 245.690,358.694 235.304 C 354.683 230.249,350.950 225.523,350.400 224.803 C 349.850 224.083,349.065 223.112,348.655 222.647 C 348.245 222.181,347.435 221.176,346.855 220.413 C 346.275 219.650,343.863 216.590,341.495 213.613 C 334.742 205.124,334.464 204.773,326.043 194.140 C 321.515 188.424,318.102 183.762,318.138 183.341 C 318.211 182.473,315.764 182.148,313.909 182.780 C 313.189 183.026,312.730 183.010,312.559 182.733 C 312.390 182.460,312.180 182.503,311.956 182.857 C 311.703 183.257,311.611 183.268,311.606 182.900 C 311.599 182.308,311.112 182.249,310.580 182.776 M331.423 182.837 C 331.764 183.389,333.067 183.483,333.067 182.955 C 333.067 182.644,332.688 182.451,332.162 182.495 C 331.665 182.536,331.332 182.690,331.423 182.837 M342.601 192.798 C 342.466 193.017,342.936 193.782,343.645 194.498 C 344.354 195.214,344.725 195.513,344.470 195.163 C 344.215 194.813,344.140 194.379,344.303 194.199 C 344.467 194.019,344.344 194.020,344.032 194.201 C 343.609 194.447,343.529 194.361,343.719 193.866 C 343.889 193.424,343.769 193.200,343.364 193.200 C 343.028 193.200,342.864 193.020,343.000 192.800 C 343.136 192.580,343.157 192.400,343.047 192.400 C 342.937 192.400,342.737 192.579,342.601 192.798 M352.196 205.243 C 352.633 205.770,353.038 206.275,353.096 206.367 C 353.153 206.458,353.200 206.277,353.200 205.963 C 353.200 205.649,352.795 205.144,352.300 204.840 L 351.400 204.287 352.196 205.243 M356.702 210.666 C 356.979 210.777,357.085 211.078,356.938 211.334 C 356.792 211.590,356.819 211.667,356.999 211.503 C 357.179 211.340,357.613 211.427,357.963 211.697 C 358.353 211.997,358.305 211.840,357.838 211.293 C 357.419 210.802,356.879 210.414,356.638 210.432 C 356.387 210.450,356.415 210.550,356.702 210.666 M367.771 224.744 C 368.415 225.430,369.025 225.908,369.128 225.805 C 369.399 225.534,368.399 224.425,367.433 223.926 C 366.801 223.600,366.883 223.798,367.771 224.744 M370.909 228.409 C 370.877 228.836,371.020 229.289,371.227 229.416 C 371.433 229.544,371.547 229.282,371.478 228.835 C 371.307 227.715,370.980 227.470,370.909 228.409 M378.679 238.254 C 378.547 238.387,378.708 238.765,379.038 239.095 C 379.815 239.872,380.084 239.603,379.428 238.706 C 379.149 238.324,378.812 238.121,378.679 238.254 M393.200 256.993 C 393.200 257.125,393.582 257.631,394.049 258.117 L 394.899 259.000 394.447 258.122 C 394.000 257.254,393.200 256.529,393.200 256.993 " stroke="none" fill="#e3f4fc" fill-rule="evenodd"></path><path id="path4" d="M262.475 116.906 C 256.619 118.781,256.538 127.687,262.360 129.562 C 269.317 131.803,274.367 122.946,268.802 118.263 C 266.842 116.613,264.774 116.170,262.475 116.906 M261.400 142.748 C 257.168 145.377,256.566 150.368,260.116 153.406 C 265.730 158.212,273.728 152.123,270.392 145.584 C 268.759 142.384,264.268 140.967,261.400 142.748 M236.321 151.616 C 230.592 154.642,231.905 163.045,238.294 164.244 C 240.229 164.607,243.002 163.389,244.522 161.508 C 248.771 156.247,242.310 148.453,236.321 151.616 M356.414 366.374 C 355.907 367.321,355.884 367.719,356.352 367.430 C 356.705 367.212,357.255 365.600,356.977 365.600 C 356.895 365.600,356.642 365.948,356.414 366.374 M310.559 375.667 C 310.445 375.850,310.723 376.000,311.176 376.000 C 311.629 376.000,312.000 375.850,312.000 375.667 C 312.000 375.483,311.722 375.333,311.382 375.333 C 311.043 375.333,310.672 375.483,310.559 375.667 " stroke="none" fill="#78cefc" fill-rule="evenodd"></path></g></svg>